<?xml version="1.0" encoding="UTF-8"?>
<svg width="63px" height="86px" viewBox="0 0 63 86" version="1.1" xmlns="http://www.w3.org/2000/svg" xmlns:xlink="http://www.w3.org/1999/xlink">
    <!-- Generator: Sketch 51.2 (57519) - http://www.bohemiancoding.com/sketch -->
    <title>pin-icon</title>
    <desc>Created with Sketch.</desc>
    <defs>
        <polygon id="path-1" points="0 0 63 0 63 86 0 86"></polygon>
    </defs>
    <g id="Page-1" stroke="none" stroke-width="1" fill="none" fill-rule="evenodd">
        <g id="Contact" transform="translate(-988.000000, -776.000000)">
            <g id="contact-block" transform="translate(0.000000, 500.000000)">
                <g id="Pin-icon" transform="translate(988.000000, 276.000000)">
                    <g id="Page-1">
                        <mask id="mask-2" fill="white">
                            <use xlink:href="#path-1"></use>
                        </mask>
                        <g id="Clip-2"></g>
                        <path d="M31.5,46.8160476 C22.7610799,46.8160476 15.6518099,39.7863927 15.6518099,31.1459185 C15.6518099,22.5052764 22.7612498,15.4756214 31.5,15.4756214 C40.2387502,15.4756214 47.34836,22.5052764 47.34836,31.1459185 C47.34836,39.7863927 40.2387502,46.8160476 31.5,46.8160476 M31.5,0 C14.1307125,0 0,13.9719663 0,31.1459185 C0,52.4591216 28.1895662,83.7481494 29.3895921,85.0697266 C30.5169097,86.3111827 32.4851288,86.3089991 33.610238,85.0697266 C34.8106037,83.7481494 63,52.4591216 63,31.1459185 C62.9998301,13.9719663 48.8691176,0 31.5,0" id="Fill-1" fill="#004A99" mask="url(#mask-2)"></path>
                    </g>
                </g>
            </g>
        </g>
    </g>
</svg>