<?xml version="1.0" encoding="UTF-8"?>
<svg width="58px" height="58px" viewBox="0 0 58 58" version="1.1" xmlns="http://www.w3.org/2000/svg" xmlns:xlink="http://www.w3.org/1999/xlink">
    <!-- Generator: Sketch 51.2 (57519) - http://www.bohemiancoding.com/sketch -->
    <title>plus-icon</title>
    <desc>Created with Sketch.</desc>
    <defs></defs>
    <g id="Page-1" stroke="none" stroke-width="1" fill="none" fill-rule="evenodd">
        <g id="Contact" transform="translate(-1078.000000, -965.000000)">
            <g id="contact-block" transform="translate(0.000000, 500.000000)">
                <g id="1STU0424" transform="translate(815.000000, 104.000000)">
                    <g id="plus-icon" transform="translate(263.000000, 361.000000)">
                        <g>
                            <rect id="Rectangle" fill="#E30D13" x="0" y="0" width="58" height="58"></rect>
                            <g id="corss" transform="translate(29.500000, 29.500000) rotate(45.000000) translate(-29.500000, -29.500000) translate(22.000000, 22.000000)" stroke="#FFFFFF" stroke-linecap="square">
                                <g id="hamburger" transform="translate(7.696281, 7.334711) scale(-1, 1) rotate(-315.000000) translate(-7.696281, -7.334711) translate(-1.838843, 6.845730)">
                                    <path d="M0.207285304,0.427858127 L18.8629626,0.427858127" id="Line-Copy" stroke-width="2"></path>
                                    <path d="M0.207285304,0.427858127 L18.8629626,0.427858127" id="Line-Copy" stroke-width="2" transform="translate(9.535124, 0.427858) scale(-1, 1) translate(-9.535124, -0.427858) "></path>
                                </g>
                                <g id="hamburger" transform="translate(7.696281, 7.334711) rotate(-315.000000) translate(-7.696281, -7.334711) translate(-1.838843, 6.845730)">
                                    <path d="M0.207285304,0.427858127 L18.8629626,0.427858127" id="Line-Copy" stroke-width="2"></path>
                                    <path d="M0.207285304,0.427858127 L18.8629626,0.427858127" id="Line-Copy" stroke-width="2" transform="translate(9.535124, 0.427858) scale(-1, 1) translate(-9.535124, -0.427858) "></path>
                                </g>
                            </g>
                        </g>
                    </g>
                </g>
            </g>
        </g>
    </g>
</svg>