<?xml version="1.0" encoding="UTF-8"?>
<svg width="180px" height="20px" viewBox="0 0 180 20" version="1.1" xmlns="http://www.w3.org/2000/svg" xmlns:xlink="http://www.w3.org/1999/xlink">
    <!-- Generator: Sketch 51.2 (57519) - http://www.bohemiancoding.com/sketch -->
    <title>anritsu-logo</title>
    <desc>Created with Sketch.</desc>
    <defs></defs>
    <g id="Page-1" stroke="none" stroke-width="1" fill="none" fill-rule="evenodd" opacity="0.85">
        <g id="Contact" transform="translate(-820.000000, -1727.000000)" fill="#F0F0F0">
            <g id="anritsu" transform="translate(820.000000, 1727.000000)">
                <g id="Shape">
                    <path d="M47.4666667,3.93333333 L46.2,3.93333333 C41.1333333,3.93333333 39.5333333,4.86666667 39.5333333,8.86666667 L39.5333333,19 C39.5333333,19.2 39.6666667,19.3333333 39.8666667,19.3333333 L43.0666667,19.3333333 C43.2666667,19.3333333 43.4,19.2 43.4,19 L43.4,8.33333333 C43.4,7.13333333 43.8666667,6.73333333 46.2666667,6.73333333 L47.5333333,6.73333333 C47.7333333,6.73333333 47.8666667,6.6 47.8666667,6.4 L47.8666667,4.26666667 C47.8,4.13333333 47.6666667,3.93333333 47.4666667,3.93333333 M30,3.93333333 C24.9333333,3.93333333 23.3333333,4.86666667 23.3333333,8.86666667 L23.3333333,19 C23.3333333,19.2 23.4666667,19.3333333 23.6666667,19.3333333 L26.8666667,19.3333333 C27.0666667,19.3333333 27.2,19.2 27.2,19 L27.2,8.33333333 C27.2,7.13333333 27.6666667,6.73333333 30.0666667,6.73333333 C32.4666667,6.73333333 32.9333333,7.13333333 32.9333333,8.33333333 L32.9333333,19 C32.9333333,19.2 33.0666667,19.3333333 33.2666667,19.3333333 L36.4666667,19.3333333 C36.6666667,19.3333333 36.8,19.2 36.8,19 L36.8,8.86666667 C36.6666667,4.86666667 35.0666667,3.93333333 30,3.93333333 M19.6,4 L17.4666667,4 C17.0666667,4 16.7333333,3.66666667 16.7333333,3.26666667 L16.7333333,1.2 C16.7333333,0.8 16.4,0.466666667 16,0.466666667 L15.2666667,0.466666667 C13.7333333,0.466666667 12.7333333,1.13333333 11.9333333,2.4 C11.3333333,3.33333333 0.533333333,18.8666667 0.533333333,18.9333333 L0.466666667,19.0666667 C0.466666667,19.2 0.6,19.3333333 0.733333333,19.3333333 L4.4,19.3333333 C4.66666667,19.3333333 4.93333333,19.2 5.06666667,19 C5.2,18.7333333 13.4666667,6.46666667 13.8,5.93333333 C14.2,5.33333333 14.4666667,5 15.4,5 C15.8666667,5 16.4,5.06666667 16.4,6.06666667 L16.4,19 C16.4,19.2 16.5333333,19.3333333 16.7333333,19.3333333 L20,19.3333333 C20.2,19.3333333 20.3333333,19.2 20.3333333,19 L20.3333333,4.73333333 C20.3333333,4.33333333 20,4 19.6,4 M52.8666667,6.26666667 L49.6666667,6.26666667 C49.4666667,6.26666667 49.3333333,6.4 49.3333333,6.6 L49.3333333,19 C49.3333333,19.2 49.4666667,19.3333333 49.6666667,19.3333333 L52.8666667,19.3333333 C53.0666667,19.3333333 53.2,19.2 53.2,19 L53.2,6.6 C53.2,6.4 53.0666667,6.26666667 52.8666667,6.26666667 M64,4 L60.8,4 C60.6,4 60.4666667,3.86666667 60.4666667,3.66666667 L60.4666667,0.866666667 C60.4666667,0.666666667 60.3333333,0.533333333 60.1333333,0.533333333 L56.9333333,0.533333333 C56.7333333,0.533333333 56.6,0.666666667 56.6,0.866666667 L56.6,14.3333333 C56.6,18.6666667 58.6,19.2666667 62.5333333,19.2666667 L64,19.2666667 C64.2,19.2666667 64.3333333,19.1333333 64.3333333,18.9333333 L64.3333333,16.8 C64.3333333,16.6 64.2,16.4666667 64,16.4666667 L63,16.4666667 C61.4666667,16.4666667 60.4,16.5333333 60.4,15.1333333 L60.4,6.93333333 C60.4,6.73333333 60.5333333,6.6 60.7333333,6.6 L63.9333333,6.6 C64.1333333,6.6 64.2666667,6.46666667 64.2666667,6.26666667 L64.2666667,4.13333333 C64.3333333,4.13333333 64.2,4 64,4 M52.8666667,0.6 L49.6666667,0.6 C49.4666667,0.6 49.3333333,0.733333333 49.3333333,0.866666667 L49.3333333,3.66666667 C49.3333333,3.8 49.4666667,3.93333333 49.6666667,3.93333333 L52.8666667,3.93333333 C53.0666667,3.93333333 53.2,3.8 53.2,3.66666667 L53.2,0.866666667 C53.2,0.733333333 53.0666667,0.6 52.8666667,0.6 M92.5333333,4 L89.3333333,4 C89.1333333,4 89,4.13333333 89,4.33333333 L89,15 C89,16.2 88.5333333,16.5333333 86.1333333,16.5333333 C83.7333333,16.5333333 83.2666667,16.1333333 83.2666667,15 L83.2666667,4.33333333 C83.2666667,4.13333333 83.1333333,4 82.9333333,4 L79.7333333,4 C79.5333333,4 79.4,4.13333333 79.4,4.33333333 L79.4,14.4666667 C79.4,18.4666667 81,19.4 86.0666667,19.4 C91.1333333,19.4 92.7333333,18.5333333 92.7333333,14.4666667 L92.7333333,4.33333333 C92.8666667,4.13333333 92.7333333,4 92.5333333,4 M74.9333333,11.7333333 C74,11.2 71.2,9.53333333 70.6,9.13333333 C69.9333333,8.73333333 69.4,8.4 69.4,7.73333333 C69.4,7 70.2,6.8 71.2,6.73333333 C72.3333333,6.66666667 75.0666667,6.73333333 76.5333333,6.8 C76.7333333,6.8 76.8666667,6.66666667 76.8666667,6.46666667 L76.8666667,4.33333333 C76.8666667,4.13333333 76.7333333,4.06666667 76.5333333,4 C74.5333333,3.86666667 73.1333333,3.86666667 70.9333333,3.93333333 C67.4,4.06666667 65.6666667,5.26666667 65.6666667,7.73333333 C65.6666667,9.33333333 66.5333333,10.2666667 68.1333333,11.2666667 C68.1333333,11.2666667 72.6666667,14 72.9333333,14.2 C73.6666667,14.6666667 74,15 74,15.4666667 C74,16.2 73.2,16.4 72.2,16.4666667 C71.0666667,16.5333333 67.5333333,16.5333333 66.4,16.4666667 C66.2,16.4666667 66.0666667,16.6 66.0666667,16.8 L66.0666667,18.9333333 C66.0666667,19.1333333 66.2,19.2666667 66.4,19.2666667 C67.6,19.3333333 70.0666667,19.3333333 72.2666667,19.2666667 C76.5333333,19.1333333 77.7333333,17.9333333 77.7333333,15.4666667 C77.8,14.0666667 76.7333333,12.7333333 74.9333333,11.7333333" fill-rule="nonzero"></path>
                    <path d="M103.733333,13.6666667 C103.333333,13.8 102.866667,14 102,14 C100,14 99.1333333,12.8666667 99.1333333,11.1333333 C99.1333333,9.53333333 100.2,8.4 101.733333,8.4 C103.6,8.4 104.2,9.73333333 104.2,11.4 L100.2,11.4 C100.2,12.4666667 101.066667,13.2 102.066667,13.2 C102.733333,13.2 103.533333,12.8666667 103.8,12.6666667 L103.8,13.6666667 L103.733333,13.6666667 Z M103.066667,10.7333333 C103.066667,9.93333333 102.533333,9.26666667 101.666667,9.26666667 C100.666667,9.26666667 100.266667,10.0666667 100.2,10.7333333 L103.066667,10.7333333 Z" fill-rule="nonzero"></path>
                    <path d="M105.533333,8.6 L106.533333,8.6 L106.533333,9.46666667 C106.866667,8.86666667 107.6,8.46666667 108.333333,8.46666667 C109.8,8.46666667 110.4,9.33333333 110.4,10.7333333 L110.4,13.9333333 L109.4,13.9333333 L109.4,11.1333333 C109.4,9.86666667 109.133333,9.26666667 108.2,9.2 C107,9.2 106.533333,10.1333333 106.533333,11.4 L106.533333,13.8666667 L105.533333,13.8666667 L105.533333,8.6" fill-rule="nonzero"></path>
                    <polygon fill-rule="nonzero" points="114.6 13.9333333 113.4 13.9333333 111.4 8.6 112.466667 8.6 114 12.9333333 114 12.9333333 115.533333 8.6 116.6 8.6"></polygon>
                    <path d="M118.933333,7.4 L117.8,7.4 L117.8,6.26666667 L118.933333,6.26666667 L118.933333,7.4 Z M117.8,8.6 L118.8,8.6 L118.8,13.9333333 L117.8,13.9333333 L117.8,8.6 Z" fill-rule="nonzero"></path>
                    <path d="M120.6,12.8666667 C121,13.1333333 121.6,13.2666667 121.866667,13.2666667 C122.333333,13.2666667 122.933333,13.0666667 122.933333,12.5333333 C122.933333,11.5333333 120.533333,11.6666667 120.533333,10.1333333 C120.533333,9 121.4,8.46666667 122.466667,8.46666667 C122.933333,8.46666667 123.333333,8.53333333 123.733333,8.66666667 L123.666667,9.53333333 C123.466667,9.4 122.8,9.26666667 122.6,9.26666667 C122.066667,9.26666667 121.6,9.46666667 121.6,9.93333333 C121.6,11 124,10.7333333 124,12.4 C124,13.5333333 123.066667,14.0666667 122.066667,14.0666667 C121.533333,14.0666667 121,14 120.533333,13.8 L120.6,12.8666667" fill-rule="nonzero"></path>
                    <path d="M126.733333,7.4 L125.6,7.4 L125.6,6.26666667 L126.733333,6.26666667 L126.733333,7.4 Z M125.666667,8.6 L126.666667,8.6 L126.666667,13.9333333 L125.666667,13.9333333 L125.666667,8.6 Z" fill-rule="nonzero"></path>
                    <path d="M130.666667,8.46666667 C132.333333,8.46666667 133.466667,9.66666667 133.466667,11.2666667 C133.466667,12.8 132.333333,14.0666667 130.666667,14.0666667 C129,14.0666667 127.8,12.8 127.8,11.2666667 C127.866667,9.6 129,8.46666667 130.666667,8.46666667 M130.666667,13.2666667 C131.866667,13.2666667 132.4,12.2 132.4,11.2666667 C132.4,10.2666667 131.733333,9.26666667 130.666667,9.26666667 C129.533333,9.26666667 128.933333,10.2666667 128.933333,11.2666667 C128.933333,12.2 129.466667,13.2666667 130.666667,13.2666667" fill-rule="nonzero"></path>
                    <path d="M134.733333,8.6 L135.733333,8.6 L135.733333,9.46666667 C136.066667,8.86666667 136.8,8.46666667 137.533333,8.46666667 C139,8.46666667 139.6,9.33333333 139.6,10.7333333 L139.6,13.9333333 L138.6,13.9333333 L138.6,11.1333333 C138.6,9.86666667 138.333333,9.26666667 137.4,9.2 C136.2,9.2 135.733333,10.1333333 135.733333,11.4 L135.733333,13.8666667 L134.733333,13.8666667 L134.733333,8.6" fill-rule="nonzero"></path>
                    <path d="M144,9.73333333 L142.8,9.73333333 L142.8,8.53333333 L144,8.53333333 L144,9.73333333 Z M142.8,12.7333333 L144,12.7333333 L144,13.9333333 L142.8,13.9333333 L142.8,12.7333333 Z" fill-rule="nonzero"></path>
                    <path d="M151.4,13.6666667 C151,13.8 150.533333,14 149.666667,14 C147.666667,14 146.8,12.8666667 146.8,11.1333333 C146.8,9.53333333 147.866667,8.4 149.4,8.4 C151.266667,8.4 151.866667,9.73333333 151.866667,11.4 L147.866667,11.4 C147.866667,12.4666667 148.733333,13.2 149.666667,13.2 C150.333333,13.2 151.133333,12.8666667 151.4,12.6666667 L151.4,13.6666667 Z M150.733333,10.7333333 C150.733333,9.93333333 150.2,9.26666667 149.333333,9.26666667 C148.333333,9.26666667 147.933333,10.0666667 147.866667,10.7333333 L150.733333,10.7333333 Z" fill-rule="nonzero"></path>
                    <path d="M153.2,8.6 L154.2,8.6 L154.2,9.46666667 C154.533333,8.86666667 155.266667,8.46666667 156,8.46666667 C157.466667,8.46666667 158.066667,9.33333333 158.066667,10.7333333 L158.066667,13.9333333 L157.066667,13.9333333 L157.066667,11.1333333 C157.066667,9.86666667 156.8,9.26666667 155.866667,9.2 C154.666667,9.2 154.2,10.1333333 154.2,11.4 L154.2,13.8666667 L153.2,13.8666667 L153.2,8.6" fill-rule="nonzero"></path>
                    <path d="M159.466667,12.8666667 C159.866667,13.1333333 160.466667,13.2666667 160.733333,13.2666667 C161.2,13.2666667 161.8,13.0666667 161.8,12.5333333 C161.8,11.5333333 159.4,11.6666667 159.4,10.1333333 C159.4,9 160.266667,8.46666667 161.333333,8.46666667 C161.8,8.46666667 162.2,8.53333333 162.6,8.66666667 L162.533333,9.53333333 C162.333333,9.4 161.666667,9.26666667 161.466667,9.26666667 C160.933333,9.26666667 160.466667,9.46666667 160.466667,9.93333333 C160.466667,11 162.866667,10.7333333 162.866667,12.4 C162.866667,13.5333333 161.933333,14.0666667 160.933333,14.0666667 C160.4,14.0666667 159.866667,14 159.4,13.8 L159.466667,12.8666667" fill-rule="nonzero"></path>
                    <path d="M169.066667,13.9333333 L168.066667,13.9333333 L168.066667,13.0666667 C167.733333,13.6666667 167,14.0666667 166.266667,14.0666667 C164.8,14.0666667 164.2,13.2 164.2,11.8 L164.2,8.6 L165.2,8.6 L165.2,11.3333333 C165.2,12.6 165.466667,13.2 166.4,13.2666667 C167.6,13.2666667 168.066667,12.3333333 168.066667,11.0666667 L168.066667,8.6 L169.066667,8.6 L169.066667,13.9333333" fill-rule="nonzero"></path>
                    <path d="M170.733333,8.6 L171.666667,8.6 L171.666667,9.4 C171.933333,8.86666667 172.533333,8.46666667 173.133333,8.46666667 C173.466667,8.46666667 173.6,8.46666667 173.8,8.53333333 L173.8,9.4 C173.6,9.33333333 173.4,9.33333333 173.2,9.33333333 C172.266667,9.33333333 171.666667,10.2 171.666667,11.5333333 L171.666667,13.9333333 L170.666667,13.9333333 L170.666667,8.6" fill-rule="nonzero"></path>
                    <path d="M179,13.6666667 C178.6,13.8 178.133333,14 177.266667,14 C175.266667,14 174.4,12.8666667 174.4,11.1333333 C174.4,9.53333333 175.466667,8.4 177,8.4 C178.866667,8.4 179.466667,9.73333333 179.466667,11.4 L175.466667,11.4 C175.466667,12.4666667 176.333333,13.2 177.333333,13.2 C178,13.2 178.8,12.8666667 179.066667,12.6666667 L179.066667,13.6666667 L179,13.6666667 Z M178.333333,10.7333333 C178.333333,9.93333333 177.866667,9.26666667 176.933333,9.26666667 C175.933333,9.26666667 175.533333,10.0666667 175.466667,10.7333333 L178.333333,10.7333333 Z" fill-rule="nonzero"></path>
                </g>
            </g>
        </g>
    </g>
</svg>