<?xml version="1.0" encoding="UTF-8"?>
<svg width="112px" height="59px" viewBox="0 0 112 59" version="1.1" xmlns="http://www.w3.org/2000/svg" xmlns:xlink="http://www.w3.org/1999/xlink">
    <!-- Generator: Sketch 51.2 (57519) - http://www.bohemiancoding.com/sketch -->
    <title>cisco-logo</title>
    <desc>Created with Sketch.</desc>
    <defs></defs>
    <g id="Page-1" stroke="none" stroke-width="1" fill="none" fill-rule="evenodd" opacity="0.85">
        <g id="Contact" transform="translate(-854.000000, -1609.000000)" fill="#FFFFFF">
            <g id="cisco" transform="translate(854.000000, 1609.000000)">
                <g>
                    <rect id="Rectangle-path" fill-rule="nonzero" x="31.8440678" y="39.2064516" width="4.88813559" height="19.4129032"></rect>
                    <path d="M76.0745763,44.7733871 C75.8847458,44.6782258 74.3186441,43.7266129 71.9457627,43.7266129 C68.7661017,43.7266129 66.5830508,45.9153226 66.5830508,48.9129032 C66.5830508,51.8153226 68.6711864,54.0991935 71.9457627,54.0991935 C74.2237288,54.0991935 75.8372881,53.1951613 76.0745763,53.0524194 L76.0745763,58.2387097 C75.4576271,58.4290323 73.7966102,58.9048387 71.6135593,58.9048387 C66.1084746,58.9048387 61.3152542,55.0983871 61.3152542,48.8653226 C61.3152542,43.0604839 65.6813559,38.8258065 71.6135593,38.8258065 C73.8915254,38.8258065 75.6,39.3967742 76.0745763,39.5395161 L76.0745763,44.7733871 Z" id="Shape" fill-rule="nonzero"></path>
                    <path d="M25.1050847,44.7733871 C24.9152542,44.6782258 23.3491525,43.7266129 21.0237288,43.7266129 C17.8440678,43.7266129 15.6610169,45.9153226 15.6610169,48.9129032 C15.6610169,51.8153226 17.7491525,54.0991935 21.0237288,54.0991935 C23.3016949,54.0991935 24.9152542,53.1951613 25.1050847,53.0524194 L25.1050847,58.2387097 C24.4881356,58.4290323 22.8271186,58.9048387 20.6440678,58.9048387 C15.1389831,58.9048387 10.3457627,55.0983871 10.3457627,48.8653226 C10.3457627,43.0604839 14.7118644,38.8258065 20.6440678,38.8258065 C22.9220339,38.8258065 24.6305085,39.3967742 25.1050847,39.5395161 L25.1050847,44.7733871 Z" id="Shape" fill-rule="nonzero"></path>
                    <path d="M101.654237,48.9129032 C101.654237,54.4798387 97.3830508,58.9524194 91.4508475,58.9524194 C85.5186441,58.9524194 81.2474576,54.4798387 81.2474576,48.9129032 C81.2474576,43.3935484 85.5186441,38.8733871 91.4508475,38.8733871 C97.3830508,38.8733871 101.654237,43.3935484 101.654237,48.9129032 M91.4508475,43.8217742 C88.5559322,43.8217742 86.420339,46.1056452 86.420339,48.9129032 C86.420339,51.7201613 88.5559322,54.0040323 91.4508475,54.0040323 C94.3457627,54.0040323 96.4813559,51.7201613 96.4813559,48.9129032 C96.4813559,46.1056452 94.3457627,43.8217742 91.4508475,43.8217742" id="Shape" fill-rule="nonzero"></path>
                    <path d="M55.240678,43.6314516 C55.1457627,43.6314516 53.1050847,43.0604839 51.4440678,43.0604839 C49.4983051,43.0604839 48.4067797,43.7266129 48.4067797,44.6306452 C48.4067797,45.8201613 49.8305085,46.2008065 50.6372881,46.4862903 L51.9661017,46.9145161 C55.1457627,47.9137097 56.5694915,50.1024194 56.5694915,52.4814516 C56.5694915,57.3346774 52.2983051,59 48.5491525,59 C45.9389831,59 43.5186441,58.5241935 43.2813559,58.4766129 L43.2813559,54.0040323 C43.7084746,54.0991935 45.7491525,54.7177419 47.8847458,54.7177419 C50.3050847,54.7177419 51.4440678,54.0040323 51.4440678,52.9096774 C51.4440678,51.9104839 50.4949153,51.3395161 49.2610169,50.958871 C48.9762712,50.8637097 48.5016949,50.7209677 48.2169492,50.6258065 C45.5118644,49.7693548 43.2338983,48.1516129 43.2338983,44.9637097 C43.2338983,41.3475806 45.9389831,38.9209677 50.4474576,38.9209677 C52.820339,38.9209677 55.0508475,39.4919355 55.1932203,39.5395161 L55.1932203,43.6314516 L55.240678,43.6314516 Z" id="Shape" fill-rule="nonzero"></path>
                    <path d="M5.17288136,18.366129 C5.17288136,17.033871 4.08135593,15.9395161 2.75254237,15.9395161 C1.42372881,15.9395161 0.33220339,17.033871 0.33220339,18.366129 L0.33220339,23.4572581 C0.33220339,24.7895161 1.42372881,25.883871 2.75254237,25.883871 C4.08135593,25.883871 5.17288136,24.7895161 5.17288136,23.4572581 L5.17288136,18.366129 Z" id="Shape" fill-rule="nonzero"></path>
                    <path d="M18.5084746,11.7048387 C18.5084746,10.3725806 17.4169492,9.27822581 16.0881356,9.27822581 C14.759322,9.27822581 13.6677966,10.3725806 13.6677966,11.7048387 L13.6677966,23.4572581 C13.6677966,24.7895161 14.759322,25.883871 16.0881356,25.883871 C17.4169492,25.883871 18.5084746,24.7895161 18.5084746,23.4572581 L18.5084746,11.7048387 Z" id="Shape" fill-rule="nonzero"></path>
                    <path d="M31.7966102,2.56935484 C31.7966102,1.23709677 30.7050847,0.142741935 29.3762712,0.142741935 C28.0474576,0.142741935 26.9559322,1.23709677 26.9559322,2.56935484 L26.9559322,28.3104839 C26.9559322,29.6427419 28.0474576,30.7370968 29.3762712,30.7370968 C30.7050847,30.7370968 31.7966102,29.6427419 31.7966102,28.3104839 L31.7966102,2.56935484 Z" id="Shape" fill-rule="nonzero"></path>
                    <path d="M45.1322034,11.7048387 C45.1322034,10.3725806 44.040678,9.27822581 42.7118644,9.27822581 C41.3830508,9.27822581 40.2915254,10.3725806 40.2915254,11.7048387 L40.2915254,23.4572581 C40.2915254,24.7895161 41.3830508,25.883871 42.7118644,25.883871 C44.040678,25.883871 45.1322034,24.7895161 45.1322034,23.4572581 L45.1322034,11.7048387 Z" id="Shape" fill-rule="nonzero"></path>
                    <path d="M58.420339,18.366129 C58.420339,17.033871 57.3288136,15.9395161 56,15.9395161 C54.6711864,15.9395161 53.579661,17.033871 53.579661,18.366129 L53.579661,23.4572581 C53.579661,24.7895161 54.6711864,25.883871 56,25.883871 C57.3288136,25.883871 58.420339,24.7895161 58.420339,23.4572581 L58.420339,18.366129 Z" id="Shape" fill-rule="nonzero"></path>
                    <path d="M71.7559322,11.7048387 C71.7559322,10.3725806 70.6644068,9.27822581 69.3355932,9.27822581 C68.0067797,9.27822581 66.9152542,10.3725806 66.9152542,11.7048387 L66.9152542,23.4572581 C66.9152542,24.7895161 68.0067797,25.883871 69.3355932,25.883871 C70.6644068,25.883871 71.7559322,24.7895161 71.7559322,23.4572581 L71.7559322,11.7048387 Z" id="Shape" fill-rule="nonzero"></path>
                    <path d="M85.0440678,2.56935484 C85.0440678,1.23709677 83.9525424,0.142741935 82.6237288,0.142741935 C81.2949153,0.142741935 80.2033898,1.23709677 80.2033898,2.56935484 L80.2033898,28.3104839 C80.2033898,29.6427419 81.2949153,30.7370968 82.6237288,30.7370968 C83.9525424,30.7370968 85.0440678,29.6427419 85.0440678,28.3104839 L85.0440678,2.56935484 Z" id="Shape" fill-rule="nonzero"></path>
                    <path d="M98.379661,11.7048387 C98.379661,10.3725806 97.2881356,9.27822581 95.9118644,9.27822581 C94.5830508,9.27822581 93.4915254,10.3725806 93.4915254,11.7048387 L93.4915254,23.4572581 C93.4915254,24.7895161 94.5830508,25.883871 95.9118644,25.883871 C97.2881356,25.883871 98.379661,24.7895161 98.379661,23.4572581 L98.379661,11.7048387 Z" id="Shape" fill-rule="nonzero"></path>
                    <path d="M111.667797,18.366129 C111.667797,17.033871 110.576271,15.9395161 109.247458,15.9395161 C107.918644,15.9395161 106.827119,17.033871 106.827119,18.366129 L106.827119,23.4572581 C106.827119,24.7895161 107.918644,25.883871 109.247458,25.883871 C110.576271,25.883871 111.667797,24.7895161 111.667797,23.4572581 L111.667797,18.366129 Z" id="Shape" fill-rule="nonzero"></path>
                </g>
            </g>
        </g>
    </g>
</svg>