<?xml version="1.0" encoding="UTF-8"?>
<svg width="142px" height="15px" viewBox="0 0 142 15" version="1.1" xmlns="http://www.w3.org/2000/svg" xmlns:xlink="http://www.w3.org/1999/xlink">
    <!-- Generator: Sketch 51.2 (57519) - http://www.bohemiancoding.com/sketch -->
    <title>cobham-logo</title>
    <desc>Created with Sketch.</desc>
    <defs></defs>
    <g id="Page-1" stroke="none" stroke-width="1" fill="none" fill-rule="evenodd" opacity="0.847377232">
        <g id="Contact" transform="translate(-269.000000, -1528.000000)" fill="#FFFFFF">
            <g id="cobham-logo" transform="translate(269.000000, 1528.000000)">
                <g id="Shape">
                    <path d="M7.10769757,12.2714189 C6.47386305,12.2714189 6.14631098,11.7575676 6.37582026,11.1216892 L9.0258117,3.83777027 C9.25775178,3.2027027 9.96025678,2.68804054 10.5949016,2.68804054 L22.0693524,2.68804054 C22.1467332,1.13310811 21.1039144,0 19.3891783,0 L8.12296719,0 C6.00613409,0 3.66728673,1.71972973 2.89732668,3.83797297 L0.246524964,11.1216892 C-0.522624822,13.2389189 0.568607703,14.9547973 2.68442796,14.9547973 L13.9498288,14.9547973 C15.6669957,14.9547973 17.5279857,13.8265541 18.5827561,12.2714189 L7.10769757,12.2714189 Z" fill-rule="nonzero"></path>
                    <path d="M23.1824622,14.9547973 C21.0650214,14.9547973 19.9745991,13.2389189 20.7453695,11.1216892 L23.3969815,3.83777027 C24.1645107,1.71972973 26.5051812,0 28.6193809,0 L41.6479315,0 C43.7629415,0 44.8566049,1.71972973 44.084214,3.83797297 L41.4358431,11.1218919 C40.665883,13.2391216 38.3246049,14.955 36.208582,14.955 L23.1824622,14.955 L23.1824622,14.9547973 Z M33.7366476,12.2714189 C34.3712924,12.2714189 35.074,11.7575676 35.3049272,11.1216892 L37.9541084,3.83777027 C38.1860485,3.2027027 37.8574836,2.68804054 37.2230414,2.68804054 L31.0945563,2.68804054 C30.4574807,2.68804054 29.755786,3.2027027 29.5238459,3.83777027 L26.4719601,12.2706081 L33.7366476,12.2714189 Z" fill-rule="nonzero"></path>
                    <path d="M96.9029472,9.97195946 C96.2674922,9.97195946 95.5664051,10.4866216 95.3338573,11.1216892 L93.9395835,14.9547973 L87.8102882,14.9547973 L91.8545535,3.83777027 C92.622893,1.71972973 94.9643738,0 97.080194,0 L110.107934,0 C112.222944,0 113.313367,1.71972973 112.544217,3.83797297 L108.499141,14.955 L102.370656,14.955 L104.182625,9.97216216 L96.9029472,9.97216216 L96.9029472,9.97195946 Z M104.008619,7.28858108 C104.643264,7.28858108 105.346579,6.77310811 105.576088,6.13804054 L106.413301,3.83777027 C106.643621,3.2027027 106.317486,2.68804054 105.681424,2.68804054 L99.5529387,2.68804054 C98.9174836,2.68804054 98.2155863,3.2027027 97.9846591,3.83777027 L96.7289415,7.28837838 L104.008619,7.28837838 L104.008619,7.28858108 Z" fill-rule="nonzero"></path>
                    <path d="M66.8817974,4.10878378 L66.9830813,3.83797297 C67.7522311,1.71972973 66.6601883,0 64.5451783,0 L51.5168302,0 C49.40101,0 47.0627703,1.71972973 46.292,3.83797297 L42.2469244,14.955 L59.1052211,14.955 C61.2218516,14.955 63.5609016,13.2391216 64.3324822,11.1218919 L64.4274864,10.8606081 C64.9584165,9.40135135 64.6063538,8.13202703 63.6417261,7.48358108 C65.0761084,6.83655405 66.3524879,5.56722973 66.8817974,4.10878378 Z M51.5855007,6.13804054 L52.4210927,3.83777027 C52.6530328,3.2027027 53.3547275,2.68804054 53.9901826,2.68804054 L60.1194779,2.68804054 C60.754933,2.68804054 61.082485,3.2027027 60.8505449,3.83777027 L60.4326476,4.9875 C60.2015178,5.62256757 59.4990128,6.13804054 58.864368,6.13804054 L51.5855007,6.13804054 Z M49.3534066,12.2714189 L50.1906191,9.97195946 C50.4209387,9.33689189 51.1234437,8.82141892 51.7580884,8.82141892 L57.8898146,8.82141892 C58.5236491,8.82141892 58.8512011,9.33689189 58.6200713,9.97195946 L58.2007561,11.1216892 C57.9712468,11.7575676 57.2701598,12.2714189 56.6349073,12.2714189 L49.3534066,12.2714189 Z" fill-rule="nonzero"></path>
                    <path d="M80.8905735,7.28858108 C81.5252183,7.28858108 82.2271155,6.77310811 82.4572325,6.13804054 L83.2944451,3.83777027 C84.0652154,1.71972973 86.4050756,0 88.5192753,0 L90.8194322,0 L85.3802853,14.9547973 L79.2485592,14.9547973 L81.0637689,9.97195946 L73.7838887,9.97195946 C73.1484337,9.97195946 72.4473466,10.4866216 72.2156091,11.1216892 L70.820525,14.9547973 L64.6904194,14.9547973 L68.7346847,3.83777027 C69.5048474,1.71972973 71.8455178,0 73.9621484,0 L76.260077,0 L73.6100856,7.28858108 L80.8905735,7.28858108 Z" fill-rule="nonzero"></path>
                    <path d="M132.238462,0 C131.194023,0 130.0957,0.418783784 129.158014,1.09743243 C128.713986,0.418783784 127.919515,0 126.875076,0 L120.155498,0 C118.038867,0 115.698197,1.71972973 114.928237,3.83797297 L110.885592,14.9547973 L117.016508,14.9547973 L121.059153,3.83777027 C121.289472,3.2027027 121.991369,2.68804054 122.627432,2.68804054 L124.543926,2.68804054 C125.17695,2.68804054 125.504502,3.2027027 125.273575,3.83777027 L121.20723,14.9547973 L127.338146,14.9547973 L131.40287,3.83777027 C131.635418,3.2027027 132.336505,2.68804054 132.97196,2.68804054 L134.888454,2.68804054 C135.522288,2.68804054 135.84903,3.2027027 135.61871,3.83777027 L131.553175,14.9547973 L137.682471,14.9547973 L141.726736,3.83777027 C142.495683,1.71972973 141.407692,0 139.291061,0 L132.238462,0 Z" fill-rule="nonzero"></path>
                </g>
            </g>
        </g>
    </g>
</svg>