<?xml version="1.0" encoding="UTF-8"?>
<svg width="82px" height="82px" viewBox="0 0 82 82" version="1.1" xmlns="http://www.w3.org/2000/svg" xmlns:xlink="http://www.w3.org/1999/xlink">
    <!-- Generator: Sketch 51.2 (57519) - http://www.bohemiancoding.com/sketch -->
    <title>corning-logo</title>
    <desc>Created with Sketch.</desc>
    <defs></defs>
    <g id="Page-1" stroke="none" stroke-width="1" fill="none" fill-rule="evenodd" opacity="0.85">
        <g id="Contact" transform="translate(-489.000000, -1593.000000)" fill="#FFFFFF">
            <g id="corning" transform="translate(489.000000, 1593.000000)">
                <g id="Shape">
                    <path d="M24.6,37.1365385 C22.7076923,37.1365385 21.525,38.5557692 21.525,40.9211538 C21.525,43.2865385 22.7076923,44.7057692 24.6,44.7057692 C26.5711538,44.7057692 27.675,43.2865385 27.675,40.9211538 C27.675,38.5557692 26.4923077,37.1365385 24.6,37.1365385 Z M24.6,37.1365385 C22.7076923,37.1365385 21.525,38.5557692 21.525,40.9211538 C21.525,43.2865385 22.7076923,44.7057692 24.6,44.7057692 C26.5711538,44.7057692 27.675,43.2865385 27.675,40.9211538 C27.675,38.5557692 26.4923077,37.1365385 24.6,37.1365385 Z M24.6,37.1365385 C22.7076923,37.1365385 21.525,38.5557692 21.525,40.9211538 C21.525,43.2865385 22.7076923,44.7057692 24.6,44.7057692 C26.5711538,44.7057692 27.675,43.2865385 27.675,40.9211538 C27.675,38.5557692 26.4923077,37.1365385 24.6,37.1365385 Z M24.6,37.1365385 C22.7076923,37.1365385 21.525,38.5557692 21.525,40.9211538 C21.525,43.2865385 22.7076923,44.7057692 24.6,44.7057692 C26.5711538,44.7057692 27.675,43.2865385 27.675,40.9211538 C27.675,38.5557692 26.4923077,37.1365385 24.6,37.1365385 Z M0.0788461538,0.0788461538 L0.0788461538,81.9211538 L81.9211538,81.9211538 L81.9211538,0.0788461538 L0.0788461538,0.0788461538 Z M18.8442308,44.4692308 C18.0557692,44.8634615 17.2673077,45.2576923 15.7692308,45.2576923 C13.1673077,45.2576923 11.5903846,43.6019231 11.5115385,41 C11.5115385,38.3192308 13.2461538,36.5846154 15.9269231,36.5846154 C17.0307692,36.5846154 18.2923077,36.9788462 18.7653846,37.2153846 L18.7653846,39.2653846 L18.3711538,39.2653846 C18.2134615,38.1615385 17.6615385,37.1365385 16.0057692,37.1365385 C14.0346154,37.1365385 12.8519231,38.6346154 12.8519231,40.9211538 C12.8519231,43.1288462 14.1134615,44.6269231 15.9269231,44.6269231 C17.8192308,44.6269231 18.2134615,43.5230769 18.45,42.6557692 L18.6076923,42.1826923 L19.0807692,42.1826923 L18.8442308,44.4692308 Z M24.4423077,45.2576923 C21.7615385,45.2576923 20.1846154,43.6807692 20.1846154,40.9211538 C20.1846154,38.2403846 21.9980769,36.5057692 24.7576923,36.5057692 C27.3596154,36.5057692 28.9365385,38.0826923 28.9365385,40.7634615 C29.0153846,43.5230769 27.2807692,45.2576923 24.4423077,45.2576923 Z M47.0711538,37.0576923 L45.9673077,37.3730769 L45.8884615,45.2576923 L45.7307692,45.2576923 L39.7384615,37.8461538 L39.8961538,44.3903846 L41.5519231,44.7057692 L41.5519231,45.1 L38.2403846,45.1 C36.0326923,45.1 35.5596154,44.6269231 34.9288462,43.7596154 L32.9576923,41.2365385 L32.4846154,41.0788462 L32.4846154,40.7634615 C32.6423077,40.7634615 32.8788462,40.7634615 33.0365385,40.7634615 C33.5884615,40.6846154 34.85,40.4480769 34.85,38.8711538 C34.85,37.8461538 34.2192308,37.3730769 32.8788462,37.3730769 C32.6423077,37.3730769 32.2480769,37.3730769 31.9326923,37.4519231 L31.9326923,44.4692308 L33.1153846,44.7846154 L33.1153846,45.1 L29.4096154,45.1 L29.4096154,44.7057692 L30.75,44.3903846 L30.75,37.3730769 L29.4096154,37.0576923 L29.4096154,36.7423077 L33.1153846,36.7423077 C35.4807692,36.7423077 36.0326923,37.8461538 36.0326923,38.7923077 C36.0326923,40.2115385 34.85,40.7634615 34.0615385,41 C34.2980769,41.3153846 36.1903846,43.6019231 36.1903846,43.6019231 C36.9,44.4692308 37.4519231,44.6269231 37.7673077,44.7057692 L38.95,44.3903846 L39.0288462,37.3730769 L37.6884615,37.0576923 L37.6884615,36.7423077 L40.2115385,36.7423077 L45.2576923,42.8923077 L45.0211538,37.3730769 L43.3653846,37.0576923 L43.3653846,36.7423077 L47.15,36.7423077 L47.15,37.0576923 L47.0711538,37.0576923 Z M51.7230769,37.0576923 L50.3826923,37.3730769 L50.3826923,44.3903846 L51.7230769,44.7057692 L51.7230769,45.1 L47.8596154,45.1 L47.8596154,44.7057692 L49.2,44.3903846 L49.2,37.3730769 L47.8596154,37.0576923 L47.8596154,36.7423077 L51.7230769,36.7423077 L51.7230769,37.0576923 Z M61.8153846,37.0576923 L60.7115385,37.3730769 L60.6326923,45.2576923 L60.475,45.2576923 L54.4826923,37.8461538 L54.6403846,44.3903846 L56.2961538,44.7057692 L56.2961538,45.1 L52.5115385,45.1 L52.5115385,44.7057692 L53.7730769,44.3903846 L53.8519231,37.3730769 L52.5115385,37.0576923 L52.5115385,36.7423077 L55.0346154,36.7423077 L60.0807692,42.8923077 L59.8442308,37.3730769 L58.0307692,37.0576923 L58.0307692,36.7423077 L61.8153846,36.7423077 L61.8153846,37.0576923 Z M70.8826923,41.5519231 L69.8576923,41.8673077 L69.8576923,44.3903846 C69.1480769,44.7846154 68.2019231,45.3365385 66.4673077,45.2576923 C63.9442308,45.2576923 62.2884615,43.5230769 62.2884615,41 C62.2884615,38.3192308 63.9442308,36.5846154 66.625,36.5846154 C67.9653846,36.5846154 69.1480769,36.9 69.7,37.2153846 L69.7,39.2653846 L69.3057692,39.2653846 C69.1480769,38.3192308 68.5961538,37.1365385 66.7826923,37.1365385 C64.7326923,37.1365385 63.6288462,38.5557692 63.6288462,40.9211538 C63.6288462,43.1288462 64.8115385,44.6269231 66.625,44.6269231 C67.5711538,44.6269231 68.2019231,44.3903846 68.7538462,43.9173077 L68.7538462,41.7884615 L67.1769231,41.4730769 L67.1769231,41.0788462 L70.9615385,41.0788462 L70.9615385,41.5519231 L70.8826923,41.5519231 Z M24.6,37.1365385 C22.7076923,37.1365385 21.525,38.5557692 21.525,40.9211538 C21.525,43.2865385 22.7076923,44.7057692 24.6,44.7057692 C26.5711538,44.7057692 27.675,43.2865385 27.675,40.9211538 C27.675,38.5557692 26.4923077,37.1365385 24.6,37.1365385 Z M24.6,37.1365385 C22.7076923,37.1365385 21.525,38.5557692 21.525,40.9211538 C21.525,43.2865385 22.7076923,44.7057692 24.6,44.7057692 C26.5711538,44.7057692 27.675,43.2865385 27.675,40.9211538 C27.675,38.5557692 26.4923077,37.1365385 24.6,37.1365385 Z M24.6,37.1365385 C22.7076923,37.1365385 21.525,38.5557692 21.525,40.9211538 C21.525,43.2865385 22.7076923,44.7057692 24.6,44.7057692 C26.5711538,44.7057692 27.675,43.2865385 27.675,40.9211538 C27.675,38.5557692 26.4923077,37.1365385 24.6,37.1365385 Z M24.6,37.1365385 C22.7076923,37.1365385 21.525,38.5557692 21.525,40.9211538 C21.525,43.2865385 22.7076923,44.7057692 24.6,44.7057692 C26.5711538,44.7057692 27.675,43.2865385 27.675,40.9211538 C27.675,38.5557692 26.4923077,37.1365385 24.6,37.1365385 Z M24.6,37.1365385 C22.7076923,37.1365385 21.525,38.5557692 21.525,40.9211538 C21.525,43.2865385 22.7076923,44.7057692 24.6,44.7057692 C26.5711538,44.7057692 27.675,43.2865385 27.675,40.9211538 C27.675,38.5557692 26.4923077,37.1365385 24.6,37.1365385 Z" fill-rule="nonzero"></path>
                </g>
            </g>
        </g>
    </g>
</svg>