<?xml version="1.0" encoding="UTF-8"?>
<svg width="156px" height="18px" viewBox="0 0 156 18" version="1.1" xmlns="http://www.w3.org/2000/svg" xmlns:xlink="http://www.w3.org/1999/xlink">
    <!-- Generator: Sketch 51.2 (57519) - http://www.bohemiancoding.com/sketch -->
    <title>crestron-logo</title>
    <desc>Created with Sketch.</desc>
    <defs></defs>
    <g id="Page-1" stroke="none" stroke-width="1" fill="none" fill-rule="evenodd" opacity="0.85">
        <g id="Contact" transform="translate(-1022.000000, -1630.000000)" fill="#FFFFFF">
            <g id="crestron" transform="translate(1022.000000, 1630.000000)">
                <g id="Shape">
                    <path d="M32.637788,4.464 C32.4940092,4.32 32.3502304,4.248 32.2064516,4.176 C32.0626728,4.104 31.918894,4.032 31.8470046,4.032 C31.7751152,3.96 31.6313364,4.032 31.6313364,4.176 C31.7751152,6.912 30.840553,8.568 29.1870968,9.936 C27.7493088,11.088 25.8801843,12.168 22.6451613,12.672 C22.2857143,12.744 21.8543779,12.816 21.4230415,12.816 C20.1290323,12.96 18.7631336,12.888 17.756682,12.672 C14.7373272,12.024 12.7963134,10.152 14.4497696,8.712 C14.5935484,8.568 14.4497696,8.352 14.3059908,8.496 C12.2211982,10.008 13.1557604,11.16 14.162212,12.096 C14.4497696,12.312 15.0967742,12.744 15.0967742,12.744 C18.1880184,14.4 24.5142857,14.184 29.1870968,12.816 C29.2589862,12.816 29.402765,12.744 29.4746544,12.744 C34.435023,11.16 37.7419355,8.064 32.637788,4.464" fill-rule="nonzero"></path>
                    <path d="M16.7502304,0.504 C21.4230415,1.8 23.7953917,3.096 25.3050691,4.536 C26.7428571,5.904 27.4617512,7.416 26.2396313,9.36 C24.7299539,11.736 18.0442396,12.528 15.6,10.296 C15.4562212,10.152 15.3124424,10.368 15.3843318,10.512 C16.8221198,12.168 19.0506912,12.312 20.9917051,12.312 C31.6313364,12.312 34.6506912,-0.864 17.8285714,0.072 C17.3253456,0.072 16.9658986,0.216 16.7502304,0.216 C16.6064516,0.216 16.6064516,0.432 16.7502304,0.504" fill-rule="nonzero"></path>
                    <path d="M3.09124424,5.256 C7.6202765,3.816 10.8552995,3.384 14.162212,3.456 C17.1815668,3.528 20.2728111,3.96 22.9327189,5.472 C25.8801843,7.2 24.3705069,10.584 19.19447,10.584 C18.9788018,10.584 18.9788018,10.872 19.19447,10.872 C22.5732719,11.016 23.9391705,10.152 24.9456221,9.216 C27.6774194,6.768 23.6516129,3.456 18.6193548,1.944 C13.443318,0.36 6.75760369,0.36 3.30691244,4.464 C3.16313364,4.608 3.09124424,4.752 3.09124424,4.824 C3.01935484,4.896 3.01935484,4.968 3.01935484,5.04 C2.87557604,5.256 2.94746544,5.328 3.09124424,5.256" fill-rule="nonzero"></path>
                    <path d="M6.75760369,7.992 C8.33917051,6.696 10.5677419,5.472 14.521659,5.112 C19.6258065,4.536 23.7235023,7.272 21.4949309,9.288 C21.3511521,9.432 21.4949309,9.648 21.6387097,9.504 C23.7235023,7.992 22.7889401,6.84 21.7824885,5.904 C19.19447,3.6 12.00553,3.672 6.75760369,5.184 C1.94101382,6.552 -1.50967742,9.36 2.30046083,12.744 C2.58801843,13.032 2.94746544,13.248 3.30691244,13.536 C3.45069124,13.68 3.59447005,13.752 3.73824885,13.824 C3.88202765,13.896 3.95391705,13.968 4.09769585,13.968 C4.24147465,13.968 4.31336406,13.896 4.31336406,13.824 C4.31336406,13.464 4.31336406,13.104 4.31336406,12.744 C4.45714286,10.584 5.31981567,9.216 6.75760369,7.992" fill-rule="nonzero"></path>
                    <path d="M32.8534562,12.6 C32.7815668,12.6 32.7096774,12.672 32.637788,12.672 C28.2525346,14.04 25.0175115,14.472 21.7824885,14.4 C18.9069124,14.328 16.1032258,13.968 13.5870968,12.672 C13.443318,12.6 13.2276498,12.456 13.083871,12.384 C10.1364055,10.656 11.6460829,7.272 16.8221198,7.272 C17.037788,7.272 17.037788,6.984 16.8221198,6.984 C13.443318,6.84 12.0774194,7.704 11.0709677,8.64 C9.70506912,9.864 10.0645161,11.304 11.3585253,12.672 C12.6525346,13.968 14.881106,15.192 17.397235,15.912 C22.5732719,17.496 29.2589862,17.496 32.7096774,13.392 C32.8534562,13.248 32.9253456,13.104 32.9253456,13.032 C32.997235,12.96 32.997235,12.888 32.997235,12.816 C32.997235,12.744 32.997235,12.744 32.997235,12.672 C32.997235,12.6 32.9253456,12.6 32.8534562,12.6" fill-rule="nonzero"></path>
                    <path d="M19.1225806,17.424 C14.4497696,16.128 12.0774194,14.832 10.5677419,13.392 C10.3520737,13.176 10.1364055,12.96 9.92073733,12.672 C8.91428571,11.448 8.55483871,10.152 9.63317972,8.568 C11.1428571,6.192 17.8285714,5.4 20.2728111,7.632 C20.4165899,7.776 20.5603687,7.56 20.4884793,7.416 C19.0506912,5.76 16.8221198,5.616 14.881106,5.616 C9.27373272,5.616 5.75115207,9.36 6.18248848,12.672 C6.61382488,15.624 10.1364055,18.288 18.0442396,17.856 C18.5474654,17.856 18.9069124,17.712 19.1225806,17.712 C19.2663594,17.64 19.2663594,17.496 19.1225806,17.424" fill-rule="nonzero"></path>
                    <path d="M47.8064516,10.368 C47.2313364,11.664 46.2248848,12.312 44.8589862,12.312 C42.9179724,12.312 42.0552995,11.232 42.4866359,9.144 C42.9179724,7.056 44.2119816,5.976 46.1529954,5.976 C47.6626728,5.976 48.3815668,6.768 48.237788,8.208 L53.4857143,8.208 C54.0608295,4.824 51.7603687,2.952 46.8,2.952 C41.5520737,2.952 38.4608295,5.04 37.5981567,9.144 C36.7354839,13.248 38.9640553,15.336 44.2119816,15.336 C48.8847926,15.336 51.9041475,13.608 53.0543779,10.368 L47.8064516,10.368 Z" fill-rule="nonzero"></path>
                    <path d="M131.98894,2.88 C126.741014,2.88 123.64977,4.968 122.787097,9.072 C121.924424,13.176 124.152995,15.264 129.400922,15.264 C134.648848,15.264 137.740092,13.176 138.602765,9.072 C139.393548,5.04 137.236866,2.88 131.98894,2.88 M133.498618,9.144 C133.067281,11.232 131.773272,12.312 129.832258,12.312 C127.891244,12.312 127.028571,11.232 127.459908,9.144 C127.891244,7.056 129.185253,5.976 131.126267,5.976 C133.067281,5.976 133.929954,7.056 133.498618,9.144" fill-rule="nonzero"></path>
                    <polygon fill-rule="nonzero" points="150.176959 3.24 148.739171 10.008 145.647926 3.24 140.256221 3.24 137.740092 14.976 142.053456 14.976 143.491244 8.064 147.013825 14.976 152.117972 14.976 154.634101 3.24"></polygon>
                    <path d="M123.434101,6.408 C123.64977,5.256 123.362212,4.392 122.643318,3.816 C121.996313,3.384 120.702304,3.24 118.905069,3.24 L109.918894,3.24 L107.402765,15.048 L112.003687,15.048 L112.79447,11.448 L115.526267,11.448 C116.676498,11.448 117.035945,11.736 116.892166,12.6 C116.820276,13.608 116.460829,14.472 116.676498,15.048 L121.708756,15.048 L121.780645,14.904 C121.277419,14.616 121.493088,13.68 121.780645,11.952 C121.996313,10.584 121.996313,9.936 120.846083,9.432 C122.211982,8.928 123.146544,7.776 123.434101,6.408 M118.258065,7.2 C118.042396,8.064 117.395392,8.28 116.173272,8.28 L113.513364,8.28 L113.9447,6.192 L116.460829,6.192 C117.826728,6.192 118.473733,6.336 118.258065,7.2" fill-rule="nonzero"></path>
                    <path d="M109.487558,3.24 L96.4036866,3.24 L96.0442396,4.896 C95.3253456,3.528 93.240553,2.88 89.6460829,2.88 C85.0451613,2.88 82.6009217,3.96 82.0976959,6.696 C81.6663594,8.64 82.8884793,9.864 85.6202765,10.224 L88.9271889,10.656 C90.00553,10.8 90.4368664,11.088 90.364977,11.592 C90.2211982,12.168 89.5741935,12.456 88.3520737,12.456 C87.1299539,12.456 86.4829493,12.096 86.4829493,11.448 L80.9474654,11.448 C80.875576,11.664 80.875576,11.808 80.875576,12.024 L72.6801843,12.024 L73.0396313,10.44 L79.437788,10.44 L80.0847926,7.56 L73.6866359,7.56 L73.9741935,6.12 L81.8820276,6.12 L82.5290323,3.24 L70.0921659,3.24 L67.5760369,15.048 L80.4442396,15.048 L81.0193548,12.456 C81.235023,14.328 83.2479263,15.408 87.0580645,15.408 C92.4497696,15.408 95.3253456,14.184 95.9723502,11.232 C96.4036866,9.288 95.3253456,8.136 92.8092166,7.776 L88.7834101,7.2 C87.6331797,7.056 87.1299539,6.912 87.2018433,6.336 C87.2737327,5.904 87.9207373,5.544 88.9990783,5.544 C90.4368664,5.544 91.083871,5.904 91.083871,6.696 L96.4036866,6.696 C96.4036866,6.552 96.4036866,6.408 96.4036866,6.264 L100.141935,6.264 L98.2728111,15.048 L102.801843,15.048 L104.670968,6.264 L108.912442,6.264 L109.487558,3.24 Z" fill-rule="nonzero"></path>
                    <path d="M68.7262673,6.408 C68.9419355,5.256 68.6543779,4.392 67.9354839,3.816 C67.2884793,3.384 65.99447,3.24 64.197235,3.24 L55.2110599,3.24 L52.6949309,15.048 L57.2958525,15.048 L58.0866359,11.448 L60.8184332,11.448 C61.9686636,11.448 62.3281106,11.736 62.1843318,12.6 C62.1124424,13.608 61.7529954,14.472 61.9686636,15.048 L67.0009217,15.048 L67.0728111,14.904 C66.5695853,14.616 66.7852535,13.68 67.0728111,11.952 C67.2884793,10.584 67.2884793,9.936 66.1382488,9.432 C67.4322581,8.928 68.4387097,7.776 68.7262673,6.408 M63.478341,7.2 C63.2626728,8.064 62.6156682,8.28 61.3935484,8.28 L58.7336406,8.28 L59.164977,6.192 L61.681106,6.192 C63.0470046,6.192 63.6940092,6.336 63.478341,7.2" fill-rule="nonzero"></path>
                    <path d="M155.209217,13.248 C155.209217,12.96 154.993548,12.816 154.634101,12.816 L153.987097,12.816 L153.987097,14.4 L154.202765,14.4 L154.202765,13.68 L154.490323,13.68 L154.921659,14.4 L155.209217,14.4 L154.77788,13.68 C155.065438,13.68 155.209217,13.536 155.209217,13.248 Z M154.274654,13.536 L154.274654,13.032 L154.634101,13.032 C154.77788,13.032 154.993548,13.104 154.993548,13.248 C154.993548,13.464 154.77788,13.536 154.634101,13.536 L154.274654,13.536 Z" fill-rule="nonzero"></path>
                    <path d="M154.562212,12.24 C153.771429,12.24 153.124424,12.816 153.124424,13.608 C153.124424,14.4 153.771429,14.976 154.562212,14.976 C155.352995,14.976 156,14.4 156,13.608 C156,12.816 155.352995,12.24 154.562212,12.24 M154.562212,14.76 C153.915207,14.76 153.411982,14.256 153.411982,13.608 C153.411982,12.96 153.915207,12.456 154.562212,12.456 C155.209217,12.456 155.712442,12.96 155.712442,13.608 C155.712442,14.256 155.209217,14.76 154.562212,14.76" fill-rule="nonzero"></path>
                </g>
            </g>
        </g>
    </g>
</svg>