<?xml version="1.0" encoding="UTF-8"?>
<svg width="142px" height="40px" viewBox="0 0 142 40" version="1.1" xmlns="http://www.w3.org/2000/svg" xmlns:xlink="http://www.w3.org/1999/xlink">
    <!-- Generator: Sketch 51.2 (57519) - http://www.bohemiancoding.com/sketch -->
    <title>directv-logo</title>
    <desc>Created with Sketch.</desc>
    <defs></defs>
    <g id="Page-1" stroke="none" stroke-width="1" fill="none" fill-rule="evenodd" opacity="0.85">
        <g id="Contact" transform="translate(-269.000000, -1718.000000)" fill="#FFFFFF">
            <g id="directv-logo" transform="translate(269.000000, 1718.000000)">
                <g id="DIRECTV">
                    <g fill-rule="nonzero">
                        <path d="M8.00123839,35.5604396 C11.3424149,38.1538462 15.5628483,39.7362637 20.1349845,39.7362637 C25.1467492,39.7362637 29.6749226,37.8901099 33.1479876,34.8131868 C33.1919505,34.7692308 33.1919505,34.7692308 33.1479876,34.7692308 C31.5653251,35.8241758 27.1250774,38.0659341 20.1349845,38.0659341 C14.0241486,38.1098901 10.1993808,36.7472527 8.00123839,35.5604396 C8.00123839,35.5164835 7.95727554,35.5604396 8.00123839,35.5604396 M21.45387,36.5714286 C26.3337461,36.5714286 31.6532508,35.2527473 34.8625387,32.6153846 C35.7417957,31.9120879 36.5770898,30.9450549 37.3244582,29.6703297 C37.7640867,28.9230769 38.1597523,28.043956 38.5114551,27.2087912 C38.5114551,27.1648352 38.5114551,27.1648352 38.4674923,27.2087912 C35.4780186,31.6043956 26.8613003,34.3296703 17.980805,34.3296703 C11.6941176,34.3296703 4.92383901,32.3076923 2.28606811,28.4835165 C2.24210526,28.4395604 2.24210526,28.4835165 2.24210526,28.4835165 C4.74798762,33.7142857 12.2216718,36.5714286 21.45387,36.5714286 M16.1343653,27.8681319 C6.02291022,27.8681319 1.23095975,23.1648352 0.351702786,19.9120879 C0.351702786,19.8681319 0.307739938,19.8681319 0.307739938,19.9120879 C0.307739938,21.010989 0.395665635,22.3736264 0.615479876,23.3406593 C0.703405573,23.7802198 1.05510836,24.4835165 1.62662539,25.0549451 C4.08854489,27.6043956 10.1993808,31.2087912 20.7944272,31.2087912 C35.2142415,31.2087912 38.5114551,26.4175824 39.1708978,24.8351648 C39.6544892,23.6923077 39.9182663,21.6703297 39.9182663,19.956044 C39.9182663,19.5604396 39.9182663,19.2087912 39.8743034,18.9010989 C39.8743034,18.8571429 39.8303406,18.8571429 39.8303406,18.9010989 C39.126935,22.7252747 26.8173375,27.8681319 16.1343653,27.8681319 M2.24210526,11.4725275 C1.67058824,12.6153846 1.01114551,14.5494505 0.835294118,15.5604396 C0.747368421,16 0.791331269,16.2197802 0.923219814,16.5274725 C2.15417957,19.1208791 8.26501548,23.2087912 22.596904,23.2087912 C31.3455108,23.2087912 38.1157895,21.0549451 39.2148607,17.1428571 C39.4346749,16.4395604 39.4346749,15.6483516 39.1708978,14.6373626 C38.8631579,13.4945055 38.3356037,12.1758242 37.8959752,11.2087912 C37.8959752,11.1648352 37.8520124,11.1648352 37.8520124,11.2087912 C38.0278638,16.3516484 23.6959752,19.6483516 16.4860681,19.6483516 C8.66068111,19.6483516 2.11021672,16.5274725 2.11021672,12.5714286 C2.11021672,12.2637363 2.19814241,11.8681319 2.24210526,11.4725275 C2.28606811,11.4285714 2.28606811,11.4285714 2.24210526,11.4725275 M33.1919505,5.14285714 C33.2798762,5.27472527 33.323839,5.40659341 33.323839,5.58241758 C33.323839,7.78021978 26.5975232,11.6483516 15.9145511,11.6483516 C8.04520124,11.6483516 6.59442724,8.74725275 6.59442724,6.85714286 C6.59442724,6.1978022 6.85820433,5.49450549 7.42972136,4.83516484 C7.47368421,4.79120879 7.42972136,4.79120879 7.38575851,4.79120879 C6.374613,5.67032967 5.40743034,6.63736264 4.61609907,7.69230769 C4.22043344,8.17582418 4.0006192,8.61538462 4.0006192,8.87912088 C4.0006192,12.7032967 13.628483,15.5164835 22.6408669,15.5164835 C32.2247678,15.5164835 36.5331269,12.3956044 36.5331269,9.62637363 C36.5331269,8.65934066 36.1374613,8.04395604 35.1702786,6.94505495 C34.4668731,6.28571429 33.8513932,5.71428571 33.1919505,5.14285714 C33.1919505,5.0989011 33.1479876,5.14285714 33.1919505,5.14285714 M30.2464396,2.94505495 C27.3009288,1.18681319 23.8278638,0.175824176 20.1349845,0.175824176 C16.3981424,0.175824176 12.8371517,1.23076923 9.89164087,3.03296703 C9.0123839,3.56043956 8.48482972,4.04395604 8.48482972,4.57142857 C8.48482972,6.24175824 12.3975232,8.04395604 19.2996904,8.04395604 C26.1578947,8.04395604 31.4334365,6.06593407 31.4334365,4.17582418 C31.4334365,3.73626374 31.0377709,3.42857143 30.2464396,2.94505495" id="Shape"></path>
                        <path d="M59.0860681,27.032967 C57.9430341,28.1758242 56.2724458,28.7032967 54.469969,28.7032967 L48.1393189,28.7032967 L48.1393189,11.2087912 L54.469969,11.2087912 C56.2724458,11.2087912 57.9430341,11.7362637 59.0860681,12.8791209 C61.0643963,14.8571429 60.844582,17.2747253 60.844582,19.8681319 C60.844582,22.5054945 61.0643963,25.0549451 59.0860681,27.032967 M56.7120743,15.3406593 C56.1405573,14.6373626 55.349226,14.2417582 54.1622291,14.2417582 L51.5684211,14.2417582 L51.5684211,25.6703297 L54.1622291,25.6703297 C55.349226,25.6703297 56.1405573,25.3186813 56.7120743,24.5714286 C57.371517,23.7802198 57.4594427,22.5494505 57.4594427,19.8681319 C57.4154799,17.2307692 57.3275542,16.1318681 56.7120743,15.3406593" id="Shape"></path>
                        <rect id="Rectangle-path" x="64.0099071" y="11.2087912" width="3.42910217" height="17.4945055"></rect>
                        <path d="M80.1442724,28.7032967 L76.7151703,21.7142857 L74.2972136,21.7142857 L74.2972136,28.7032967 L70.8681115,28.7032967 L70.8681115,11.2087912 L77.7263158,11.2087912 C81.2873065,11.2087912 83.3975232,13.6263736 83.3975232,16.5714286 C83.3975232,19.032967 81.9027864,20.5714286 80.1882353,21.1868132 L84.1009288,28.7472527 L80.1442724,28.7472527 L80.1442724,28.7032967 Z M77.5065015,14.2417582 L74.2972136,14.2417582 L74.2972136,18.9010989 L77.5065015,18.9010989 C79.0012384,18.9010989 79.9684211,17.9340659 79.9684211,16.5714286 C80.0123839,15.2087912 79.0012384,14.2417582 77.5065015,14.2417582 Z" id="Shape"></path>
                        <polygon id="Shape" points="86.2990712 28.7032967 86.2990712 11.2087912 97.8613003 11.2087912 97.8613003 14.2417582 89.7281734 14.2417582 89.7281734 18.3736264 96.6303406 18.3736264 96.6303406 21.4065934 89.7281734 21.4065934 89.7281734 25.6703297 97.8613003 25.6703297 97.8613003 28.7032967"></polygon>
                        <path d="M106.170279,28.8791209 C104.323839,28.8791209 102.741176,28.2197802 101.466254,26.9450549 C100.718885,26.1978022 100.235294,25.3186813 100.059443,24.3076923 C99.8835913,23.3406593 99.7517028,21.8901099 99.7517028,19.956044 C99.7517028,18.021978 99.8396285,16.5714286 100.059443,15.6043956 C100.235294,14.5934066 100.718885,13.7582418 101.466254,12.967033 C102.741176,11.6923077 104.323839,11.032967 106.170279,11.032967 C109.555418,11.032967 112.017337,13.010989 112.588854,16.5714286 L109.115789,16.5714286 C108.764087,15.0769231 107.796904,14.1098901 106.170279,14.1098901 C105.247059,14.1098901 104.49969,14.4175824 103.972136,15.032967 C103.268731,15.7802198 103.092879,16.5714286 103.092879,19.956044 C103.092879,23.3406593 103.224768,24.1318681 103.972136,24.8791209 C104.49969,25.4945055 105.247059,25.8021978 106.170279,25.8021978 C107.796904,25.8021978 108.764087,24.8351648 109.115789,23.3406593 L112.588854,23.3406593 C112.0613,26.9010989 109.555418,28.8791209 106.170279,28.8791209" id="Shape"></path>
                        <polygon id="Shape" points="121.557276 14.2417582 121.557276 28.7032967 118.128173 28.7032967 118.128173 14.2417582 113.556037 14.2417582 113.556037 11.2087912 126.129412 11.2087912 126.129412 14.2417582"></polygon>
                        <polygon id="Shape" points="136.152941 28.7032967 133.559133 28.7032967 127.8 11.2087912 131.317028 11.2087912 134.834056 22.6373626 138.351084 11.2087912 141.912074 11.2087912"></polygon>
                    </g>
                </g>
            </g>
        </g>
    </g>
</svg>