<?xml version="1.0" encoding="UTF-8"?>
<svg width="86px" height="75px" viewBox="0 0 86 75" version="1.1" xmlns="http://www.w3.org/2000/svg" xmlns:xlink="http://www.w3.org/1999/xlink">
    <!-- Generator: Sketch 51.2 (57519) - http://www.bohemiancoding.com/sketch -->
    <title>etl-systems-logo</title>
    <desc>Created with Sketch.</desc>
    <defs></defs>
    <g id="Page-1" stroke="none" stroke-width="1" fill="none" fill-rule="evenodd" opacity="0.848214286">
        <g id="Contact" transform="translate(-677.000000, -1498.000000)" fill="#FFFFFF">
            <g id="etl-systems-logo" transform="translate(677.000000, 1498.000000)">
                <g id="Shape">
                    <path d="M58.3734513,50.3279387 L63.4218289,23.1260647 L58.0817109,23.1260647 L52.5259587,50.3279387 L58.3734513,50.3279387 Z M44.420649,27.649063 L43.6849558,31.5971039 L41.3510324,31.5971039 L40.6026549,35.7751278 L42.8985251,35.7751278 L41.4905605,43.2367973 C41.2241888,44.6550256 41.1227139,45.6899489 41.1227139,46.7248722 C41.1227139,49.0630324 42.6448378,50.7495741 45.8412979,50.7495741 C46.9955752,50.7495741 48.3274336,50.5962521 48.999705,50.3279387 L49.6339233,45.9965928 C49.1519174,46.0732538 48.6318584,46.0732538 48.1498525,46.0732538 C46.9955752,46.0732538 46.6277286,45.4216354 46.6277286,44.5017036 C46.6277286,43.8500852 46.779941,42.8918228 46.919469,42.1252129 L48.1498525,35.7623509 L52.0058997,35.7623509 L52.779646,31.5843271 L48.9235988,31.5843271 L49.8876106,26.3330494 L44.420649,27.649063 Z M32.9286136,36.7972743 C32.9286136,38.483816 30.8483776,39.0971039 26.6879056,39.0587734 C27.0557522,37.2955707 28.4764012,35.1873935 30.9625369,35.1873935 C32.180236,35.1873935 32.9286136,35.8390119 32.9286136,36.7972743 Z M35.30059,45.2683135 C33.8545723,45.9965928 32.180236,46.4565588 30.2141593,46.4565588 C28.6539823,46.4565588 27.4235988,45.9582624 26.7259587,45 C26.3581121,44.4633731 26.1678466,43.6201022 26.1678466,43.0834753 C33.4486726,43.2751278 37.9389381,41.5502555 37.9389381,36.7589438 C37.9389381,33.2708688 35.30059,31.1626917 31.6348083,31.1626917 C25.0643068,31.1626917 21.0560472,37.1039182 21.0560472,42.802385 C21.0560472,47.6703578 23.7324484,50.6984668 28.920354,50.6984668 C30.9244838,50.6984668 33.5628319,50.3534923 35.6811209,49.241908 L35.30059,45.2683135 Z" fill-rule="nonzero"></path>
                    <polygon points="61.0495988 18.1851363 40.0043333 1.40672913 36.6115192 5.72465928 57.6567847 22.5030664 61.0495988 18.1851363"></polygon>
                    <path d="M44.5221239,68.4454855 C18.7982301,63.5136286 1.53480826,40.5664395 5.94896755,17.197615 C7.16666667,10.7453152 9.91917404,4.9318569 13.80059,0 C7.14129794,5.86456559 2.4100295,13.6712095 0.697640118,22.7427598 C-3.72920354,46.1115843 13.5469027,69.0587734 39.2707965,73.9906303 C57.8914454,77.5553663 75.8271386,70.7197615 86,57.802385 C75.5100295,67.0528109 60.2634218,71.4735945 44.5221239,68.4454855 Z" fill-rule="nonzero"></path>
                </g>
            </g>
        </g>
    </g>
</svg>