<?xml version="1.0" encoding="UTF-8"?>
<svg width="125px" height="33px" viewBox="0 0 125 33" version="1.1" xmlns="http://www.w3.org/2000/svg" xmlns:xlink="http://www.w3.org/1999/xlink">
    <!-- Generator: Sketch 51.2 (57519) - http://www.bohemiancoding.com/sketch -->
    <title>fujikura-logo</title>
    <desc>Created with Sketch.</desc>
    <defs></defs>
    <g id="Page-1" stroke="none" stroke-width="1" fill="none" fill-rule="evenodd" opacity="0.85">
        <g id="Contact" transform="translate(-657.000000, -1622.000000)" fill="#FFFFFF">
            <g id="fujikura" transform="translate(657.000000, 1622.000000)">
                <g>
                    <path d="M50.8153846,28.875 C54,28.875 56.4923077,27.225 56.4923077,25.4375 L56.4923077,15.95 L51.5076923,15.95 L51.5076923,24.475 C51.5076923,25.1625 50.8153846,25.575 50.1230769,25.575 C49.2923077,25.575 48.7384615,25.1625 48.7384615,24.475 L48.7384615,15.95 L43.7538462,15.95 L43.7538462,25.4375 C43.7538462,27.225 46.3846154,28.875 49.4307692,28.875 L50.8153846,28.875 Z" id="Shape" fill-rule="nonzero"></path>
                    <path d="M96.6461538,28.875 C99.8307692,28.875 102.323077,27.225 102.323077,25.4375 L102.323077,15.95 L97.3384615,15.95 L97.3384615,24.475 C97.3384615,25.1625 96.7846154,25.575 95.9538462,25.575 C95.2615385,25.575 94.5692308,25.1625 94.5692308,24.475 L94.5692308,15.95 L89.5846154,15.95 L89.5846154,25.4375 C89.5846154,27.225 92.2153846,28.875 95.2615385,28.875 L96.6461538,28.875 Z" id="Shape" fill-rule="nonzero"></path>
                    <path d="M67.2923077,13.75 L70.0615385,13.75 C71.1692308,13.75 72.1384615,12.925 72.1384615,11.825 L72.1384615,9.9 L67.2923077,9.9 L67.2923077,13.75 Z" id="Shape" fill-rule="nonzero"></path>
                    <rect id="Rectangle-path" fill-rule="nonzero" x="67.2923077" y="15.95" width="4.84615385" height="12.5125"></rect>
                    <path d="M118.661538,25.85 C117.553846,25.85 117.415385,25.1625 117.415385,24.8875 L117.415385,24.75 C117.415385,24.0625 118.246154,23.65 118.661538,23.5125 C118.938462,23.5125 119.353846,23.5125 119.769231,23.375 L119.769231,24.75 C119.907692,25.3 120.046154,25.85 118.661538,25.85 Z M124.753846,18.2875 C124.753846,16.775 123.230769,16.225 121.569231,15.95 C120.184615,15.675 119.215385,15.675 117.969231,15.675 C116.723077,15.675 114.784615,15.95 114.230769,16.225 L114.230769,19.1125 C115.476923,18.8375 118.523077,18.7 119.215385,18.8375 C119.769231,18.975 119.907692,19.525 119.907692,19.8 C119.907692,20.075 119.907692,20.7625 119.215385,20.9 C118.661538,21.0375 116.169231,21.3125 114.923077,21.5875 C113.538462,21.8625 112.707692,22.6875 112.707692,24.6125 L112.707692,25.3 C112.707692,25.7125 112.707692,27.225 113.953846,28.05 C115.2,28.875 117,28.875 118.661538,28.875 C120.6,28.875 121.984615,28.7375 122.953846,28.4625 C123.507692,28.325 124.892308,28.05 124.892308,25.9875 L124.892308,18.2875 L124.753846,18.2875 Z" id="Shape" fill-rule="nonzero"></path>
                    <path d="M42.9230769,9.7625 L31.8461538,9.7625 C29.9076923,9.7625 28.3846154,11.275 28.3846154,13.2 L28.3846154,28.325 L34.2,28.325 L34.2,20.625 L41.8153846,20.625 L41.8153846,16.9125 L34.2,16.9125 L34.2,14.7125 C34.2,14.025 34.7538462,13.3375 35.5846154,13.3375 L43.2,13.3375 L43.2,9.7625 L42.9230769,9.7625 Z" id="Shape" fill-rule="nonzero"></path>
                    <path d="M64.3846154,9.7625 L64.3846154,11.55 C64.3846154,12.65 63.4153846,13.75 62.3076923,13.75 L59.4,13.75 L59.4,9.7625 L64.3846154,9.7625 Z" id="Shape" fill-rule="nonzero"></path>
                    <path d="M56.6307692,29.7 L58.2923077,29.7 C58.9846154,29.7 59.4,29.15 59.4,28.6 L59.4,16.0875 L64.3846154,16.0875 L64.3846154,28.7375 C64.3846154,30.6625 62.8615385,32.175 60.9230769,32.175 L56.6307692,32.175 L56.6307692,29.7 Z" id="Shape" fill-rule="nonzero"></path>
                    <path d="M84.6,20.9 L83.6307692,20.9 L88.4769231,16.0875 L83.0769231,16.0875 L79.8923077,19.1125 L79.8923077,9.9 L75.0461538,9.9 L75.0461538,28.6 L79.8923077,28.6 L79.8923077,22.9625 L81.8307692,22.9625 C82.3846154,22.9625 82.8,23.375 82.8,23.925 L82.8,28.6 L87.7846154,28.6 L87.7846154,23.925 C87.6461538,22.275 86.4,20.9 84.6,20.9" id="Shape" fill-rule="nonzero"></path>
                    <path d="M109.246154,20.075 C109.246154,19.525 109.8,18.975 110.353846,18.975 C110.769231,18.975 111.876923,18.975 112.430769,19.1125 L112.430769,16.0875 C110.353846,15.8125 108.553846,15.95 108,15.95 C105.923077,16.0875 104.538462,17.4625 104.538462,19.3875 L104.538462,28.6 L109.246154,28.6 L109.246154,20.075 Z" id="Shape" fill-rule="nonzero"></path>
                    <path d="M7.2,28.4625 C8.44615385,28.4625 9.41538462,27.6375 9.96923077,26.5375 L13.1538462,18.0125 L18.6923077,18.0125 C21.1846154,18.0125 23.1230769,16.0875 23.1230769,13.6125 L23.1230769,9.9 L10.5230769,9.9 C8.30769231,9.9 6.36923077,11.275 5.67692308,13.2 L0,28.4625 L7.2,28.4625 Z" id="Shape"></path>
                    <path d="M7.61538462,0 C3.46153846,0 0,3.3 0,7.425 L0,21.725 L3.46153846,12.375 C4.43076923,9.4875 7.33846154,7.425 10.5230769,7.425 L20.7692308,7.425 C23.1230769,7.425 25.2,5.5 25.2,3.025 L25.2,0 L7.61538462,0 Z" id="Shape"></path>
                </g>
            </g>
        </g>
    </g>
</svg>