<?xml version="1.0" encoding="UTF-8"?>
<svg width="139px" height="54px" viewBox="0 0 139 54" version="1.1" xmlns="http://www.w3.org/2000/svg" xmlns:xlink="http://www.w3.org/1999/xlink">
    <!-- Generator: Sketch 51.2 (57519) - http://www.bohemiancoding.com/sketch -->
    <title>inmarsat-logo</title>
    <desc>Created with Sketch.</desc>
    <defs></defs>
    <g id="Page-1" stroke="none" stroke-width="1" fill="none" fill-rule="evenodd" opacity="0.85">
        <g id="Contact" transform="translate(-271.000000, -1607.000000)" fill="#FFFFFF">
            <g id="inmarsat" transform="translate(271.000000, 1607.000000)">
                <g>
                    <path d="M103.27079,4.45263158 C107.283162,5.30526316 120.371134,13.2631579 108.620619,22.4052632 L114.495876,25.4842105 C126.724055,11.4157895 108.381787,4.54736842 103.27079,4.35789474 C103.318557,4.35789474 103.175258,4.35789474 103.27079,4.45263158" id="Shape"></path>
                    <path d="M108.907216,0.189473684 C116.78866,3.17368421 131.023024,15.3473684 120.466667,28.6105263 L125.959794,31.4526316 C135.704124,21.6 129.542268,5.73157895 108.907216,0.142105263 C108.907216,0.142105263 108.907216,0.142105263 108.907216,0.142105263 C108.85945,0.142105263 108.907216,0.189473684 108.907216,0.189473684" id="Shape"></path>
                    <path d="M135.608591,24.0631579 L139,9.9 L124.670103,3.36315789 C124.670103,3.36315789 124.622337,3.31578947 124.57457,3.36315789 C124.526804,3.41052632 124.622337,3.41052632 124.622337,3.41052632 C131.500687,7.38947368 136.468385,16.4842105 135.513058,24.0631579 C135.513058,24.0631579 135.560825,24.1578947 135.608591,24.0631579" id="Shape"></path>
                    <rect id="Rectangle-path" x="0.286597938" y="38.2263158" width="4.7766323" height="15.2052632"></rect>
                    <path d="M5.34982818,33.3473684 C5.34982818,34.8157895 4.20343643,36 2.72268041,36 C1.2419244,36 0.047766323,34.8157895 0.047766323,33.3473684 C0.047766323,31.8789474 1.2419244,30.7421053 2.72268041,30.7421053 C4.1556701,30.7421053 5.34982818,31.9263158 5.34982818,33.3473684" id="Shape"></path>
                    <path d="M8.88453608,38.2263158 L13.6611684,38.2263158 L13.6611684,40.3578947 L13.7089347,40.3578947 C14.8553265,38.7 16.2405498,37.9421053 18.0079038,37.9421053 C20.9216495,37.9421053 22.8800687,39.8368421 22.8800687,43.3894737 L22.8800687,53.4789474 L18.1034364,53.4789474 L18.1034364,44.1473684 C18.1034364,42.4894737 17.5780069,41.4 16.2405498,41.4 C15.0941581,41.4 14.2343643,42.2526316 13.6134021,43.8631579 L13.6134021,53.4789474 L8.83676976,53.4789474 L8.83676976,38.2263158 L8.88453608,38.2263158 Z" id="Shape"></path>
                    <path d="M26.5103093,38.2263158 L31.2869416,38.2263158 L31.2869416,40.5473684 L31.3347079,40.5473684 C32.6243986,38.7473684 34.1051546,37.9421053 35.8725086,37.9421053 C37.8786942,37.9421053 39.4072165,39.0789474 40.1714777,41.0210526 C41.2223368,38.9368421 42.7508591,37.9421053 44.8525773,37.9421053 C47.0975945,37.9421053 49.8202749,39.5052632 49.8202749,43.3421053 L49.8202749,53.4789474 L45.0436426,53.4789474 L45.0436426,45.2368421 C45.0436426,42.8210526 44.8525773,41.4947368 43.3718213,41.4947368 C42.3209622,41.4947368 41.4134021,42.2052632 40.6013746,43.6263158 L40.6013746,53.4789474 L35.8247423,53.4789474 L35.8247423,44.5263158 C35.8247423,42.6315789 35.2037801,41.4947368 34.009622,41.4947368 C33.0065292,41.4947368 32.1945017,42.2052632 31.3347079,43.7210526 L31.3347079,53.4789474 L26.5580756,53.4789474 L26.5580756,38.2263158 L26.5103093,38.2263158 Z" id="Shape"></path>
                    <path d="M60.5676976,49.5473684 C59.5646048,50.3526316 59.0869416,50.5421053 58.3226804,50.5421053 C57.3195876,50.5421053 56.6508591,49.8789474 56.6508591,48.9315789 C56.6508591,47.6052632 57.9883162,46.8 60.5199313,45.8526316 L60.5199313,49.5473684 L60.5676976,49.5473684 Z M67.2549828,49.5473684 C66.6340206,49.9736842 66.1563574,50.1631579 65.8697595,50.1631579 C65.4398625,50.1631579 65.3920962,49.9736842 65.3920962,48.5052632 L65.3920962,42.3 C65.3920962,38.8894737 62.7649485,37.9421053 59.8034364,37.9421053 C57.3195876,37.9421053 55.5522337,38.5105263 53.4505155,40.0263158 L53.4505155,43.4842105 C55.5044674,41.8263158 57.0329897,41.1631579 58.704811,41.1631579 C60.042268,41.1631579 60.6154639,41.7789474 60.6154639,43.2473684 L60.6154639,43.7684211 C55.7910653,45.3315789 52.3996564,46.8 52.3996564,49.9263158 C52.3996564,52.1052632 54.119244,53.7631579 56.3642612,53.7631579 C57.9883162,53.7631579 59.1824742,53.1473684 60.8065292,51.6315789 C61.0453608,53.0526316 61.8573883,53.7157895 63.290378,53.7157895 C64.4367698,53.7157895 65.5831615,53.2894737 67.2549828,52.2473684 L67.2549828,49.5473684 Z" id="Shape"></path>
                    <path d="M69.4044674,38.2263158 L73.7989691,38.2263158 L73.7989691,44.0052632 L73.8467354,44.0052632 C74.8498282,39.9789474 76.2350515,38.0842105 78.0501718,38.0842105 C78.9099656,38.0842105 79.8175258,38.3684211 80.8206186,38.9842105 L79.8175258,43.2 C79.0532646,42.7263158 78.4323024,42.4421053 77.8113402,42.4421053 C75.2797251,42.4421053 74.1810997,46.9421053 74.1810997,51.1105263 L74.1810997,53.4789474 L69.4044674,53.4789474 L69.4044674,38.2263158 Z" id="Shape"></path>
                    <path d="M82.0147766,48.9315789 C83.9254296,50.0210526 85.4539519,50.5421053 86.9347079,50.5421053 C87.985567,50.5421053 88.7020619,50.0684211 88.7020619,49.2157895 C88.7020619,47.1315789 81.775945,47.5578947 81.775945,42.7736842 C81.775945,39.9315789 84.1164948,37.9421053 87.3646048,37.9421053 C89.0364261,37.9421053 90.6127148,38.3684211 92.3323024,39.3157895 L92.3323024,42.4421053 C91.2814433,41.8736842 90.4216495,41.4947368 89.5618557,41.2578947 C88.7498282,41.0210526 88.0333333,40.9263158 87.3168385,40.9263158 C86.1704467,40.9263158 85.4539519,41.3526316 85.4539519,42.0157895 C85.4539519,44.0526316 92.9532646,43.6263158 92.9532646,48.7894737 C92.9532646,51.6789474 90.6127148,53.7157895 87.2213058,53.7157895 C85.6450172,53.7157895 84.0687285,53.3368421 82.0147766,52.4368421 L82.0147766,48.9315789 Z" id="Shape"></path>
                    <path d="M102.793127,49.5473684 C101.742268,50.3526316 101.312371,50.5421053 100.54811,50.5421053 C99.5450172,50.5421053 98.8762887,49.8789474 98.8762887,48.9315789 C98.8762887,47.6052632 100.213746,46.8 102.745361,45.8526316 L102.745361,49.5473684 L102.793127,49.5473684 Z M109.432646,49.5473684 C108.811684,49.9736842 108.381787,50.1631579 108.047423,50.1631579 C107.617526,50.1631579 107.569759,49.9736842 107.569759,48.5052632 L107.569759,42.3 C107.569759,38.8894737 104.942612,37.9421053 101.9811,37.9421053 C99.4972509,37.9421053 97.7298969,38.5105263 95.5804124,40.0263158 L95.5804124,43.4842105 C97.6343643,41.8263158 99.1628866,41.1631579 100.834708,41.1631579 C102.172165,41.1631579 102.745361,41.7789474 102.745361,43.2473684 L102.745361,43.7684211 C97.9209622,45.3315789 94.5295533,46.8 94.5295533,49.9263158 C94.5295533,52.1052632 96.2491409,53.7631579 98.4941581,53.7631579 C100.118213,53.7631579 101.312371,53.1473684 102.936426,51.6315789 C103.175258,53.0526316 103.939519,53.7157895 105.372509,53.7157895 C106.5189,53.7157895 107.665292,53.2894737 109.337113,52.2473684 L109.337113,49.5473684 L109.432646,49.5473684 Z" id="Shape"></path>
                    <path d="M121.613058,52.4842105 C119.797938,53.4315789 118.651546,53.7631579 117.314089,53.7631579 C114.925773,53.7631579 112.250859,52.4842105 112.250859,48.6 L112.250859,41.2105263 L110.053608,41.2105263 L110.053608,40.5947368 L116.215464,33.4894737 L117.027491,33.4894737 L117.027491,38.1789474 L121.421993,38.1789474 L121.421993,41.1631579 L117.027491,41.1631579 L117.027491,47.6052632 C117.027491,49.0263158 117.505155,50.0210526 118.747079,50.0210526 C119.51134,50.0210526 120.275601,49.7368421 121.660825,48.8842105 L121.660825,52.4842105 L121.613058,52.4842105 Z" id="Shape"></path>
                </g>
            </g>
        </g>
    </g>
</svg>