<?xml version="1.0" encoding="UTF-8"?>
<svg width="153px" height="19px" viewBox="0 0 153 19" version="1.1" xmlns="http://www.w3.org/2000/svg" xmlns:xlink="http://www.w3.org/1999/xlink">
    <!-- Generator: Sketch 51.2 (57519) - http://www.bohemiancoding.com/sketch -->
    <title>pasternack-logo</title>
    <desc>Created with Sketch.</desc>
    <defs></defs>
    <g id="Page-1" stroke="none" stroke-width="1" fill="none" fill-rule="evenodd" opacity="0.85">
        <g id="Contact" transform="translate(-1024.000000, -1523.000000)" fill="#FFFFFF">
            <g id="pasternack" transform="translate(1024.000000, 1523.000000)">
                <g>
                    <polygon id="Shape" fill-rule="nonzero" points="54.9325301 17.7129032 54.0108434 17.7129032 55.3626506 13.7290323 54.3180723 13.7290323 54.5638554 12.8709677 57.6975904 12.8709677 57.3903614 13.7290323 56.3457831 13.7290323"></polygon>
                    <g id="Group" transform="translate(55.301205, 0.612903)" fill-rule="nonzero">
                        <polygon id="Shape" points="5.53012048 12.2580645 4.91566265 14.1580645 3.50240964 14.1580645 4.05542169 12.2580645 3.13373494 12.2580645 1.59759036 17.1612903 2.51927711 17.1612903 3.19518072 15.016129 4.66987952 15.016129 3.9939759 17.1612903 4.97710843 17.1612903 6.51325301 12.2580645"></polygon>
                        <polygon id="Shape" points="6.08313253 17.1612903 8.60240964 17.1612903 8.90963855 16.3032258 7.31204819 16.3032258 7.68072289 15.016129 9.15542169 15.016129 9.4626506 14.1580645 7.98795181 14.1580645 8.29518072 13.116129 9.89277108 13.116129 10.1385542 12.2580645 7.61927711 12.2580645"></polygon>
                        <polygon id="Shape" points="13.5180723 13.116129 15.1156627 13.116129 15.3614458 12.2580645 12.8421687 12.2580645 11.3060241 17.1612903 13.8253012 17.1612903 14.0710843 16.3032258 12.5349398 16.3032258 12.9036145 15.016129 14.3783133 15.016129 14.6240964 14.1580645 13.1493976 14.1580645"></polygon>
                        <path d="M18.2493976,15.1387097 C18.126506,15.4451613 18.0650602,15.6903226 18.0650602,15.8741935 L17.4506024,12.2580645 L16.3445783,12.2580645 L14.8084337,17.1 L15.6686747,17.1 L16.4060241,14.8322581 C16.5289157,14.4645161 16.6518072,14.0354839 16.7746988,13.5451613 L16.7746988,13.4225806 L17.4506024,17.1 L18.4951807,17.1 L20.0313253,12.2580645 L19.1710843,12.2580645 C18.6795181,13.8516129 18.3722892,14.8322581 18.2493976,15.1387097 Z" id="Shape"></path>
                        <path d="M21.8746988,15.2612903 L22.673494,15.2612903 L22.3662651,16.2419355 C22.1819277,16.3032258 21.9975904,16.3032258 21.813253,16.3032258 C21.5060241,16.3032258 21.260241,16.2419355 21.1373494,16.0580645 C21.0144578,15.8741935 20.953012,15.6290323 21.0144578,15.2 C21.0759036,14.8322581 21.1987952,14.4645161 21.3831325,14.0967742 C21.5674699,13.7290323 21.813253,13.483871 22.0590361,13.3 C22.3048193,13.116129 22.6120482,12.9935484 22.9192771,12.9935484 C23.1036145,12.9935484 23.2879518,12.9935484 23.4108434,13.0548387 C23.5337349,13.116129 23.7180723,13.1774194 23.8409639,13.2387097 L24.2710843,12.3806452 C23.9024096,12.1354839 23.4722892,12.0741935 23.0421687,12.0741935 C22.4891566,12.0741935 22.0590361,12.1967742 21.6289157,12.4419355 C21.1987952,12.6870968 20.8301205,13.0548387 20.5843373,13.5451613 C20.2771084,14.0354839 20.1542169,14.5870968 20.0313253,15.1387097 C19.9698795,15.7516129 20.0313253,16.2419355 20.2771084,16.5483871 C20.5228916,16.8548387 20.953012,17.0387097 21.4445783,17.0387097 C21.6903614,17.0387097 21.9361446,17.0387097 22.1819277,16.9774194 C22.4277108,16.916129 22.673494,16.8548387 22.9807229,16.7935484 L23.7795181,14.2806452 L22.1204819,14.2806452 L21.8746988,15.2612903 Z" id="Shape"></path>
                        <polygon id="Shape" points="25.6228916 12.2580645 24.086747 17.1612903 25.0084337 17.1612903 26.5445783 12.2580645"></polygon>
                        <path d="M30.5385542,12.2580645 C30.046988,13.8516129 29.739759,14.8322581 29.6168675,15.1387097 C29.4939759,15.4451613 29.4325301,15.6903226 29.4325301,15.8741935 L28.8180723,12.2580645 L27.7120482,12.2580645 L26.1759036,17.1 L27.0361446,17.1 L27.773494,14.8322581 C27.8963855,14.4645161 28.0192771,14.0354839 28.1421687,13.5451613 L28.1421687,13.4225806 L28.8180723,17.1 L29.8626506,17.1 L31.3987952,12.2580645 L30.5385542,12.2580645 Z" id="Shape"></path>
                        <polygon id="Shape" points="33.2421687 13.116129 34.7783133 13.116129 35.0855422 12.2580645 32.5662651 12.2580645 31.0301205 17.1612903 33.5493976 17.1612903 33.7951807 16.3032258 32.1975904 16.3032258 32.6277108 15.016129 34.1024096 15.016129 34.3481928 14.1580645 32.873494 14.1580645"></polygon>
                        <polygon id="Shape" points="36.7445783 13.116129 38.2807229 13.116129 38.5879518 12.2580645 36.0072289 12.2580645 34.4710843 17.1612903 37.0518072 17.1612903 37.2975904 16.3032258 35.7 16.3032258 36.1301205 15.016129 37.6048193 15.016129 37.8506024 14.1580645 36.3759036 14.1580645"></polygon>
                        <path d="M40.6156627,12.2580645 L39.5096386,12.2580645 L37.973494,17.1 L38.8951807,17.1 L39.5096386,15.2612903 L39.8783133,15.2612903 L40.3084337,17.1 L41.353012,17.1 L40.8,15.016129 C41.1072289,14.8935484 41.4144578,14.7096774 41.5987952,14.4645161 C41.7831325,14.2193548 41.9060241,13.9129032 41.9674699,13.5451613 C42.0289157,13.116129 41.9060241,12.7483871 41.7216867,12.5645161 C41.4759036,12.3806452 41.1072289,12.2580645 40.6156627,12.2580645 Z M40.6771084,14.2193548 C40.4927711,14.3419355 40.3084337,14.4032258 40.0012048,14.4032258 L39.7554217,14.4032258 L40.1855422,13.116129 L40.4313253,13.116129 C40.6156627,13.116129 40.8,13.1774194 40.8614458,13.2387097 C40.9228916,13.3 40.9843373,13.483871 40.9843373,13.6677419 C40.9228916,13.9129032 40.8614458,14.0967742 40.6771084,14.2193548 Z" id="Shape"></path>
                        <path d="M44.1180723,12.2580645 L43.2578313,12.2580645 C42.9506024,12.9322581 42.7048193,13.483871 42.4590361,13.9129032 L43.1349398,13.9129032 C43.5036145,13.3612903 43.8722892,12.8096774 44.1180723,12.3193548 L44.1180723,12.2580645 Z" id="Shape"></path>
                        <path d="M45.1012048,12.3806452 C44.8554217,12.5032258 44.6710843,12.6870968 44.486747,12.9322581 C44.3024096,13.1774194 44.2409639,13.4225806 44.1795181,13.7290323 C44.1795181,13.9741935 44.1795181,14.2193548 44.2409639,14.4032258 C44.3024096,14.5870968 44.486747,14.8322581 44.7939759,15.0774194 C44.9783133,15.2612903 45.1012048,15.383871 45.1626506,15.4451613 C45.2240964,15.5064516 45.2240964,15.5677419 45.2855422,15.6290323 C45.2855422,15.6903226 45.2855422,15.8129032 45.2855422,15.8741935 C45.2855422,16.0580645 45.1626506,16.1806452 45.039759,16.2419355 C44.9168675,16.3645161 44.7325301,16.3645161 44.486747,16.3645161 C44.1180723,16.3645161 43.8108434,16.2419355 43.4421687,15.9967742 L43.3192771,16.916129 C43.5650602,17.1 43.9337349,17.2225806 44.3638554,17.2225806 C44.8554217,17.2225806 45.2855422,17.1 45.6542169,16.7935484 C46.0228916,16.4870968 46.2072289,16.1806452 46.2686747,15.6903226 C46.3301205,15.383871 46.2686747,15.1387097 46.1457831,14.9548387 C46.0228916,14.7709677 45.9,14.5258065 45.6542169,14.3419355 C45.4084337,14.1580645 45.2855422,14.0354839 45.2240964,13.9129032 C45.1626506,13.7903226 45.1626506,13.6677419 45.1626506,13.5451613 C45.1626506,13.3612903 45.2240964,13.2387097 45.346988,13.1774194 C45.4698795,13.0548387 45.5927711,13.0548387 45.7771084,13.0548387 C46.0228916,13.0548387 46.3301205,13.116129 46.6373494,13.3 L47.0674699,12.5032258 C46.6987952,12.2580645 46.3301205,12.1967742 45.9,12.1967742 C45.6542169,12.1967742 45.346988,12.2580645 45.1012048,12.3806452 Z" id="Shape"></path>
                        <path d="M52.413253,13.6064516 C52.4746988,13.1774194 52.3518072,12.8096774 52.1674699,12.6258065 C51.9216867,12.3806452 51.6144578,12.2580645 51.1228916,12.2580645 L50.0168675,12.2580645 L48.4807229,17.1 L49.4024096,17.1 L50.0168675,15.2612903 L50.3855422,15.2612903 L50.8156627,17.1 L51.860241,17.1 L51.3072289,15.016129 C51.6144578,14.8935484 51.9216867,14.7096774 52.1060241,14.4645161 C52.2289157,14.2806452 52.3518072,13.9741935 52.413253,13.6064516 Z M51.1228916,14.2193548 C50.9385542,14.3419355 50.7542169,14.4032258 50.446988,14.4032258 L50.2012048,14.4032258 L50.6313253,13.116129 L50.8771084,13.116129 C51.0614458,13.116129 51.2457831,13.1774194 51.3072289,13.2387097 C51.3686747,13.3 51.4301205,13.483871 51.4301205,13.6677419 C51.4301205,13.9129032 51.3072289,14.0967742 51.1228916,14.2193548 Z" id="Shape"></path>
                        <polygon id="Shape" points="52.3518072 17.1612903 53.3349398 17.1612903 53.8879518 15.2 55.3626506 15.2 55.6698795 14.3419355 54.1951807 14.3419355 54.5638554 13.116129 56.1614458 13.116129 56.4072289 12.2580645 53.8879518 12.2580645"></polygon>
                        <path d="M59.2951807,12.3806452 C59.0493976,12.5032258 58.8650602,12.6870968 58.6807229,12.9322581 C58.4963855,13.1774194 58.4349398,13.4225806 58.373494,13.7290323 C58.373494,13.9741935 58.373494,14.2193548 58.4349398,14.4032258 C58.4963855,14.6483871 58.6807229,14.8322581 58.9879518,15.0774194 C59.1722892,15.2612903 59.2951807,15.383871 59.3566265,15.4451613 C59.4180723,15.5064516 59.4180723,15.5677419 59.4795181,15.6290323 C59.4795181,15.6903226 59.4795181,15.8129032 59.4795181,15.8741935 C59.4795181,16.0580645 59.3566265,16.1806452 59.2337349,16.2419355 C59.1108434,16.3645161 58.926506,16.3645161 58.6807229,16.3645161 C58.3120482,16.3645161 58.0048193,16.2419355 57.6361446,15.9967742 L57.513253,16.916129 C57.7590361,17.1 58.1277108,17.2225806 58.5578313,17.2225806 C59.0493976,17.2225806 59.4795181,17.1 59.8481928,16.7935484 C60.1554217,16.5483871 60.4012048,16.1806452 60.4626506,15.6903226 C60.5240964,15.383871 60.4626506,15.1387097 60.339759,14.9548387 C60.2168675,14.7709677 60.0939759,14.5258065 59.8481928,14.3419355 C59.6024096,14.1580645 59.4795181,14.0354839 59.4180723,13.9129032 C59.3566265,13.7903226 59.3566265,13.6677419 59.3566265,13.5451613 C59.3566265,13.3612903 59.4180723,13.2387097 59.5409639,13.1774194 C59.6638554,13.116129 59.786747,13.0548387 59.9710843,13.0548387 C60.2168675,13.0548387 60.5240964,13.116129 60.8313253,13.3 L61.2614458,12.5032258 C60.8927711,12.2580645 60.5240964,12.1967742 60.0939759,12.1967742 C59.786747,12.1967742 59.5409639,12.2580645 59.2951807,12.3806452 Z" id="Shape"></path>
                        <path d="M64.0879518,12.1967742 C63.5963855,12.1967742 63.1662651,12.3193548 62.7975904,12.5645161 C62.4289157,12.8096774 62.060241,13.1774194 61.8144578,13.7290323 C61.5686747,14.2193548 61.3843373,14.7709677 61.3228916,15.383871 C61.2614458,15.9354839 61.3228916,16.4258065 61.6301205,16.7322581 C61.8759036,17.0387097 62.3060241,17.2225806 62.7975904,17.2225806 C63.2891566,17.2225806 63.6578313,17.1 64.0879518,16.8548387 C64.4566265,16.6096774 64.8253012,16.2419355 65.0710843,15.7516129 C65.3168675,15.2612903 65.5012048,14.7096774 65.5626506,14.0354839 C65.6240964,13.483871 65.5626506,12.9935484 65.3168675,12.6870968 C65.0096386,12.3806452 64.6409639,12.1967742 64.0879518,12.1967742 Z M64.2722892,15.2 C64.0879518,15.5677419 63.9036145,15.8129032 63.7192771,15.9967742 C63.473494,16.1806452 63.2277108,16.3032258 62.9819277,16.3032258 C62.7361446,16.3032258 62.5518072,16.2419355 62.4289157,16.0580645 C62.3060241,15.8741935 62.2445783,15.6290323 62.3060241,15.3225806 C62.3674699,14.8935484 62.4903614,14.5258065 62.613253,14.1580645 C62.7975904,13.7903226 62.9819277,13.5451613 63.2277108,13.3 C63.473494,13.116129 63.7192771,12.9935484 63.9650602,12.9935484 C64.2108434,12.9935484 64.3951807,13.0548387 64.5180723,13.2387097 C64.6409639,13.4225806 64.6409639,13.6677419 64.6409639,13.9741935 C64.5180723,14.4645161 64.3951807,14.8935484 64.2722892,15.2 Z" id="Shape"></path>
                        <path d="M69.4951807,12.2580645 L68.5120482,15.3225806 C68.3891566,15.6903226 68.2662651,15.9354839 68.0819277,16.0580645 C67.8975904,16.2419355 67.713253,16.3032258 67.4674699,16.3032258 C67.0987952,16.3032258 66.9144578,16.1193548 66.9759036,15.6903226 C66.9759036,15.5677419 67.0373494,15.4451613 67.0987952,15.2612903 L68.0819277,12.1967742 L67.160241,12.1967742 L66.1771084,15.2612903 C66.1156627,15.383871 66.1156627,15.5677419 66.0542169,15.7516129 C65.9927711,16.1806452 66.1156627,16.5483871 66.3,16.7935484 C66.5457831,17.0387097 66.853012,17.1612903 67.2831325,17.1612903 C67.8361446,17.1612903 68.2662651,17.0387097 68.6349398,16.7322581 C69.0036145,16.4258065 69.3108434,15.9967742 69.4951807,15.383871 L70.4783133,12.2580645 L69.4951807,12.2580645 Z" id="Shape"></path>
                        <path d="M72.6903614,12.2580645 L71.5843373,12.2580645 L70.0481928,17.1612903 L70.9698795,17.1612903 L71.5843373,15.3225806 L71.953012,15.3225806 L72.3831325,17.1612903 L73.4277108,17.1612903 L72.8746988,15.0774194 C73.1819277,14.9548387 73.4891566,14.7709677 73.673494,14.5258065 C73.8578313,14.2806452 73.9807229,13.9741935 74.0421687,13.6064516 C74.1036145,13.1774194 73.9807229,12.8096774 73.7963855,12.6258065 C73.5506024,12.3806452 73.1819277,12.2580645 72.6903614,12.2580645 Z M72.7518072,14.2193548 C72.5674699,14.3419355 72.3831325,14.4032258 72.0759036,14.4032258 L71.8301205,14.4032258 L72.260241,13.116129 L72.5060241,13.116129 C72.6903614,13.116129 72.8746988,13.1774194 72.9361446,13.2387097 C72.9975904,13.3 73.0590361,13.483871 73.0590361,13.6677419 C72.9975904,13.9129032 72.8746988,14.0967742 72.7518072,14.2193548 Z" id="Shape"></path>
                        <path d="M75.7012048,14.0967742 C75.8855422,13.7290323 76.0698795,13.483871 76.3156627,13.3 C76.5614458,13.116129 76.8072289,13.0548387 77.053012,13.0548387 C77.1759036,13.0548387 77.360241,13.0548387 77.4831325,13.116129 C77.6060241,13.1774194 77.7903614,13.2387097 77.9746988,13.3612903 L78.4662651,12.5032258 C78.2819277,12.3806452 78.0361446,12.2580645 77.8518072,12.2580645 C77.6674699,12.1967742 77.4216867,12.1967742 77.1759036,12.1967742 C76.6843373,12.1967742 76.2542169,12.3193548 75.8855422,12.5645161 C75.5168675,12.8096774 75.1481928,13.1774194 74.9024096,13.6677419 C74.6566265,14.1580645 74.4722892,14.7096774 74.4108434,15.2612903 C74.3493976,15.8741935 74.4108434,16.3645161 74.6566265,16.6709677 C74.9024096,16.9774194 75.2710843,17.1612903 75.8240964,17.1612903 C76.2542169,17.1612903 76.6843373,17.1 77.1144578,16.916129 L77.2373494,16.0580645 C76.8072289,16.2419355 76.4385542,16.3032258 76.1313253,16.3032258 C75.8240964,16.3032258 75.5783133,16.2419355 75.5168675,16.0580645 C75.3939759,15.8741935 75.3325301,15.6290323 75.3939759,15.2612903 C75.3939759,14.8322581 75.5168675,14.4645161 75.7012048,14.0967742 Z" id="Shape"></path>
                        <polygon id="Shape" points="77.913253 17.1612903 80.4325301 17.1612903 80.6783133 16.3032258 79.0807229 16.3032258 79.5108434 15.016129 80.9855422 15.016129 81.2313253 14.1580645 79.7566265 14.1580645 80.1253012 13.116129 81.6614458 13.116129 81.9686747 12.2580645 79.4493976 12.2580645"></polygon>
                        <path d="M97.1457831,0.980645161 C97.0228916,0.796774194 96.9,0.674193548 96.7156627,0.551612903 C96.5313253,0.429032258 96.346988,0.429032258 96.1626506,0.429032258 C95.9783133,0.429032258 95.7325301,0.490322581 95.5481928,0.551612903 C95.3638554,0.674193548 95.1795181,0.796774194 95.1180723,0.980645161 C94.9951807,1.16451613 94.9337349,1.3483871 94.9337349,1.53225806 C94.9337349,1.71612903 94.9337349,1.9 95.0566265,2.08387097 C95.1795181,2.26774194 95.3024096,2.39032258 95.486747,2.51290323 C95.6710843,2.63548387 95.8554217,2.69677419 96.1012048,2.69677419 C96.346988,2.69677419 96.5313253,2.63548387 96.7156627,2.57419355 C96.9,2.4516129 97.0843373,2.32903226 97.1457831,2.14516129 C97.2686747,1.96129032 97.3301205,1.77741935 97.3301205,1.59354839 C97.2686747,1.3483871 97.2072289,1.16451613 97.1457831,0.980645161 Z M96.8385542,1.96129032 C96.7156627,2.08387097 96.5927711,2.20645161 96.4698795,2.26774194 C96.2855422,2.32903226 96.1626506,2.39032258 95.9783133,2.39032258 C95.7939759,2.39032258 95.6710843,2.32903226 95.486747,2.26774194 C95.3024096,2.20645161 95.2409639,2.08387097 95.1795181,1.96129032 C95.1180723,1.83870968 95.0566265,1.65483871 95.0566265,1.53225806 C95.0566265,1.3483871 95.1180723,1.22580645 95.2409639,1.10322581 C95.3638554,0.980645161 95.486747,0.858064516 95.6096386,0.796774194 C95.7939759,0.735483871 95.9168675,0.674193548 96.1012048,0.674193548 C96.2855422,0.674193548 96.4084337,0.735483871 96.5927711,0.796774194 C96.7156627,0.858064516 96.8385542,0.980645161 96.9,1.10322581 C96.9614458,1.22580645 97.0228916,1.40967742 97.0228916,1.53225806 C97.0228916,1.65483871 96.9614458,1.83870968 96.8385542,1.96129032 Z" id="Shape"></path>
                        <path d="M96.6542169,1.28709677 C96.6542169,1.16451613 96.5927711,1.04193548 96.5313253,0.980645161 C96.4084337,0.919354839 96.2855422,0.858064516 96.1012048,0.858064516 L95.6096386,0.858064516 L95.5481928,2.14516129 L95.9168675,2.14516129 L95.9168675,1.71612903 L96.039759,1.71612903 L96.2240964,2.14516129 L96.6542169,2.14516129 L96.346988,1.59354839 C96.4698795,1.53225806 96.5313253,1.53225806 96.5313253,1.47096774 C96.5927711,1.40967742 96.6542169,1.3483871 96.6542169,1.28709677 Z M96.2240964,1.40967742 C96.1626506,1.40967742 96.1012048,1.47096774 96.039759,1.47096774 L95.9783133,1.47096774 L95.9783133,1.10322581 L96.039759,1.10322581 C96.1012048,1.10322581 96.1626506,1.10322581 96.2240964,1.16451613 C96.2855422,1.16451613 96.2855422,1.22580645 96.2855422,1.28709677 C96.2855422,1.3483871 96.2240964,1.40967742 96.2240964,1.40967742 Z" id="Shape"></path>
                        <path d="M4.05542169,6.61935484 L5.1,6.61935484 C5.65301205,6.61935484 6.14457831,6.55806452 6.63614458,6.43548387 C7.12771084,6.31290323 7.61927711,6.12903226 7.98795181,5.88387097 C8.41807229,5.63870968 8.84819277,5.33225806 9.15542169,4.96451613 C9.4626506,4.59677419 9.70843373,4.10645161 9.89277108,3.61612903 C10.0156627,3.2483871 10.1385542,2.88064516 10.1385542,2.51290323 C10.1385542,2.14516129 10.0771084,1.77741935 9.95421687,1.47096774 C9.76987952,1.16451613 9.52409639,0.919354839 9.15542169,0.735483871 C8.78674699,0.551612903 8.11084337,0.429032258 7.55783133,0.429032258 L3.50240964,0.429032258 L0,10.4193548 L2.70361446,10.4193548 L4.05542169,6.61935484 Z M4.66987952,4.71935484 L5.53012048,2.26774194 L6.32891566,2.26774194 C6.82048193,2.26774194 7.12771084,2.32903226 7.18915663,2.51290323 C7.31204819,2.69677419 7.31204819,3.00322581 7.12771084,3.43225806 C7.00481928,3.86129032 6.75903614,4.16774194 6.45180723,4.41290323 C6.14457831,4.59677419 5.77590361,4.71935484 5.34578313,4.71935484 L4.66987952,4.71935484 Z" id="Shape"></path>
                        <path d="M14.3168675,8.39677419 L14.0710843,10.4193548 L16.8975904,10.4193548 L17.4506024,0.490322581 L14.3168675,0.490322581 L7.55783133,10.4193548 L10.4457831,10.4193548 L11.6746988,8.39677419 L14.3168675,8.39677419 Z M14.8698795,3.2483871 L14.5012048,6.37419355 L12.9036145,6.37419355 L14.8698795,3.2483871 Z" id="Shape"></path>
                        <path d="M21.4445783,10.5419355 C22.673494,10.5419355 23.7795181,10.2967742 24.639759,9.80645161 C25.5614458,9.31612903 26.1759036,8.51935484 26.5445783,7.47741935 C26.6674699,7.17096774 26.7289157,6.86451613 26.7289157,6.61935484 C26.7289157,6.31290323 26.7289157,6.06774194 26.6060241,5.82258065 C26.4831325,5.57741935 26.360241,5.39354839 26.1144578,5.20967742 C25.8686747,5.02580645 25.5614458,4.84193548 25.1927711,4.65806452 L23.7180723,4.04516129 C23.226506,3.86129032 23.1650602,3.67741935 23.1036145,3.61612903 C23.0421687,3.49354839 23.0421687,3.2483871 23.1650602,3.00322581 C23.226506,2.88064516 23.2879518,2.75806452 23.3493976,2.63548387 C23.4108434,2.51290323 23.5337349,2.4516129 23.5951807,2.32903226 C23.7180723,2.26774194 23.8409639,2.14516129 24.0253012,2.14516129 C24.2096386,2.08387097 24.3939759,2.08387097 24.639759,2.08387097 C24.946988,2.08387097 25.1927711,2.14516129 25.2542169,2.32903226 C25.3156627,2.51290323 25.3156627,2.81935484 25.1313253,3.18709677 L25.0084337,3.49354839 L27.6506024,3.49354839 L27.773494,3.06451613 C27.9578313,2.57419355 28.0192771,2.14516129 27.9578313,1.77741935 C27.8963855,1.40967742 27.7120482,1.10322581 27.4662651,0.858064516 C27.2204819,0.612903226 26.8518072,0.429032258 26.4216867,0.367741935 C25.9915663,0.24516129 25.5614458,0.24516129 25.0698795,0.24516129 C23.9638554,0.24516129 22.9807229,0.490322581 22.1819277,0.980645161 C21.3831325,1.47096774 20.7686747,2.20645161 20.4,3.18709677 C20.2771084,3.61612903 20.1542169,3.98387097 20.1542169,4.29032258 C20.1542169,4.65806452 20.2771084,4.96451613 20.4614458,5.20967742 C20.6457831,5.45483871 20.8915663,5.7 21.260241,5.88387097 C21.5674699,6.06774194 21.9361446,6.2516129 22.4277108,6.37419355 C22.7349398,6.49677419 23.0421687,6.55806452 23.226506,6.68064516 C23.4108434,6.74193548 23.5337349,6.86451613 23.6566265,6.98709677 C23.7180723,7.0483871 23.7795181,7.17096774 23.7795181,7.29354839 C23.7795181,7.41612903 23.7795181,7.6 23.7180723,7.72258065 C23.5951807,8.09032258 23.4108434,8.33548387 23.1036145,8.45806452 C22.7963855,8.64193548 22.4891566,8.70322581 22.1819277,8.70322581 C21.9361446,8.70322581 21.7518072,8.70322581 21.5674699,8.64193548 C21.4445783,8.58064516 21.3831325,8.51935484 21.3216867,8.45806452 C21.260241,8.39677419 21.260241,8.27419355 21.260241,8.1516129 C21.260241,7.96774194 21.3216867,7.78387097 21.3831325,7.6 L21.5674699,6.98709677 L18.8638554,6.98709677 L18.6795181,7.53870968 C18.3108434,8.51935484 18.3722892,9.25483871 18.8024096,9.80645161 C19.2325301,10.2967742 20.0927711,10.5419355 21.4445783,10.5419355 Z" id="Shape"></path>
                        <polygon id="Shape" points="31.7060241 10.4193548 34.5939759 2.51290323 36.9903614 2.51290323 37.7277108 0.490322581 30.1698795 0.490322581 29.4325301 2.51290323 31.8289157 2.51290323 28.9409639 10.4193548"></polygon>
                        <polygon id="Shape" points="39.0180723 8.39677419 39.8168675 6.31290323 43.5036145 6.31290323 44.2409639 4.29032258 40.5542169 4.29032258 41.1686747 2.51290323 45.1626506 2.51290323 45.9 0.490322581 39.2024096 0.490322581 35.5771084 10.4193548 42.3975904 10.4193548 43.1349398 8.39677419"></polygon>
                        <path d="M49.9554217,6.61935484 C50.0168675,6.80322581 50.0168675,6.98709677 49.9554217,7.29354839 L49.3409639,9.13225806 C49.2795181,9.31612903 49.2180723,9.5 49.2180723,9.68387097 C49.1566265,9.92903226 49.2180723,10.1129032 49.2795181,10.2967742 L49.3409639,10.4193548 L52.0445783,10.4193548 L52.1674699,9.99032258 L51.9831325,9.86774194 C51.9216867,9.86774194 51.860241,9.80645161 51.860241,9.56129032 C51.9216867,9.31612903 52.0445783,8.88709677 52.1674699,8.45806452 C52.2289157,8.21290323 52.3518072,7.96774194 52.413253,7.78387097 C52.4746988,7.6 52.5361446,7.35483871 52.5975904,7.17096774 C52.7204819,6.55806452 52.7204819,6.12903226 52.4746988,5.82258065 C52.3518072,5.7 52.2289157,5.57741935 52.0445783,5.45483871 C52.413253,5.33225806 52.7819277,5.08709677 53.0891566,4.84193548 C53.5807229,4.41290323 53.9493976,3.86129032 54.1951807,3.18709677 C54.5024096,2.26774194 54.5024096,1.59354839 54.0722892,1.10322581 C53.6421687,0.674193548 52.9662651,0.429032258 51.9216867,0.429032258 L47.6204819,0.429032258 L43.9951807,10.3580645 L46.6987952,10.3580645 L48.173494,6.37419355 L49.2180723,6.37419355 C49.586747,6.37419355 49.8325301,6.43548387 49.9554217,6.61935484 Z M49.7096386,2.32903226 L50.6313253,2.32903226 C51.0614458,2.32903226 51.3686747,2.4516129 51.4915663,2.57419355 C51.6144578,2.75806452 51.6144578,3.00322581 51.4915663,3.30967742 C51.3072289,3.8 51.0614458,4.10645161 50.7542169,4.29032258 C50.446988,4.47419355 50.0168675,4.59677419 49.5253012,4.59677419 L48.9108434,4.59677419 L49.7096386,2.32903226 Z" id="Shape"></path>
                        <polygon id="Shape" points="56.1614458 10.4193548 58.3120482 4.59677419 58.5578313 10.4193548 61.5072289 10.4193548 65.1325301 0.490322581 62.613253 0.490322581 60.5240964 6.12903226 60.2168675 0.490322581 57.2674699 0.490322581 53.6421687 10.4193548"></polygon>
                        <path d="M65.5626506,10.4193548 L66.7915663,8.39677419 L69.3722892,8.39677419 L69.126506,10.4193548 L71.953012,10.4193548 L72.5060241,0.490322581 L69.3722892,0.490322581 L62.6746988,10.4193548 L65.5626506,10.4193548 Z M68.0204819,6.37419355 L69.9253012,3.2483871 L69.5566265,6.37419355 L68.0204819,6.37419355 Z" id="Shape"></path>
                        <path d="M79.4493976,6.49677419 C79.2650602,6.98709677 79.0807229,7.41612903 78.8963855,7.72258065 C78.7120482,8.02903226 78.5277108,8.27419355 78.4048193,8.39677419 C78.2204819,8.51935484 78.0975904,8.64193548 77.913253,8.70322581 C77.5445783,8.82580645 77.1144578,8.82580645 76.9301205,8.70322581 C76.8686747,8.64193548 76.8072289,8.51935484 76.7457831,8.39677419 C76.7457831,8.21290323 76.7457831,7.84516129 76.8686747,7.41612903 C76.9915663,6.98709677 77.1759036,6.43548387 77.4216867,5.7 C77.6674699,5.02580645 77.913253,4.47419355 78.0975904,3.98387097 C78.2819277,3.55483871 78.5277108,3.18709677 78.7120482,2.88064516 C78.8963855,2.63548387 79.0807229,2.4516129 79.326506,2.32903226 C79.5108434,2.20645161 79.7566265,2.14516129 80.0024096,2.14516129 C80.5554217,2.14516129 80.6168675,2.39032258 80.6783133,2.4516129 C80.739759,2.63548387 80.739759,3.00322581 80.4325301,3.8 L80.3096386,4.10645161 L83.013253,4.10645161 L83.0746988,3.98387097 C83.1975904,3.61612903 83.3204819,3.2483871 83.3819277,2.81935484 C83.5048193,2.39032258 83.4433735,1.96129032 83.3819277,1.59354839 C83.2590361,1.22580645 82.9518072,0.858064516 82.5216867,0.612903226 C82.0915663,0.367741935 81.4771084,0.24516129 80.6168675,0.24516129 C79.7566265,0.24516129 79.0192771,0.367741935 78.4048193,0.612903226 C77.7903614,0.858064516 77.2373494,1.22580645 76.8072289,1.65483871 C76.3771084,2.08387097 76.0084337,2.63548387 75.7012048,3.2483871 C75.3939759,3.86129032 75.086747,4.53548387 74.8409639,5.27096774 C74.5951807,6.00645161 74.3493976,6.68064516 74.226506,7.29354839 C74.1036145,7.90645161 74.0421687,8.45806452 74.1650602,8.9483871 C74.2879518,9.43870968 74.5951807,9.80645161 75.0253012,10.1129032 C75.4554217,10.3580645 76.1313253,10.4806452 76.9915663,10.4806452 C77.7289157,10.4806452 78.4048193,10.3580645 78.9578313,10.1741935 C79.5108434,9.99032258 80.0024096,9.68387097 80.4325301,9.31612903 C80.8012048,8.9483871 81.1698795,8.51935484 81.4156627,8.02903226 C81.6614458,7.53870968 81.9072289,7.0483871 82.0915663,6.55806452 L82.2144578,6.2516129 L79.5108434,6.2516129 L79.4493976,6.49677419 Z" id="Shape"></path>
                        <polygon id="Shape" points="91.3084337 0.490322581 87.6216867 3.73870968 88.8506024 0.490322581 86.146988 0.490322581 82.5216867 10.4193548 85.2253012 10.4193548 86.2698795 7.47741935 87.1915663 6.68064516 87.9903614 10.4193548 91.0012048 10.4193548 89.5879518 4.84193548 94.3807229 0.490322581"></polygon>
                    </g>
                    <path d="M33.3650602,14.0354839 L34.6554217,10.3580645 L39.7554217,10.3580645 C41.1686747,10.3580645 41.8445783,10.5419355 42.4590361,10.7258065 L43.3192771,8.09032258 C43.4421687,8.09032258 41.9674699,8.09032258 40.5542169,8.09032258 L35.4542169,8.09032258 L36.6216867,4.90322581 L41.660241,4.90322581 C43.1349398,4.90322581 43.7493976,5.08709677 44.3638554,5.27096774 L45.2855422,2.63548387 L31.2759036,2.63548387 C31.3987952,3.18709677 31.3987952,3.67741935 30.9686747,4.96451613 L27.773494,13.9129032 C27.2819277,15.2 26.913253,15.7516129 26.4216867,16.2419355 L40.4927711,16.2419355 L41.4144578,13.6064516 C40.7385542,13.7903226 40.1855422,13.9741935 38.7108434,13.9741935 L33.3650602,13.9741935 L33.3650602,14.0354839 Z" id="Shape" fill-rule="nonzero"></path>
                    <path d="M15.9144578,11.4612903 L22.0590361,11.4612903 C24.3939759,11.4612903 26.1759036,10.9096774 27.1590361,8.1516129 L27.8963855,6.00645161 C28.8795181,3.2483871 27.4048193,2.69677419 25.1313253,2.69677419 L13.026506,2.69677419 C13.2722892,3.2483871 13.2722892,3.73870968 12.8421687,5.02580645 L9.76987952,13.9741935 C9.33975904,15.2612903 8.97108434,15.8129032 8.47951807,16.3032258 L14.746988,16.3032258 C14.6240964,15.7516129 14.6240964,15.2612903 15.0542169,13.9741935 L15.9144578,11.4612903 Z M18.126506,4.90322581 L22.0590361,4.90322581 C22.9192771,4.90322581 23.0421687,5.08709677 22.7349398,6.06774194 L22.0590361,7.96774194 C21.7518072,8.9483871 21.4445783,9.13225806 20.5843373,9.13225806 L16.6518072,9.13225806 L18.126506,4.90322581 Z" id="Shape" fill-rule="nonzero"></path>
                    <path d="M45.5927711,1.10322581 C48.0506024,1.10322581 48.6036145,1.65483871 48.0506024,3.30967742 C47.313253,5.33225806 43.9951807,14.8322581 43.7493976,15.5677419 C43.1349398,17.2225806 42.213253,17.7741935 39.7554217,17.7741935 L8.41807229,17.7741935 C6.02168675,17.7741935 5.4686747,17.2225806 6.08313253,15.5677419 C7.31204819,12.1354839 9.64698795,5.33225806 10.3843373,3.30967742 C10.9987952,1.65483871 11.9819277,1.10322581 14.3168675,1.10322581 L45.5927711,1.10322581 Z M5.03855422,3.30967742 C5.03855422,3.30967742 1.41325301,13.6677419 0.737349398,15.5677419 C-0.0614457831,17.7741935 1.16746988,18.8774194 4.30120482,18.8774194 L43.1963855,18.8774194 C46.3301205,18.8774194 48.2349398,17.7741935 49.0337349,15.5677419 C49.8939759,13.116129 52.2903614,6.37419355 53.3349398,3.30967742 C54.1337349,1.10322581 52.9662651,0 49.7710843,0 L10.9373494,0 C7.80361446,0 5.8373494,1.10322581 5.03855422,3.30967742 Z" id="Shape" fill-rule="nonzero"></path>
                </g>
            </g>
        </g>
    </g>
</svg>