<?xml version="1.0" encoding="UTF-8"?>
<svg width="130px" height="33px" viewBox="0 0 130 33" version="1.1" xmlns="http://www.w3.org/2000/svg" xmlns:xlink="http://www.w3.org/1999/xlink">
    <!-- Generator: Sketch 51.2 (57519) - http://www.bohemiancoding.com/sketch -->
    <title>priva-logo</title>
    <desc>Created with Sketch.</desc>
    <defs></defs>
    <g id="Page-1" stroke="none" stroke-width="1" fill="none" fill-rule="evenodd" opacity="0.848214286">
        <g id="Contact" transform="translate(-845.000000, -1519.000000)" fill="#FFFFFF">
            <g id="priva" transform="translate(845.000000, 1519.000000)">
                <g>
                    <path d="M18.9428571,3.675 C17.0114286,1.5 14.1885714,0.075 11.0685714,0.075 C5.27428571,0.075 0.594285714,4.8 0.594285714,10.65 C0.594285714,11.1 0.594285714,11.475 0.668571429,11.925 C4.68,7.05 10.6228571,3.9 17.3828571,3.675 C17.9028571,3.675 18.4228571,3.675 18.9428571,3.675" id="Shape" fill-rule="nonzero"></path>
                    <path d="M5.2,19.5 C6.90857143,20.625 8.91428571,21.3 11.0685714,21.3 C16.8628571,21.3 21.5428571,16.575 21.5428571,10.725 C21.5428571,8.625 20.9485714,6.675 19.9085714,5.025 C13,7.275 7.57714286,12.675 5.2,19.5" id="Shape" fill-rule="nonzero"></path>
                    <path d="M106.6,2.7 L96.5714286,15.6 L86.6171429,2.7 L83.72,2.7 L95.68,18.15 C95.8285714,18.375 96.1257143,18.525 96.4971429,18.6 L96.72,18.6 C97.0171429,18.6 97.3142857,18.45 97.4628571,18.15 L109.422857,2.7 L106.6,2.7 Z" id="Shape" fill-rule="nonzero"></path>
                    <path d="M123.537143,14.775 L126.508571,18.675 L129.405714,18.675 L117.52,3.3 C117.297143,3 117,2.85 116.628571,2.85 C116.257143,2.85 115.96,3 115.737143,3.3 L103.851429,18.675 L106.748571,18.675 L116.628571,5.775 L121.902857,12.525 L123.537143,14.775 Z" id="Shape" fill-rule="nonzero"></path>
                    <path d="M43.3828571,2.85 L29.64,2.85 C29.0457143,2.85 28.5257143,3.375 28.5257143,3.975 L28.5257143,18.675 L30.68,18.675 L30.68,5.025 L43.3085714,5.025 C45.24,5.025 46.7257143,6.6 46.7257143,8.475 C46.7257143,10.425 45.1657143,11.925 43.3085714,11.925 L37.0685714,11.925 L35.4342857,11.925 C34.0971429,11.925 33.7257143,12.825 32.6857143,14.1 L34.9885714,14.1 L43.3085714,14.1 C46.4285714,14.1 48.9542857,11.55 48.9542857,8.4 C48.9542857,5.325 46.4285714,2.85 43.3828571,2.85" id="Shape" fill-rule="nonzero"></path>
                    <path d="M73.5428571,8.475 C73.5428571,5.325 71.0171429,2.775 67.8971429,2.775 L54.2285714,2.775 C53.6342857,2.775 53.1142857,3.3 53.1142857,3.9 L53.1142857,18.6 L55.2685714,18.6 L55.2685714,5.025 L67.8971429,5.025 C69.8285714,5.025 71.3142857,6.6 71.3142857,8.475 C71.3142857,10.425 69.7542857,11.925 67.8971429,11.925 L61.6571429,11.925 L60.0228571,11.925 C58.6857143,11.925 58.3142857,12.825 57.2742857,14.1 L59.5771429,14.1 L66.7085714,14.1 L70.1257143,18.6 L72.9485714,18.6 L69.3828571,13.95 C71.76,13.275 73.5428571,11.1 73.5428571,8.475" id="Shape" fill-rule="nonzero"></path>
                    <path d="M79.1885714,2.775 C78.52,2.775 78.0742857,3.3 78,3.9 L78,18.6 L80.1542857,18.6 L80.1542857,2.775 L79.1885714,2.775 Z" id="Shape" fill-rule="nonzero"></path>
                    <polygon id="Shape" fill-rule="nonzero" points="126.062857 3.45 126.062857 5.25 125.617143 5.25 125.617143 3.45 124.948571 3.45 124.948571 3.075 126.657143 3.075 126.657143 3.45"></polygon>
                    <polygon id="Shape" fill-rule="nonzero" points="128.811429 3.075 128.142857 4.425 127.474286 3.075 127.028571 3.075 127.028571 5.25 127.4 5.25 127.4 3.675 127.994286 5.025 128.291429 5.025 128.885714 3.675 128.885714 5.25 129.331429 5.25 129.331429 3.075"></polygon>
                    <path d="M33.28,26.25 C33.0571429,26.025 32.76,25.8 32.3885714,25.65 C32.0914286,25.5 31.72,25.425 31.3485714,25.425 C31.0514286,25.425 30.8285714,25.425 30.6057143,25.5 C30.3828571,25.575 30.16,25.65 30.0114286,25.8 C29.8628571,25.875 29.7142857,26.025 29.5657143,26.175 C29.5657143,26.175 29.4914286,26.25 29.4914286,26.25 L29.4914286,24.075 L28.6,24.075 L28.6,30.75 L29.4914286,30.75 L29.4914286,30 C29.4914286,30 29.5657143,30.075 29.5657143,30.075 C29.7142857,30.225 29.8628571,30.375 30.0114286,30.45 C30.16,30.6 30.3828571,30.675 30.6057143,30.75 C30.8285714,30.825 31.0514286,30.825 31.3485714,30.825 C31.72,30.825 32.0914286,30.75 32.3885714,30.6 C32.6857143,30.45 32.9828571,30.225 33.28,30 C33.5028571,29.775 33.7257143,29.475 33.8742857,29.1 C34.0228571,28.8 34.0971429,28.425 34.0971429,28.05 C34.0971429,27.675 34.0228571,27.3 33.8742857,27 C33.7257143,26.85 33.5028571,26.55 33.28,26.25 M33.2057143,28.2 C33.2057143,28.5 33.1314286,28.725 33.0571429,28.95 C32.9828571,29.175 32.8342857,29.4 32.6857143,29.55 C32.5371429,29.7 32.3142857,29.85 32.0914286,29.925 C31.6457143,30.15 31.0514286,30.15 30.6057143,29.925 C30.3828571,29.85 30.16,29.7 30.0114286,29.55 C29.8628571,29.4 29.7142857,29.175 29.64,28.95 C29.5657143,28.725 29.4914286,28.5 29.4914286,28.2 C29.4914286,27.975 29.5657143,27.675 29.64,27.45 C29.7142857,27.225 29.8628571,27 30.0114286,26.85 C30.16,26.7 30.3828571,26.55 30.6057143,26.475 C30.8285714,26.4 31.0514286,26.325 31.3485714,26.325 C31.5714286,26.325 31.8685714,26.4 32.0914286,26.475 C32.3142857,26.55 32.5371429,26.7 32.6857143,26.85 C32.8342857,27 32.9828571,27.225 33.0571429,27.45 C33.2057143,27.75 33.2057143,27.975 33.2057143,28.2" id="Shape" fill-rule="nonzero"></path>
                    <polygon id="Shape" fill-rule="nonzero" points="36.8457143 29.55 35.2857143 25.65 34.32 25.65 36.4 30.675 35.7314286 32.325 36.6228571 32.325 39.4457143 25.65 38.48 25.65"></polygon>
                    <path d="M44.8685714,27.975 L46.8,27.975 L46.8,29.4 C46.5771429,29.625 46.28,29.775 45.9828571,29.925 C45.3885714,30.225 44.5714286,30.225 43.9771429,29.925 C43.68,29.775 43.3828571,29.625 43.16,29.4 C42.9371429,29.175 42.7142857,28.875 42.64,28.575 C42.4914286,28.275 42.4171429,27.9 42.4171429,27.525 C42.4171429,27.15 42.4914286,26.85 42.64,26.475 C42.7885714,26.175 42.9371429,25.875 43.16,25.65 C43.3828571,25.425 43.68,25.2 43.9771429,25.125 C44.5714286,24.825 45.3885714,24.825 45.9828571,25.125 C46.28,25.275 46.5771429,25.425 46.8,25.725 L46.8742857,25.8 L47.4685714,25.2 L47.3942857,25.125 C47.0971429,24.825 46.7257143,24.525 46.28,24.375 C45.4628571,24 44.4228571,24 43.6057143,24.375 C43.16,24.525 42.7885714,24.825 42.4914286,25.125 C42.1942857,25.425 41.8971429,25.8 41.7485714,26.25 C41.6,26.7 41.4514286,27.15 41.4514286,27.6 C41.4514286,28.05 41.5257143,28.5 41.7485714,28.95 C41.8971429,29.4 42.1942857,29.775 42.4914286,30.075 C42.7885714,30.375 43.16,30.675 43.6057143,30.825 C44.0514286,30.975 44.4971429,31.125 44.9428571,31.125 C45.4628571,31.125 45.9828571,31.05 46.4285714,30.825 C46.8742857,30.6 47.2457143,30.3 47.6171429,29.925 L47.6171429,29.85 L47.6171429,27.15 L44.7942857,27.15 L44.7942857,27.975 L44.8685714,27.975 Z" id="Shape" fill-rule="nonzero"></path>
                    <rect id="Rectangle-path" fill-rule="nonzero" x="48.7314286" y="24.15" width="1" height="6.675"></rect>
                    <path d="M55.2685714,26.25 C55.0457143,26.025 54.7485714,25.8 54.3771429,25.65 C53.7085714,25.35 52.8914286,25.35 52.2228571,25.65 C51.9257143,25.8 51.6285714,26.025 51.3314286,26.25 C51.1085714,26.475 50.8857143,26.775 50.7371429,27.15 C50.5885714,27.45 50.5142857,27.825 50.5142857,28.2 C50.5142857,28.575 50.5885714,28.95 50.7371429,29.25 C50.8857143,29.55 51.1085714,29.85 51.3314286,30.15 C51.5542857,30.375 51.8514286,30.6 52.2228571,30.75 C52.52,30.9 52.8914286,30.975 53.2628571,30.975 C53.6342857,30.975 54.0057143,30.9 54.3028571,30.75 C54.6,30.6 54.8971429,30.375 55.1942857,30.15 C55.4171429,29.925 55.64,29.625 55.7885714,29.25 C55.9371429,28.95 56.0114286,28.575 56.0114286,28.2 C56.0114286,27.825 55.9371429,27.45 55.7885714,27.15 C55.7142857,26.85 55.4914286,26.55 55.2685714,26.25 M55.1942857,28.2 C55.1942857,28.5 55.12,28.725 55.0457143,28.95 C54.9714286,29.175 54.8228571,29.4 54.6742857,29.55 C54.5257143,29.7 54.3028571,29.85 54.08,29.925 C53.6342857,30.15 53.04,30.15 52.5942857,29.925 C52.3714286,29.85 52.1485714,29.7 52,29.55 C51.8514286,29.4 51.7028571,29.175 51.6285714,28.95 C51.5542857,28.725 51.48,28.5 51.48,28.2 C51.48,27.975 51.5542857,27.675 51.6285714,27.45 C51.7028571,27.225 51.8514286,27 52,26.85 C52.1485714,26.7 52.3714286,26.55 52.5942857,26.475 C52.8171429,26.4 53.04,26.325 53.3371429,26.325 C53.6342857,26.325 53.8571429,26.4 54.08,26.475 C54.3028571,26.55 54.5257143,26.7 54.6742857,26.85 C54.8228571,27 54.9714286,27.225 55.0457143,27.45 C55.1942857,27.75 55.1942857,27.975 55.1942857,28.2" id="Shape" fill-rule="nonzero"></path>
                    <path d="M61.6571429,26.25 C61.4342857,26.025 61.1371429,25.8 60.7657143,25.65 C60.4685714,25.5 60.0971429,25.425 59.7257143,25.425 C59.4285714,25.425 59.2057143,25.425 58.9828571,25.5 C58.76,25.575 58.5371429,25.65 58.3885714,25.8 C58.24,25.875 58.0914286,26.025 57.9428571,26.175 C57.9428571,26.175 57.8685714,26.25 57.8685714,26.25 L57.8685714,24.075 L56.9771429,24.075 L56.9771429,30.75 L57.8685714,30.75 L57.8685714,30 C57.8685714,30 57.9428571,30.075 57.9428571,30.075 C58.0914286,30.225 58.24,30.375 58.3885714,30.45 C58.5371429,30.6 58.76,30.675 58.9828571,30.75 C59.2057143,30.825 59.4285714,30.825 59.7257143,30.825 C60.0971429,30.825 60.4685714,30.75 60.7657143,30.6 C61.0628571,30.45 61.36,30.225 61.6571429,30 C61.88,29.775 62.1028571,29.475 62.2514286,29.1 C62.4,28.8 62.4742857,28.425 62.4742857,28.05 C62.4742857,27.675 62.4,27.3 62.2514286,27 C62.1028571,26.85 61.9542857,26.55 61.6571429,26.25 M61.6571429,28.2 C61.6571429,28.5 61.5828571,28.725 61.5085714,28.95 C61.4342857,29.175 61.2857143,29.4 61.1371429,29.55 C60.9885714,29.7 60.7657143,29.85 60.5428571,29.925 C60.0971429,30.15 59.5028571,30.15 59.0571429,29.925 C58.8342857,29.85 58.6114286,29.7 58.4628571,29.55 C58.3142857,29.4 58.1657143,29.175 58.0914286,28.95 C58.0171429,28.725 57.9428571,28.5 57.9428571,28.2 C57.9428571,27.975 58.0171429,27.675 58.0914286,27.45 C58.1657143,27.225 58.3142857,27 58.4628571,26.85 C58.6114286,26.7 58.8342857,26.55 59.0571429,26.475 C59.28,26.4 59.5028571,26.325 59.8,26.325 C60.0228571,26.325 60.32,26.4 60.5428571,26.475 C60.7657143,26.55 60.9885714,26.7 61.1371429,26.85 C61.2857143,27 61.4342857,27.225 61.5085714,27.45 C61.5828571,27.75 61.6571429,27.975 61.6571429,28.2" id="Shape" fill-rule="nonzero"></path>
                    <path d="M67.7485714,26.325 C67.7485714,26.325 67.6742857,26.25 67.6742857,26.25 C67.5257143,26.1 67.3771429,25.95 67.2285714,25.875 C67.08,25.8 66.8571429,25.65 66.6342857,25.575 C66.4114286,25.5 66.1885714,25.5 65.8914286,25.5 C65.52,25.5 65.1485714,25.575 64.8514286,25.725 C64.5542857,25.875 64.2571429,26.1 63.96,26.325 C63.7371429,26.55 63.5142857,26.85 63.3657143,27.225 C63.2171429,27.525 63.1428571,27.9 63.1428571,28.275 C63.1428571,28.65 63.2171429,29.025 63.3657143,29.325 C63.5142857,29.625 63.7371429,29.925 63.96,30.225 C64.1828571,30.45 64.48,30.675 64.8514286,30.825 C65.1485714,30.975 65.52,31.05 65.8914286,31.05 C66.1885714,31.05 66.4114286,31.05 66.6342857,30.975 C66.8571429,30.9 67.08,30.825 67.2285714,30.675 C67.3771429,30.525 67.5257143,30.45 67.6742857,30.3 C67.6742857,30.3 67.7485714,30.225 67.7485714,30.225 L67.7485714,30.975 L68.64,30.975 L68.64,25.725 L67.7485714,25.725 L67.7485714,26.325 Z M67.2285714,26.925 C67.3771429,27.075 67.5257143,27.3 67.6,27.525 C67.6742857,27.75 67.7485714,27.975 67.7485714,28.275 C67.7485714,28.575 67.6742857,28.8 67.6,29.025 C67.5257143,29.25 67.3771429,29.475 67.2285714,29.625 C67.08,29.775 66.8571429,29.925 66.6342857,30 C66.1885714,30.225 65.5942857,30.225 65.1485714,30 C64.9257143,29.925 64.7028571,29.775 64.5542857,29.625 C64.4057143,29.475 64.2571429,29.25 64.1828571,29.025 C64.1085714,28.8 64.0342857,28.575 64.0342857,28.275 C64.0342857,28.05 64.1085714,27.75 64.1828571,27.525 C64.2571429,27.3 64.4057143,27.075 64.5542857,26.925 C64.7028571,26.775 64.9257143,26.625 65.1485714,26.55 C65.3714286,26.475 65.5942857,26.4 65.8914286,26.4 C66.1142857,26.4 66.4114286,26.475 66.6342857,26.55 C66.8571429,26.55 67.08,26.7 67.2285714,26.925 Z" id="Shape" fill-rule="nonzero"></path>
                    <rect id="Rectangle-path" fill-rule="nonzero" x="69.7542857" y="24.15" width="1" height="6.675"></rect>
                    <polygon id="Shape" fill-rule="nonzero" points="73.5428571 30.825 78.4457143 30.825 78.4457143 30 74.4342857 30 74.4342857 27.975 77.8514286 27.975 77.8514286 27.075 74.4342857 27.075 74.4342857 25.05 78.4457143 25.05 78.4457143 24.15 73.5428571 24.15"></polygon>
                    <path d="M83.5714286,26.325 C83.5714286,26.325 83.4971429,26.25 83.4971429,26.25 C83.3485714,26.1 83.2,25.95 83.0514286,25.875 C82.9028571,25.8 82.68,25.65 82.4571429,25.575 C82.2342857,25.5 82.0114286,25.5 81.7142857,25.5 C81.3428571,25.5 80.9714286,25.575 80.6742857,25.725 C80.3771429,25.875 80.08,26.1 79.7828571,26.325 C79.56,26.55 79.3371429,26.85 79.1885714,27.225 C79.04,27.525 78.9657143,27.9 78.9657143,28.275 C78.9657143,28.65 79.04,29.025 79.1885714,29.325 C79.3371429,29.625 79.56,29.925 79.7828571,30.225 C80.0057143,30.45 80.3028571,30.675 80.6742857,30.825 C80.9714286,30.975 81.3428571,31.05 81.7142857,31.05 C82.0114286,31.05 82.2342857,31.05 82.4571429,30.975 C82.68,30.9 82.9028571,30.825 83.0514286,30.675 C83.2,30.525 83.3485714,30.45 83.4971429,30.3 C83.4971429,30.3 83.5714286,30.225 83.5714286,30.225 L83.5714286,30.975 L84.4628571,30.975 L84.4628571,25.725 L83.5714286,25.725 L83.5714286,26.325 Z M83.0514286,26.925 C83.2,27.075 83.3485714,27.3 83.4228571,27.525 C83.4971429,27.75 83.5714286,27.975 83.5714286,28.275 C83.5714286,28.575 83.4971429,28.8 83.4228571,29.025 C83.3485714,29.25 83.2,29.475 83.0514286,29.625 C82.9028571,29.775 82.68,29.925 82.4571429,30 C82.0114286,30.225 81.4171429,30.225 80.9714286,30 C80.7485714,29.925 80.5257143,29.775 80.3771429,29.625 C80.2285714,29.475 80.08,29.25 80.0057143,29.025 C79.9314286,28.8 79.8571429,28.575 79.8571429,28.275 C79.8571429,28.05 79.9314286,27.75 80.0057143,27.525 C80.08,27.3 80.2285714,27.075 80.3771429,26.925 C80.5257143,26.775 80.7485714,26.625 80.9714286,26.55 C81.1942857,26.475 81.4171429,26.4 81.7142857,26.4 C81.9371429,26.4 82.2342857,26.475 82.4571429,26.55 C82.68,26.55 82.9028571,26.7 83.0514286,26.925 Z" id="Shape" fill-rule="nonzero"></path>
                    <rect id="Rectangle-path" fill-rule="nonzero" x="92.04" y="24.15" width="1" height="6.675"></rect>
                    <path d="M89.96,28.95 C89.8857143,29.175 89.7371429,29.4 89.5885714,29.55 C89.44,29.7 89.2171429,29.85 88.9942857,29.925 C88.7714286,30 88.5485714,30.075 88.2514286,30.075 C87.9542857,30.075 87.7314286,30 87.5085714,29.925 C87.2857143,29.85 87.0628571,29.7 86.9142857,29.55 C86.7657143,29.4 86.6171429,29.175 86.5428571,28.95 C86.4685714,28.725 86.3942857,28.5 86.3942857,28.2 C86.3942857,27.9 86.4685714,27.675 86.5428571,27.45 C86.6171429,27.225 86.7657143,27 86.9142857,26.85 C87.0628571,26.7 87.2857143,26.55 87.5085714,26.475 C87.9542857,26.25 88.5485714,26.25 88.9942857,26.475 C89.2171429,26.55 89.44,26.7 89.5885714,26.85 C89.7371429,27 89.8857143,27.225 89.96,27.45 C90.0342857,27.675 90.1085714,27.9 90.1085714,28.2 C90.1085714,28.5 90.0342857,28.725 89.96,28.95 Z M90.1085714,25.65 L90.1085714,26.4 C90.1085714,26.4 90.0342857,26.325 90.0342857,26.325 C89.8857143,26.175 89.7371429,26.025 89.5885714,25.95 C89.44,25.8 89.2171429,25.725 88.9942857,25.65 C88.7714286,25.575 88.5485714,25.575 88.2514286,25.575 C87.88,25.575 87.5085714,25.65 87.2114286,25.8 C86.9142857,25.95 86.6171429,26.175 86.32,26.4 C86.0971429,26.625 85.8742857,26.925 85.7257143,27.3 C85.5771429,27.6 85.5028571,27.975 85.5028571,28.35 C85.5028571,28.725 85.5771429,29.1 85.7257143,29.4 C85.8742857,29.7 86.0971429,30 86.32,30.3 C86.5428571,30.525 86.84,30.75 87.2114286,30.9 C87.5085714,31.05 87.88,31.125 88.2514286,31.125 C88.5485714,31.125 88.7714286,31.125 88.9942857,31.05 C89.2171429,30.975 89.44,30.9 89.5885714,30.75 C89.7371429,30.675 89.8857143,30.525 90.0342857,30.375 C90.0342857,30.375 90.1085714,30.3 90.1085714,30.3 C90.0342857,30.6 89.96,30.75 89.96,30.825 C89.8857143,31.05 89.7371429,31.275 89.5142857,31.425 C89.3657143,31.575 89.1428571,31.725 88.92,31.8 C88.4,32.025 87.8057143,31.95 87.36,31.8 C87.0628571,31.725 86.84,31.65 86.6171429,31.5 L86.4685714,31.425 L86.0228571,32.175 L86.1714286,32.25 C86.4685714,32.4 86.84,32.55 87.1371429,32.7 C87.5085714,32.775 87.88,32.85 88.2514286,32.85 C88.6228571,32.85 88.9942857,32.775 89.2914286,32.625 C89.5885714,32.475 89.8857143,32.25 90.1828571,32.025 C90.4057143,31.8 90.6285714,31.5 90.7771429,31.125 C90.9257143,30.825 91,30.45 91,30.075 L91,25.8 L90.1085714,25.8 L90.1085714,25.65 Z" id="Shape" fill-rule="nonzero"></path>
                    <path d="M94.7885714,27.825 C94.8628571,27.675 94.8628571,27.525 94.9371429,27.375 C95.0114286,27.15 95.16,27 95.3085714,26.85 C95.4571429,26.7 95.68,26.625 95.9028571,26.475 C96.3485714,26.325 96.7942857,26.325 97.24,26.475 C97.4628571,26.55 97.6114286,26.7 97.8342857,26.85 C97.9828571,27 98.1314286,27.15 98.28,27.375 C98.3542857,27.525 98.4285714,27.675 98.4285714,27.825 L94.7885714,27.825 Z M99.1714286,27.15 C99.0228571,26.85 98.8,26.55 98.5771429,26.25 C98.3542857,26.025 98.0571429,25.8 97.6857143,25.65 C97.0171429,25.35 96.2,25.35 95.5314286,25.65 C95.2342857,25.8 94.9371429,26.025 94.64,26.25 C94.4171429,26.475 94.1942857,26.775 94.0457143,27.15 C93.8971429,27.45 93.8228571,27.825 93.8228571,28.2 C93.8228571,28.575 93.8971429,28.95 94.0457143,29.25 C94.1942857,29.55 94.4171429,29.85 94.64,30.15 C94.8628571,30.375 95.16,30.6 95.5314286,30.75 C95.8285714,30.9 96.2,30.975 96.5714286,30.975 C97.0914286,30.975 97.5371429,30.825 97.9828571,30.6 C98.3542857,30.375 98.6514286,30 98.9485714,29.625 L98.2057143,29.175 C98.0571429,29.475 97.8342857,29.625 97.6114286,29.85 C97.3142857,30 97.0171429,30.15 96.6457143,30.15 C96.4228571,30.15 96.2,30.075 95.9771429,30 C95.7542857,29.925 95.6057143,29.775 95.3828571,29.625 C95.2342857,29.475 95.0857143,29.325 95.0114286,29.1 C94.9371429,28.95 94.8628571,28.8 94.8628571,28.65 L99.3942857,28.65 L99.3942857,28.5 C99.3942857,28.425 99.3942857,28.275 99.3942857,28.2 C99.3942857,27.825 99.32,27.525 99.1714286,27.15 Z" id="Shape" fill-rule="nonzero"></path>
                </g>
            </g>
        </g>
    </g>
</svg>