<?xml version="1.0" encoding="UTF-8"?>
<svg width="135px" height="25px" viewBox="0 0 135 25" version="1.1" xmlns="http://www.w3.org/2000/svg" xmlns:xlink="http://www.w3.org/1999/xlink">
    <!-- Generator: Sketch 51.2 (57519) - http://www.bohemiancoding.com/sketch -->
    <title>promax-logo</title>
    <desc>Created with Sketch.</desc>
    <defs></defs>
    <g id="Page-1" stroke="none" stroke-width="1" fill="none" fill-rule="evenodd" opacity="0.85">
        <g id="Contact" transform="translate(-1033.000000, -1723.000000)" fill="#FFFFFF">
            <g id="promax" transform="translate(1033.000000, 1723.000000)">
                <g>
                    <g id="Group" transform="translate(41.921053, 6.428571)" fill-rule="nonzero">
                        <path d="M11.2973684,1.21428571 C11.0131579,1 10.6578947,0.785714286 10.1605263,0.785714286 C10.0184211,0.785714286 9.87631579,0.785714286 9.59210526,0.785714286 C9.02368421,0.785714286 8.17105263,0.714285714 7.03421053,0.714285714 L0,0.714285714 L0,11.5714286 L0.213157895,12.0714286 L2.13157895,12.0714286 L2.13157895,8.07142857 L9.09473684,8.07142857 C9.37894737,8 9.59210526,8 9.80526316,8 C10.1605263,8 10.3736842,7.92857143 10.5868421,7.85714286 C10.8710526,7.78571429 11.2263158,7.64285714 11.5105263,7.35714286 C11.9368421,7.07142857 12.15,6.5 12.2210526,6.21428571 C12.2921053,5.71428571 12.4342105,5.14285714 12.4342105,4.42857143 C12.4342105,3.64285714 12.2921053,2.85714286 12.0078947,2.14285714 C11.7947368,1.78571429 11.5815789,1.42857143 11.2973684,1.21428571 Z M1.98947368,2.42857143 L6.89210526,2.42857143 C7.81578947,2.42857143 8.45526316,2.5 8.88157895,2.5 C9.09473684,2.5 9.23684211,2.5 9.30789474,2.5 C9.52105263,2.5 9.66315789,2.57142857 9.80526316,2.64285714 L10.0894737,3.14285714 C10.1605263,3.28571429 10.1605263,3.71428571 10.1605263,4.14285714 C10.1605263,4.57142857 10.1605263,4.85714286 10.0894737,5.07142857 L10.0894737,5.14285714 C10.0894737,5.35714286 10.0184211,5.42857143 9.94736842,5.42857143 L9.94736842,5.64285714 C9.80526316,5.78571429 9.59210526,5.85714286 9.37894737,5.85714286 L9.30789474,5.85714286 C9.09473684,5.92857143 8.1,5.92857143 7.03421053,5.92857143 L1.98947368,5.92857143 L1.98947368,2.42857143 Z" id="Shape"></path>
                        <path d="M83.4157895,6.07142857 L89.1710526,0.642857143 L86.1868421,0.642857143 L81.6394737,5 L77.1631579,0.714285714 L75.0315789,0.714285714 L75.0315789,1.14285714 L74.8894737,1.28571429 L79.8631579,6.14285714 L74.1789474,11.5714286 L68.2105263,0.714285714 L65.5815789,0.714285714 L59.1868421,11.8571429 L61.5315789,11.8571429 L62.7394737,9.64285714 L70.8394737,9.64285714 L72.0473684,11.8571429 L73.8236842,11.8571429 L73.7526316,11.9285714 L76.7368421,11.9285714 L81.5684211,7.14285714 L86.4710526,11.9285714 L89.3842105,11.9285714 L83.4157895,6.07142857 Z M66.9315789,2.57142857 L69.8447368,7.78571429 L63.7342105,7.78571429 L66.7184211,2.57142857 L66.9315789,2.57142857 Z" id="Shape"></path>
                        <polygon id="Shape" points="50.1631579 9.42857143 44.6210526 0.714285714 41.3526316 0.714285714 41.3526316 11.8571429 43.4131579 11.8571429 43.4131579 2.57142857 43.4842105 2.57142857 49.4526316 11.8571429 50.9447368 11.8571429 56.8421053 2.57142857 56.9131579 2.57142857 56.9131579 11.8571429 58.9736842 11.8571429 58.9736842 0.714285714 55.6342105 0.714285714"></polygon>
                        <path d="M40.0026316,2.5 C39.9315789,2.21428571 39.7184211,1.85714286 39.4342105,1.57142857 C39.0078947,1.28571429 38.5105263,0.928571429 37.6578947,0.857142857 C36.9473684,0.785714286 35.7394737,0.642857143 33.8210526,0.642857143 C31.5473684,0.642857143 29.9842105,0.714285714 29.1315789,0.857142857 C28.0657895,1 27.2842105,1.57142857 27,2.5 C26.7157895,3.14285714 26.5736842,4.28571429 26.5736842,6.14285714 C26.5736842,7.92857143 26.7157895,8.92857143 26.7868421,9.28571429 C26.9289474,9.85714286 27.1421053,10.5 27.4973684,10.7857143 C27.7105263,11.0714286 27.9947368,11.3571429 28.35,11.5 C28.6342105,11.6428571 28.9184211,11.7142857 29.2736842,11.7142857 C29.4157895,11.7142857 29.5578947,11.7857143 29.7710526,11.7857143 C29.8421053,11.7857143 29.9842105,11.7857143 30.1973684,11.7857143 C30.5526316,11.7857143 31.05,11.8571429 31.6894737,11.8571429 L34.3894737,11.8571429 C35.9526316,11.8571429 37.2315789,11.7857143 37.8710526,11.6428571 C38.5815789,11.5714286 39.2210526,11.2857143 39.5052632,10.9285714 C39.9315789,10.6428571 40.2157895,10.0714286 40.2868421,9.28571429 C40.4289474,8.35714286 40.5,7.35714286 40.5,6.28571429 C40.5,5.28571429 40.5,4.42857143 40.4289474,3.71428571 C40.2157895,3.28571429 40.0736842,2.85714286 40.0026316,2.5 Z M32.6842105,2.57142857 L32.6842105,2.64285714 L35.9526316,2.64285714 C36.3789474,2.64285714 36.8763158,2.64285714 37.2315789,2.71428571 C38.0131579,2.78571429 38.1552632,3.21428571 38.2263158,3.5 C38.2973684,4 38.4394737,4.92857143 38.4394737,6.42857143 C38.4394737,7.57142857 38.3684211,8.42857143 38.2263158,9.07142857 C38.1552632,9.5 37.8710526,9.78571429 37.4447368,9.85714286 C36.8763158,9.92857143 35.6684211,10.0714286 33.75,10.0714286 C32.5421053,10.0714286 31.4763158,10.0714286 30.6236842,10 C30.4105263,9.92857143 30.1973684,9.92857143 29.9842105,9.92857143 C29.7710526,9.92857143 29.5578947,9.85714286 29.4157895,9.85714286 L29.3447368,9.85714286 C29.1315789,9.85714286 29.0605263,9.78571429 29.0605263,9.71428571 L28.9894737,9.64285714 C28.8473684,9.5 28.7763158,9.28571429 28.7052632,8.78571429 C28.6342105,8.21428571 28.6342105,7.35714286 28.6342105,6.28571429 C28.6342105,5.14285714 28.7052632,4.28571429 28.8473684,3.78571429 C28.9184211,3.42857143 28.9894737,3.28571429 29.1315789,3.14285714 C29.2736842,3 29.4868421,2.92857143 29.8421053,2.85714286 C30.5526316,2.64285714 31.6184211,2.57142857 32.6842105,2.57142857 Z" id="Shape"></path>
                        <path d="M23.3763158,0.785714286 C23.2342105,0.785714286 22.95,0.785714286 22.6657895,0.785714286 C22.0973684,0.714285714 21.1736842,0.714285714 19.9657895,0.714285714 L13.0736842,0.714285714 L13.0736842,11.5714286 L13.2868421,11.5714286 L13.2868421,11.8571429 L15.0631579,11.8571429 L15.0631579,7.85714286 L22.0263158,7.85714286 C22.0973684,7.85714286 22.1684211,7.85714286 22.2394737,7.85714286 C22.3815789,7.85714286 22.5236842,7.92857143 22.6657895,7.92857143 C23.1631579,8 23.4473684,8.28571429 23.5184211,8.85714286 C23.5894737,9.21428571 23.5894737,9.78571429 23.5894737,10.5714286 L23.5894737,11.9285714 L25.5789474,11.9285714 L25.5789474,10.0714286 C25.5789474,9.07142857 25.5789474,8.5 25.4368421,8.14285714 C25.3657895,7.85714286 25.2236842,7.5 25.0105263,7.28571429 C24.9394737,7.21428571 24.7973684,7.07142857 24.5842105,7 C24.7973684,6.85714286 25.0105263,6.71428571 25.1526316,6.57142857 C25.3657895,6.35714286 25.5078947,6 25.65,5.64285714 C25.7210526,5.21428571 25.7210526,4.71428571 25.7210526,4.14285714 C25.7210526,3.28571429 25.65,2.64285714 25.3657895,2.07142857 C25.0105263,1.28571429 24.3710526,0.857142857 23.3763158,0.785714286 Z M23.3763158,5.64285714 C23.0921053,5.78571429 22.8789474,5.85714286 22.5947368,5.85714286 L22.5236842,5.85714286 C22.1684211,5.92857143 21.1736842,5.92857143 19.9657895,5.92857143 L15.2052632,5.92857143 L15.2052632,2.5 L20.0368421,2.5 C20.8184211,2.5 21.3868421,2.5 21.8842105,2.57142857 C22.1684211,2.57142857 22.4526316,2.57142857 22.5947368,2.57142857 C23.0921053,2.57142857 23.3052632,2.64285714 23.4473684,2.78571429 C23.5894737,2.85714286 23.8026316,3.28571429 23.8026316,4.07142857 C23.8026316,5 23.6605263,5.5 23.3763158,5.64285714 Z" id="Shape"></path>
                    </g>
                    <path d="M22.5236842,3 L22.3105263,3.21428571 L22.1684211,3.07142857 L3.12631579,22.2142857 L3.48157895,22.7142857 L22.4526316,16.3571429 L41.4236842,22.7142857 L41.7789474,22.2142857 L22.5236842,3 Z M22.0263158,15.4285714 L7.24736842,20.3571429 L22.0263158,10.3571429 L22.0263158,15.4285714 Z M22.6657895,9.64285714 L22.6657895,4.92857143 L37.1605263,19.5 L22.6657895,9.64285714 Z" id="Shape" fill-rule="nonzero"></path>
                    <path d="M0.568421053,0.5 L0.568421053,24.7142857 L134.502632,24.7142857 L134.502632,0.5 L0.568421053,0.5 Z M2.62894737,22.5 L2.62894737,2.5 L132.513158,2.5 L132.513158,22.5 L2.62894737,22.5 Z" id="Shape" fill-rule="nonzero"></path>
                </g>
            </g>
        </g>
    </g>
</svg>