<?xml version="1.0" encoding="UTF-8"?>
<svg width="79px" height="49px" viewBox="0 0 79 49" version="1.1" xmlns="http://www.w3.org/2000/svg" xmlns:xlink="http://www.w3.org/1999/xlink">
    <!-- Generator: Sketch 51.2 (57519) - http://www.bohemiancoding.com/sketch -->
    <title>sky-logo</title>
    <desc>Created with Sketch.</desc>
    <defs></defs>
    <g id="Page-1" stroke="none" stroke-width="1" fill="none" fill-rule="evenodd" opacity="0.85">
        <g id="Contact" transform="translate(-681.000000, -1712.000000)" fill="#FFFFFF">
            <g id="sky" transform="translate(681.000000, 1712.000000)">
                <g>
                    <g id="SVGID_1_-link" fill-rule="nonzero">
                        <path d="M9.22135231,10.0549133 C3.14875445,10.7346821 0.056227758,14.416763 0.056227758,18.8069364 C0.056227758,22.4323699 2.67081851,25.8312139 7.56263345,26.7942197 L13.466548,27.9271676 C15.6313167,28.3520231 16.727758,28.833526 16.727758,30.0231214 C16.727758,30.9294798 15.8843416,31.8641618 13.1010676,31.8641618 C10.5989324,31.8641618 7.19715302,31.4959538 5.06049822,31.4959538 C2.98007117,31.4959538 0.787188612,32.4306358 0.787188612,36.5375723 C0.787188612,37.0473988 0.871530249,37.6705202 0.983985765,38.1803468 C4.07651246,38.5485549 10.5708185,39.1150289 15.0690391,38.633526 C21.2822064,37.9537572 24.3185053,34.5265896 24.3185053,29.8248555 C24.3185053,25.7745665 21.844484,22.4606936 16.0530249,21.3843931 L10.4302491,20.3364162 C8.63096085,20.0248555 7.50640569,19.6 7.50640569,18.5803468 C7.50640569,17.617341 8.68718861,16.8242775 11.5548043,16.8242775 C14.3661922,16.8242775 16.8402135,17.1075145 18.4145907,17.1075145 C20.4950178,17.1075145 22.6316726,16.2294798 22.6316726,12.1225434 C22.6316726,11.5843931 22.5754448,11.0745665 22.4629893,10.5364162 C20.2701068,10.2531792 16.7558719,9.8849711 13.241637,9.8849711 C11.8921708,9.8566474 10.5145907,9.9132948 9.22135231,10.0549133 Z M44.1669039,13.2554913 L34.7768683,23.6219653 L42.3395018,35.6312139 C43.7451957,37.8121387 45.5725979,38.9450867 48.552669,38.9450867 C50.5206406,38.9450867 52.1512456,38.4919075 52.9103203,38.1236994 L43.8014235,24.3017341 L50.2676157,17.3907514 L60.866548,34.1300578 L54.4003559,47.8387283 C55.0469751,48.1786127 56.3683274,48.5751445 58.0270463,48.6034682 C60.866548,48.6601156 62.4128114,47.583815 63.5654804,45.0063584 L78.7469751,10.7630058 C78.1284698,10.4231214 76.7227758,10.0549133 75.5982206,10.0265896 C73.6302491,9.9982659 71.0156584,10.3947977 69.3288256,14.416763 L64.4088968,26.1427746 L54.7377224,10.2815029 C54.1192171,10.083237 52.5729537,9.8283237 51.4765125,9.8283237 C48.0466192,9.8283237 46.1348754,11.0745665 44.1669039,13.2554913 Z M32.5558719,0.0566473988 C27.6359431,0.0566473988 26.7644128,2.71907514 26.7644128,5.26820809 L26.7644128,38.7468208 C27.2985765,38.8317919 27.8608541,38.8601156 28.5074733,38.8601156 C33.3992883,38.8601156 34.383274,37.4156069 34.383274,34.8947977 L34.383274,0.226589595 C33.8209964,0.113294798 33.1743772,0.0566473988 32.5558719,0.0566473988 Z" id="SVGID_1_"></path>
                    </g>
                    <path d="M20.3263345,36.3676301 C19.286121,37.0473988 17.7960854,37.8121387 13.8882562,38.067052 C13.241637,38.1236994 11.16121,38.0953757 9.67117438,38.0953757 C8.71530249,38.0953757 6.43807829,37.9820809 4.83558719,37.8687861 C4.49822064,37.8404624 2.36156584,37.6705202 2.22099644,37.6421965 C1.7430605,37.6138728 1.32135231,37.8971098 1.26512456,38.350289 C1.26512456,38.350289 1.46192171,38.4069364 1.65871886,38.4352601 C2.98007117,38.7751445 9.24946619,39.0017341 9.67117438,39.0300578 C18.3864769,39.2566474 20.43879,37.2739884 20.8886121,36.9907514 C24.2060498,34.866474 24.402847,31.5242775 24.3466192,31.2127168 C24.1498221,32.2040462 23.1096085,34.583237 20.3263345,36.3676301 Z M34.4676157,34.0734104 C34.4113879,34.583237 34.1864769,35.7728324 33.7366548,36.4526012 C33.1462633,37.3589595 32.6402135,37.6138728 31.6843416,37.9254335 C30.9814947,38.1520231 30.1099644,38.1803468 28.0857651,38.1803468 C27.411032,38.1803468 27.1017794,38.350289 26.96121,39.0017341 C29.4071174,39.1716763 30.8690391,39.1716763 32.527758,38.5768786 C33.6523132,38.1803468 34.158363,37.1323699 34.2145907,37.0190751 C34.6644128,36.1127168 34.6362989,34.5265896 34.5800712,34.1867052 L34.4676157,34.0734104 Z M51.4483986,37.9820809 C50.3800712,38.3786127 48.2153025,38.4069364 47.7654804,38.3219653 C43.2672598,37.6705202 41.8896797,34.8098266 41.0181495,33.9034682 C41.2149466,34.5549133 41.6928826,35.7728324 43.2953737,37.4439306 C44.8978648,39.1150289 47.0626335,39.2 47.9060498,39.2849711 C50.6893238,39.5682081 52.9946619,38.350289 52.9946619,38.350289 C52.9946619,38.350289 52.516726,37.5855491 51.4483986,37.9820809 Z M63.0875445,44.9780347 C62.5533808,45.8843931 61.4288256,47.300578 59.8263345,47.6687861 C58.7017794,47.9236994 57.155516,47.8104046 55.9185053,47.6121387 C54.6814947,47.4138728 54.597153,48.0086705 54.3160142,48.3768786 C57.2960854,49.3115607 59.7419929,48.7734104 60.2480427,48.6317919 C62.4690391,48.0086705 63.424911,46.082659 63.8466192,45.2046243 C64.2683274,44.3549133 65.6740214,40.4179191 65.6740214,40.4179191 C65.6740214,40.4179191 63.6217082,44.0716763 63.0875445,44.9780347 Z" id="Shape"></path>
                </g>
            </g>
        </g>
    </g>
</svg>