<?xml version="1.0" encoding="UTF-8"?>
<svg width="128px" height="31px" viewBox="0 0 128 31" version="1.1" xmlns="http://www.w3.org/2000/svg" xmlns:xlink="http://www.w3.org/1999/xlink">
    <!-- Generator: Sketch 51.2 (57519) - http://www.bohemiancoding.com/sketch -->
    <title>vodafone-logo</title>
    <desc>Created with Sketch.</desc>
    <defs></defs>
    <g id="Page-1" stroke="none" stroke-width="1" fill="none" fill-rule="evenodd" opacity="0.847433036">
        <g id="Contact" transform="translate(-464.000000, -1721.000000)" fill="#FFFFFF">
            <g id="vodafone" transform="translate(464.000000, 1721.000000)">
                <g id="Shape">
                    <path d="M31.8528736,15.572093 C31.8528736,24.0069767 24.8643678,30.927907 16.183908,30.927907 C7.50344828,30.927907 0.514942529,24.0790698 0.514942529,15.572093 C0.514942529,7.06511628 7.50344828,0.21627907 16.183908,0.21627907 C18.537931,0.21627907 20.8183908,0.720930233 22.8781609,1.65813953 C22.583908,1.58604651 22.216092,1.51395349 21.7747126,1.51395349 C18.537931,1.51395349 14.9333333,2.88372093 12.2850575,5.04651163 C9.56321839,7.20930233 7.50344828,10.8860465 7.50344828,14.7069767 C7.50344828,20.4744186 11.9908046,24.0790698 16.2574713,24.0790698 C21.554023,24.0790698 24.7172414,19.7534884 24.7172414,15.9325581 C24.7172414,12.0395349 22.5103448,9.22790698 17.8022989,8.0744186 C17.8022989,8.00232558 17.8022989,7.93023256 17.8022989,7.85813953 C17.8022989,4.90232558 20.0827586,2.30697674 22.8781609,1.73023256 C28.1747126,4.18139535 31.8528736,9.44418605 31.8528736,15.572093 Z" fill-rule="nonzero"></path>
                    <polygon fill-rule="nonzero" points="41.9310345 21.9162791 37.1494253 10.7418605 40.2390805 10.7418605 43.2551724 18.1674419 46.1241379 10.7418605 49.1402299 10.7418605 44.5057471 21.9162791"></polygon>
                    <path d="M60.3218391,16.2930233 C60.3218391,17.0139535 60.1747126,17.7348837 59.954023,18.455814 C59.7333333,19.1767442 59.3655172,19.8255814 58.9241379,20.3302326 C58.4827586,20.9069767 57.8942529,21.3395349 57.2321839,21.7 C56.5701149,22.0604651 55.7609195,22.2046512 54.8045977,22.2046512 C53.9218391,22.2046512 53.1126437,22.0604651 52.3770115,21.7 C51.7149425,21.3395349 51.1264368,20.9069767 50.6850575,20.3302326 C50.2436782,19.7534884 49.8758621,19.1767442 49.6551724,18.455814 C49.4344828,17.7348837 49.2873563,17.0139535 49.2873563,16.2930233 C49.2873563,15.572093 49.4344828,14.8511628 49.6551724,14.1302326 C49.8758621,13.4093023 50.2436782,12.8325581 50.6850575,12.255814 C51.1264368,11.6790698 51.7149425,11.2465116 52.3770115,10.9581395 C53.0390805,10.5976744 53.8482759,10.4534884 54.8045977,10.4534884 C55.6873563,10.4534884 56.4965517,10.5976744 57.1586207,10.9581395 C57.8206897,11.3186047 58.4091954,11.7511628 58.8505747,12.255814 C59.291954,12.8325581 59.6597701,13.4093023 59.8804598,14.1302326 C60.2482759,14.8511628 60.3218391,15.572093 60.3218391,16.2930233 M57.4528736,16.2930233 C57.4528736,15.8604651 57.3793103,15.355814 57.3057471,14.9953488 C57.1586207,14.5627907 57.0114943,14.2023256 56.7908046,13.9139535 C56.5701149,13.6255814 56.2758621,13.3372093 55.9816092,13.1930233 C55.6873563,13.0488372 55.3195402,12.9046512 54.8781609,12.9046512 C54.4367816,12.9046512 54.0689655,12.9767442 53.7747126,13.1930233 C53.4804598,13.3372093 53.1862069,13.6255814 52.9655172,13.9139535 C52.7448276,14.2023256 52.5977011,14.5627907 52.4505747,14.9953488 C52.3770115,15.427907 52.3034483,15.8604651 52.3034483,16.2930233 C52.3034483,16.7976744 52.3770115,17.2302326 52.4505747,17.6627907 C52.5241379,18.0953488 52.7448276,18.455814 52.9655172,18.744186 C53.1862069,19.0325581 53.4804598,19.3209302 53.7747126,19.4651163 C54.0689655,19.6093023 54.5103448,19.7534884 54.8781609,19.7534884 C55.3195402,19.7534884 55.6873563,19.6813953 55.9816092,19.4651163 C56.2758621,19.3209302 56.5701149,19.0325581 56.7908046,18.744186 C57.0114943,18.455814 57.1586207,18.0953488 57.3057471,17.6627907 C57.3793103,17.2302326 57.4528736,16.7976744 57.4528736,16.2930233" fill-rule="nonzero"></path>
                    <path d="M69.3701149,21.9162791 L69.2229885,21.0511628 C68.9287356,21.3395349 68.6344828,21.627907 68.1931034,21.844186 C67.7517241,22.0604651 67.2367816,22.2046512 66.6482759,22.2046512 C65.8390805,22.2046512 65.1770115,22.0604651 64.5885057,21.7 C64,21.3395349 63.4850575,20.9069767 63.0436782,20.4023256 C62.6022989,19.8255814 62.308046,19.2488372 62.0873563,18.527907 C61.8666667,17.8069767 61.7931034,17.0860465 61.7931034,16.2930233 C61.7931034,15.572093 61.8666667,14.8511628 62.0873563,14.1302326 C62.308046,13.4093023 62.6758621,12.8325581 63.1172414,12.255814 C63.5586207,11.6790698 64.1471264,11.2465116 64.8091954,10.9581395 C65.4712644,10.5976744 66.2804598,10.4534884 67.1632184,10.4534884 C67.7517241,10.4534884 68.4137931,10.5255814 69.0758621,10.7418605 L69.0758621,6.41627907 L72.0183908,6.41627907 L72.0183908,21.9162791 L69.3701149,21.9162791 Z M69.1494253,13.1930233 C68.5609195,12.9767442 68.045977,12.8325581 67.6045977,12.8325581 C67.0896552,12.8325581 66.6482759,12.9046512 66.2804598,13.1209302 C65.9126437,13.3372093 65.6183908,13.5534884 65.3977011,13.8418605 C65.1770115,14.1302326 64.9563218,14.4906977 64.8827586,14.9232558 C64.7356322,15.2837209 64.7356322,15.7162791 64.7356322,16.1488372 C64.7356322,16.5813953 64.8091954,17.0860465 64.8827586,17.5186047 C64.9563218,17.9511628 65.1770115,18.3116279 65.3241379,18.6 C65.5448276,18.8883721 65.8390805,19.1767442 66.1333333,19.3930233 C66.4275862,19.6093023 66.8689655,19.6813953 67.3103448,19.6813953 C67.6781609,19.6813953 68.045977,19.6093023 68.4137931,19.3930233 C68.7816092,19.1767442 69.0758621,18.9604651 69.2229885,18.672093 L69.2229885,13.1930233 L69.1494253,13.1930233 Z" fill-rule="nonzero"></path>
                    <path d="M80.5517241,21.9162791 L80.4045977,21.0511628 C80.1103448,21.4116279 79.6689655,21.7 79.2275862,21.844186 C78.7126437,22.0604651 78.1977011,22.1325581 77.6091954,22.1325581 C77.0942529,22.1325581 76.6528736,22.0604651 76.2114943,21.9162791 C75.7701149,21.772093 75.3287356,21.555814 75.0344828,21.1953488 C74.6666667,20.9069767 74.3724138,20.5465116 74.2252874,20.1139535 C74.0045977,19.6813953 73.9310345,19.1767442 73.9310345,18.6 C73.9310345,18.0232558 74.0045977,17.5186047 74.2988506,17.1581395 C74.5931034,16.7976744 74.8137931,16.3651163 75.1816092,16.0767442 C75.5494253,15.7883721 75.9908046,15.572093 76.5057471,15.355814 C77.0206897,15.1395349 77.5356322,14.9953488 78.0505747,14.9232558 C78.4183908,14.8511628 78.8597701,14.7790698 79.3011494,14.7790698 C79.7425287,14.7069767 80.1103448,14.7069767 80.4045977,14.7069767 L80.4045977,14.5627907 C80.4045977,13.9139535 80.2574713,13.4813953 79.8896552,13.2651163 C79.5954023,12.9767442 79.154023,12.9046512 78.5655172,12.9046512 C78.1977011,12.9046512 77.9034483,12.9767442 77.6091954,13.0488372 C77.3149425,13.1209302 77.0206897,13.1930233 76.8,13.3372093 C76.5793103,13.4813953 76.3586207,13.5534884 76.137931,13.6976744 C75.9172414,13.8418605 75.8436782,13.9139535 75.6965517,13.9860465 L74.7402299,11.9674419 C74.8873563,11.8232558 75.0344828,11.7511628 75.3287356,11.6069767 C75.6229885,11.4627907 75.9172414,11.3186047 76.2850575,11.1744186 C76.6528736,11.0302326 77.0942529,10.8860465 77.5356322,10.8139535 C77.9770115,10.7418605 78.491954,10.6697674 79.0068966,10.6697674 C79.6689655,10.6697674 80.183908,10.7418605 80.6988506,10.8860465 C81.2137931,11.0302326 81.6551724,11.3186047 82.0229885,11.6790698 C82.3908046,12.0395349 82.6850575,12.472093 82.9057471,12.9767442 C83.1264368,13.4813953 83.2,14.1302326 83.2,14.9232558 L83.2,22.1325581 L80.5517241,22.1325581 L80.5517241,21.9162791 Z M80.3310345,16.7255814 C80.0367816,16.7255814 79.6689655,16.7976744 79.3747126,16.7976744 C79.0068966,16.8697674 78.7126437,16.8697674 78.4183908,16.9418605 C77.7563218,17.0860465 77.3149425,17.3023256 77.0942529,17.5906977 C76.8735632,17.8790698 76.7264368,18.2395349 76.7264368,18.6 C76.7264368,18.9604651 76.8735632,19.2488372 77.1678161,19.4651163 C77.462069,19.6813953 77.8298851,19.8255814 78.3448276,19.8255814 C78.7126437,19.8255814 79.0804598,19.7534884 79.4482759,19.6093023 C79.816092,19.4651163 80.1103448,19.2488372 80.3310345,19.0325581 L80.3310345,16.7255814 Z" fill-rule="nonzero"></path>
                    <path d="M92.3218391,9.01162791 C92.2482759,8.93953488 92.0275862,8.86744186 91.7333333,8.79534884 C91.4390805,8.72325581 91.0712644,8.65116279 90.6298851,8.65116279 C90.1885057,8.65116279 89.8942529,8.79534884 89.6,9.01162791 C89.3057471,9.22790698 89.1586207,9.66046512 89.1586207,10.1651163 L89.1586207,10.6697674 L91.5862069,10.6697674 L91.5862069,12.9767442 L89.1586207,12.9767442 L89.1586207,21.844186 L86.216092,21.844186 L86.216092,12.9767442 L84.6712644,12.9767442 L84.6712644,10.6697674 L86.216092,10.6697674 L86.216092,10.0930233 C86.216092,9.37209302 86.2896552,8.72325581 86.5103448,8.21860465 C86.7310345,7.71395349 86.9517241,7.28139535 87.3195402,6.99302326 C87.6873563,6.70465116 88.0551724,6.41627907 88.4965517,6.27209302 C88.937931,6.12790698 89.4528736,6.05581395 89.9678161,6.05581395 C90.7034483,6.05581395 91.291954,6.12790698 91.7333333,6.27209302 C92.1747126,6.41627907 92.4689655,6.48837209 92.5425287,6.56046512 L92.3218391,9.01162791 Z" fill-rule="nonzero"></path>
                    <path d="M103.209195,16.2930233 C103.209195,17.0139535 103.062069,17.7348837 102.841379,18.455814 C102.62069,19.1767442 102.252874,19.8255814 101.811494,20.3302326 C101.370115,20.9069767 100.781609,21.3395349 100.11954,21.7 C99.4574713,22.0604651 98.6482759,22.2046512 97.691954,22.2046512 C96.8091954,22.2046512 96,22.0604651 95.2643678,21.7 C94.6022989,21.3395349 94.0137931,20.9069767 93.5724138,20.3302326 C93.1310345,19.7534884 92.7632184,19.1767442 92.5425287,18.455814 C92.3218391,17.7348837 92.1747126,17.0139535 92.1747126,16.2930233 C92.1747126,15.572093 92.3218391,14.8511628 92.5425287,14.1302326 C92.7632184,13.4093023 93.1310345,12.8325581 93.5724138,12.255814 C94.0137931,11.6790698 94.6022989,11.2465116 95.2643678,10.9581395 C95.9264368,10.5976744 96.7356322,10.4534884 97.691954,10.4534884 C98.5747126,10.4534884 99.383908,10.5976744 100.045977,10.9581395 C100.708046,11.3186047 101.296552,11.7511628 101.737931,12.255814 C102.17931,12.8325581 102.547126,13.4093023 102.767816,14.1302326 C103.135632,14.8511628 103.209195,15.572093 103.209195,16.2930233 M100.34023,16.2930233 C100.34023,15.8604651 100.266667,15.355814 100.193103,14.9953488 C100.045977,14.5627907 99.8988506,14.2023256 99.6781609,13.9139535 C99.4574713,13.6255814 99.1632184,13.3372093 98.8689655,13.1930233 C98.5747126,13.0488372 98.2068966,12.9046512 97.7655172,12.9046512 C97.3241379,12.9046512 96.9563218,12.9767442 96.662069,13.1930233 C96.3678161,13.3372093 96.0735632,13.6255814 95.8528736,13.9139535 C95.6321839,14.2023256 95.4850575,14.5627907 95.337931,14.9953488 C95.1908046,15.427907 95.1908046,15.8604651 95.1908046,16.2930233 C95.1908046,16.7976744 95.2643678,17.2302326 95.337931,17.6627907 C95.4114943,18.0953488 95.6321839,18.455814 95.8528736,18.744186 C96.0735632,19.0325581 96.3678161,19.3209302 96.662069,19.4651163 C96.9563218,19.6093023 97.3977011,19.7534884 97.7655172,19.7534884 C98.2068966,19.7534884 98.5747126,19.6813953 98.8689655,19.4651163 C99.1632184,19.3209302 99.4574713,19.0325581 99.6781609,18.744186 C99.8988506,18.455814 100.045977,18.0953488 100.193103,17.6627907 C100.266667,17.2302326 100.34023,16.7976744 100.34023,16.2930233" fill-rule="nonzero"></path>
                    <path d="M112.331034,21.9162791 L112.331034,15.5 C112.331034,14.6348837 112.183908,13.9860465 111.816092,13.5534884 C111.448276,13.1209302 110.933333,12.8325581 110.271264,12.8325581 C109.829885,12.8325581 109.388506,12.9767442 109.02069,13.1930233 C108.652874,13.4093023 108.285057,13.6976744 107.990805,13.9860465 L107.990805,21.9162791 L105.048276,21.9162791 L105.048276,10.7418605 L107.696552,10.7418605 L107.843678,11.6069767 C108.285057,11.2465116 108.8,10.9581395 109.388506,10.7418605 C109.977011,10.5255814 110.565517,10.4534884 111.154023,10.4534884 C111.742529,10.4534884 112.331034,10.5255814 112.845977,10.7418605 C113.36092,10.8860465 113.802299,11.1744186 114.170115,11.6069767 C114.537931,11.9674419 114.832184,12.472093 114.97931,13.1209302 C115.2,13.7697674 115.273563,14.4906977 115.273563,15.355814 L115.273563,21.9883721 L112.331034,21.9883721 L112.331034,21.9162791 Z" fill-rule="nonzero"></path>
                    <path d="M119.981609,17.0860465 C120.055172,18.0232558 120.349425,18.744186 120.864368,19.1046512 C121.37931,19.5372093 122.114943,19.7534884 122.924138,19.7534884 C123.291954,19.7534884 123.65977,19.7534884 124.027586,19.6813953 C124.395402,19.6093023 124.689655,19.5372093 124.983908,19.3930233 C125.278161,19.3209302 125.498851,19.1767442 125.645977,19.1046512 C125.866667,18.9604651 126.013793,18.8883721 126.087356,18.8162791 L126.896552,21.1953488 C126.749425,21.2674419 126.602299,21.4116279 126.381609,21.4837209 C126.16092,21.627907 125.866667,21.772093 125.498851,21.844186 C125.131034,21.9883721 124.689655,22.0604651 124.248276,22.1325581 C123.733333,22.2046512 123.218391,22.2767442 122.629885,22.2767442 C121.894253,22.2767442 121.158621,22.1325581 120.496552,21.9162791 C119.834483,21.7 119.245977,21.3395349 118.731034,20.8348837 C118.216092,20.3302326 117.848276,19.7534884 117.554023,19.0325581 C117.25977,18.3116279 117.112644,17.4465116 117.112644,16.4372093 C117.112644,15.5 117.25977,14.6348837 117.554023,13.9139535 C117.848276,13.1930233 118.216092,12.544186 118.657471,12.1116279 C119.172414,11.6069767 119.687356,11.2465116 120.349425,10.9581395 C121.011494,10.6697674 121.673563,10.5976744 122.409195,10.5976744 C123.144828,10.5976744 123.806897,10.7418605 124.395402,10.9581395 C124.983908,11.1744186 125.572414,11.5348837 126.013793,12.0395349 C126.455172,12.544186 126.822989,13.1930233 127.043678,13.9139535 C127.337931,14.7069767 127.411494,15.644186 127.411494,16.6534884 L127.411494,17.1581395 L119.981609,17.1581395 L119.981609,17.0860465 Z M124.395402,14.9953488 C124.395402,14.6348837 124.248276,14.2744186 124.174713,13.9860465 C124.027586,13.6976744 123.88046,13.4813953 123.65977,13.2651163 C123.43908,13.1209302 123.218391,12.9767442 122.997701,12.9046512 C122.777011,12.8325581 122.556322,12.7604651 122.262069,12.7604651 C121.747126,12.7604651 121.305747,12.9767442 120.790805,13.3372093 C120.349425,13.6976744 120.055172,14.2744186 119.981609,14.9953488 L124.395402,14.9953488 Z" fill-rule="nonzero"></path>
                </g>
            </g>
        </g>
    </g>
</svg>