<?xml version="1.0" encoding="UTF-8"?>
<svg width="126px" height="42px" viewBox="0 0 126 42" version="1.1" xmlns="http://www.w3.org/2000/svg" xmlns:xlink="http://www.w3.org/1999/xlink">
    <!-- Generator: Sketch 51.2 (57519) - http://www.bohemiancoding.com/sketch -->
    <title>zinwave-logo</title>
    <desc>Created with Sketch.</desc>
    <defs></defs>
    <g id="Page-1" stroke="none" stroke-width="1" fill="none" fill-rule="evenodd" opacity="0.85">
        <g id="Contact" transform="translate(-467.000000, -1505.000000)" fill="#FFFFFF">
            <g id="zinwave-logo-color" transform="translate(467.000000, 1505.000000)">
                <g>
                    <circle id="Oval" fill-rule="nonzero" transform="translate(20.357426, 16.499232) rotate(-79.770000) translate(-20.357426, -16.499232) " cx="20.3574259" cy="16.4992322" r="1.83226468"></circle>
                    <polygon id="Shape" fill-rule="nonzero" points="0.913588071 23.4464119 14.0240075 23.4464119 14.0240075 26.0341286 3.17798695 39.4302889 14.0243989 39.4302889 14.0243989 41.6375396 0 41.6375396 0 39.1069711 10.8843802 25.6536626 0.913588071 25.6536626"></polygon>
                    <polygon id="Shape" fill-rule="nonzero" points="21.8286486 23.4464119 21.8286486 41.6371482 19.1649953 41.6371482 19.1649953 23.4464119"></polygon>
                    <path d="M27.7325256,23.4464119 L30.3014539,23.4464119 L30.2255172,25.9198322 L30.3014539,25.976589 C31.1130103,24.1120969 33.1301584,23.1797204 36.3528984,23.1794595 C38.9530103,23.1794595 40.7129916,23.636123 41.6328425,24.5494501 C42.5526934,25.4627773 43.0124884,27.2133644 43.0122274,29.8012116 L43.0122274,41.6367568 L40.3485741,41.6367568 L40.3485741,29.3459832 C40.3485741,27.7862815 40.050438,26.7366076 39.4541659,26.1969618 C38.8578938,25.6573159 37.7097111,25.387754 36.0096179,25.3882759 C32.2670643,25.3882759 30.395918,27.1579124 30.3961789,30.6971855 L30.3961789,41.6383225 L27.7325256,41.6383225 L27.7325256,23.4464119 Z" id="Shape" fill-rule="nonzero"></path>
                    <polygon id="Shape" fill-rule="nonzero" points="71.587493 23.4464119 66.4876048 41.6375396 62.5298975 41.6375396 60.0944455 31.5336626 59.3507363 28.4507922 59.00863 26.9097484 58.6469525 25.3687046 58.5898043 25.3687046 58.2281267 26.9097484 57.8664492 28.4507922 57.12274 31.5336626 54.6681081 41.6375396 50.6375955 41.6375396 45.7091519 23.4464119 48.5066729 23.4464119 51.0756011 33.5119292 51.8748928 36.6711277 52.2553588 38.2501398 52.6362162 39.8295433 52.7121528 39.8295433 53.0738304 38.2501398 53.4542964 36.6711277 54.2152283 33.5315005 56.7074371 23.4464119 60.5892078 23.4464119 63.0630196 33.5502889 63.8239515 36.6899161 64.1856291 38.2497484 64.5473066 39.8291519 64.6040634 39.8291519 65.0037092 38.2497484 65.3845666 36.6707363 66.1838583 33.5115377 68.7343896 23.4464119"></polygon>
                    <path d="M77.4048649,28.5459087 L74.76,28.5459087 C74.76,26.4277726 75.2388444,25.0038956 76.1965331,24.2742777 C77.1542218,23.5446598 79.0284995,23.179329 81.8193663,23.1782852 C84.8513514,23.1782852 86.8998136,23.6252936 87.964753,24.5193103 C89.0296925,25.4133271 89.5626841,27.1172041 89.5637279,29.6309413 L89.5637279,41.6375396 L86.8996831,41.6375396 L87.109096,39.6776701 L87.0523392,39.6588816 C86.0369804,41.1556943 83.9754706,41.9041007 80.8678099,41.9041007 C76.2750792,41.9041007 73.9787139,40.058397 73.9787139,36.3669897 C73.9787139,34.1721342 74.4923952,32.6561417 75.5197577,31.8190121 C76.5471202,30.9818826 78.40548,30.5631873 81.0948369,30.5629264 C84.2914818,30.5629264 86.2069897,31.190904 86.8413607,32.4468593 L86.8981174,32.4280708 L86.8981174,30.2204287 C86.8981174,28.1406524 86.6127679,26.792973 86.042069,26.1773905 C85.47137,25.561808 84.221808,25.2540168 82.293383,25.2540168 C79.0208015,25.2540168 77.3845107,26.1738677 77.3845107,28.0135694 C77.3847717,28.1022926 77.3915564,28.279739 77.4048649,28.5459087 Z M81.68589,32.6370923 C79.6436906,32.6370923 78.3149301,32.8527679 77.6996086,33.2841193 C77.084287,33.7154706 76.7766263,34.6418453 76.7766263,36.0632432 C76.7766263,37.5350047 77.0810252,38.5086114 77.6898229,38.9840634 C78.2986207,39.4595154 79.5355266,39.6973719 81.4005405,39.6976328 C85.1550979,39.6976328 87.032507,38.5561044 87.0327679,36.2730475 C87.0327679,34.8393849 86.6674371,33.8753029 85.9367754,33.3808015 C85.2061137,32.8863001 83.7891519,32.638397 81.68589,32.6370923 Z" id="Shape" fill-rule="nonzero"></path>
                    <polygon id="Shape" fill-rule="nonzero" points="107.872675 23.4464119 101.783653 41.6371482 97.9586393 41.6371482 91.9275489 23.4464119 94.6675303 23.4464119 97.8834856 33.340876 98.8914073 36.4417521 99.3669897 38.0015843 99.8617521 39.5621994 99.9376887 39.5621994 100.394091 38.0207642 100.850885 36.4605405 101.82123 33.3780615 104.904492 23.4464119"></polygon>
                    <path d="M123.226747,36.138397 L125.948332,36.138397 L125.96712,36.8038211 C125.96712,38.6944082 125.393029,40.0170363 124.244846,40.7717055 C123.096664,41.5263747 121.082908,41.9038397 118.203579,41.9041007 C114.854278,41.9041007 112.656421,41.2919105 111.610009,40.0675303 C110.563597,38.84315 110.040261,36.2712209 110.04,32.3517428 C110.04,28.7245294 110.566468,26.2889469 111.619404,25.0449953 C112.672339,23.8010438 114.733849,23.179329 117.803933,23.1798509 C121.152712,23.1798509 123.347307,23.7189748 124.387717,24.7972227 C125.428127,25.8754706 125.948201,28.1457409 125.94794,31.6080336 L125.94794,33.0363467 L112.856701,33.0363467 C112.856701,35.9036719 113.164362,37.7303262 113.779683,38.5163094 C114.395005,39.3022926 115.831668,39.6954147 118.089674,39.6956757 C120.232861,39.6956757 121.624902,39.5085741 122.265797,39.1343709 C122.906692,38.7601678 123.227008,37.9512209 123.226747,36.7075303 L123.226747,36.138397 Z M123.226747,30.9625722 L123.207959,30.1065238 C123.207959,28.1405219 122.884511,26.8618639 122.237614,26.2705499 C121.590718,25.6792358 120.194632,25.3842311 118.049357,25.3855359 C115.8926,25.3855359 114.494035,25.731165 113.853663,26.4224231 C113.21329,27.1136813 112.893625,28.6268034 112.894669,30.9617894 L123.226747,30.9625722 Z" id="Shape" fill-rule="nonzero"></path>
                    <path d="M29.4164399,19.6781547 C29.3984343,19.6781547 29.3804287,19.6781547 29.3620317,19.6781547 C29.0988415,19.6644029 28.8519233,19.5465531 28.6757034,19.3505819 C28.4994835,19.1546107 28.4084287,18.8966063 28.4226095,18.633439 C28.4257409,18.5758993 28.4253495,18.5183597 28.4253495,18.4608201 C28.4253495,13.1350792 24.0926561,8.80238583 18.7669152,8.80238583 C16.8084027,8.79862226 14.895572,9.39384656 13.2849953,10.5082199 C12.9933398,10.7159101 12.6124382,10.7504409 12.2881879,10.598586 C11.9639377,10.4467311 11.7465926,10.1320256 11.7194027,9.77501183 C11.6922129,9.41799804 11.8593923,9.07400752 12.1569059,8.87479963 C14.0993254,7.5302552 16.406506,6.81195881 18.7688723,6.81629077 C25.1882572,6.81629077 30.4122274,12.0394781 30.4122274,18.4596459 C30.4122274,18.5528052 30.4122274,18.6459646 30.4067474,18.7395154 C30.3780755,19.2656364 29.9433414,19.6776888 29.4164399,19.6781547 Z" id="Shape" fill-rule="nonzero"></path>
                    <path d="M36.1235228,17.4908667 C35.618364,17.4901926 35.1942772,17.11025 35.1383038,16.6082013 C34.2106244,8.2716123 27.1720037,1.98492078 18.7688723,1.98492078 C15.8775085,1.98388753 13.0367869,2.74378021 10.5320969,4.18825722 C10.0581405,4.45557851 9.45731719,4.29150394 9.18501425,3.82039196 C8.91271131,3.34927997 9.07044281,2.74676038 9.53865797,2.46950606 C12.3454433,0.85077166 15.5287574,-0.000910995224 18.7688723,-5.56249925e-16 C28.1826654,-5.56249925e-16 36.0698975,7.04566636 37.1110904,16.3886114 C37.1715187,16.9332125 36.7792443,17.4237746 36.2346878,17.4846039 C36.1977817,17.4887996 36.1606666,17.4908906 36.1235228,17.4908667 Z" id="Shape" fill-rule="nonzero"></path>
                </g>
            </g>
        </g>
    </g>
</svg>