<?xml version="1.0" encoding="UTF-8"?>
<svg width="51px" height="41px" viewBox="0 0 51 41" version="1.1" xmlns="http://www.w3.org/2000/svg" xmlns:xlink="http://www.w3.org/1999/xlink">
    <!-- Generator: Sketch 51.2 (57519) - http://www.bohemiancoding.com/sketch -->
    <title>quote-white</title>
    <desc>Created with Sketch.</desc>
    <defs></defs>
    <g id="Page-1" stroke="none" stroke-width="1" fill="none" fill-rule="evenodd">
        <g id="Recommendations" transform="translate(-1145.000000, -982.000000)" stroke="#FFFFFF">
            <g id="quote" transform="translate(0.000000, 919.000000)">
                <g id="quote-white" transform="translate(1146.000000, 64.000000)">
                    <path d="M46.848,0 L42.7,18.3 C46.848,19.276 48.8,21.716 48.8,25.864 L48.8,31.232 C48.8,36.6 45.384,39.284 39.04,39.284 C32.696,39.284 29.036,36.6 29.036,31.232 L29.036,25.62 C29.036,21.716 29.524,19.52 30.5,16.348 L35.868,0 L46.848,0 Z M17.812,0 L13.664,18.3 C17.812,19.276 19.764,21.716 19.764,25.864 L19.764,31.232 C19.764,36.6 16.348,39.284 10.004,39.284 C3.66,39.284 0,36.6 0,31.232 L0,25.62 C0,21.716 0.488,19.52 1.464,16.348 L6.832,0 L17.812,0 Z" transform="translate(24.400000, 19.642000) scale(-1, -1) translate(-24.400000, -19.642000) "></path>
                </g>
            </g>
        </g>
    </g>
</svg>