<?xml version="1.0" encoding="UTF-8"?>
<svg width="51px" height="41px" viewBox="0 0 51 41" version="1.1" xmlns="http://www.w3.org/2000/svg" xmlns:xlink="http://www.w3.org/1999/xlink">
    <!-- Generator: Sketch 51.2 (57519) - http://www.bohemiancoding.com/sketch -->
    <title>“</title>
    <desc>Created with Sketch.</desc>
    <defs></defs>
    <g id="Page-1" stroke="none" stroke-width="1" fill="none" fill-rule="evenodd">
        <g id="Recommendations" transform="translate(-1145.000000, -560.000000)" stroke="#E30D13">
            <g id="quote" transform="translate(0.000000, 497.000000)">
                <path d="M1192.848,64 L1188.7,82.3 C1192.848,83.276 1194.8,85.716 1194.8,89.864 L1194.8,95.232 C1194.8,100.6 1191.384,103.284 1185.04,103.284 C1178.696,103.284 1175.036,100.6 1175.036,95.232 L1175.036,89.62 C1175.036,85.716 1175.524,83.52 1176.5,80.348 L1181.868,64 L1192.848,64 Z M1163.812,64 L1159.664,82.3 C1163.812,83.276 1165.764,85.716 1165.764,89.864 L1165.764,95.232 C1165.764,100.6 1162.348,103.284 1156.004,103.284 C1149.66,103.284 1146,100.6 1146,95.232 L1146,89.62 C1146,85.716 1146.488,83.52 1147.464,80.348 L1152.832,64 L1163.812,64 Z" id="“" transform="translate(1170.400000, 83.642000) scale(-1, -1) translate(-1170.400000, -83.642000) "></path>
            </g>
        </g>
    </g>
</svg>