<?xml version="1.0" encoding="UTF-8"?>
<svg width="20px" height="20px" viewBox="0 0 20 20" version="1.1" xmlns="http://www.w3.org/2000/svg" xmlns:xlink="http://www.w3.org/1999/xlink">
    <!-- Generator: Sketch 51.2 (57519) - http://www.bohemiancoding.com/sketch -->
    <title>linkedin-icon</title>
    <desc>Created with Sketch.</desc>
    <defs></defs>
    <g id="Page-1" stroke="none" stroke-width="1" fill="none" fill-rule="evenodd">
        <g id="Team-pop-up" transform="translate(-856.000000, -1561.000000)" fill="#E30D13">
            <g id="linkedin-icon" transform="translate(856.000000, 1561.000000)">
                <g id="linkedin-logo-copy-2">
                    <path d="M18.5277778,0 L1.47222222,0 C0.652777778,0 0,0.652777778 0,1.44444444 L0,18.5555556 C0,19.3472222 0.666666667,20 1.47222222,20 L18.5138889,20 C19.3333333,20 20,19.3472222 20,18.5555556 L20,1.44444444 C20,0.652777778 19.3333333,0 18.5277778,0 Z M5.93055556,17.0416667 L2.95833333,17.0416667 L2.95833333,7.5 L5.93055556,7.5 L5.93055556,17.0416667 Z M4.45833333,6.19444444 C3.5,6.19444444 2.73611111,5.43055556 2.73611111,4.47222222 C2.73611111,3.52777778 3.5,2.75 4.45833333,2.75 C5.40277778,2.75 6.18055556,3.51388889 6.18055556,4.47222222 C6.16666667,5.41666667 5.40277778,6.19444444 4.45833333,6.19444444 Z M17.0416667,17.0416667 L14.0833333,17.0416667 L14.0833333,12.4027778 C14.0833333,11.2916667 14.0555556,9.875 12.5416667,9.875 C11,9.875 10.7638889,11.0833333 10.7638889,12.3194444 L10.7638889,17.0416667 L7.80555556,17.0416667 L7.80555556,7.5 L10.6388889,7.5 L10.6388889,8.80555556 L10.6805556,8.80555556 C11.0833333,8.05555556 12.0416667,7.26388889 13.4861111,7.26388889 C16.4861111,7.26388889 17.0416667,9.23611111 17.0416667,11.8055556 L17.0416667,17.0416667 Z" id="Shape" fill-rule="nonzero"></path>
                </g>
            </g>
        </g>
    </g>
</svg>