<?xml version="1.0" encoding="UTF-8"?>
<svg width="24px" height="24px" viewBox="0 0 24 24" version="1.1" xmlns="http://www.w3.org/2000/svg" xmlns:xlink="http://www.w3.org/1999/xlink">
    <!-- Generator: Sketch 51.2 (57519) - http://www.bohemiancoding.com/sketch -->
    <title>nav-linkedin-icon</title>
    <desc>Created with Sketch.</desc>
    <defs></defs>
    <g id="Page-1" stroke="none" stroke-width="1" fill="none" fill-rule="evenodd">
        <g id="Navigation" transform="translate(-1114.000000, -623.000000)" fill="#004A99" fill-rule="nonzero">
            <g id="social-icons" transform="translate(1063.000000, 623.000000)">
                <g id="nav-linkedin-icon" transform="translate(51.000000, 0.000000)">
                    <path d="M22.2333333,0 L1.76666667,0 C0.783333333,0 0,0.783333333 0,1.73333333 L0,22.2666667 C0,23.2166667 0.8,24 1.76666667,24 L22.2166667,24 C23.2,24 24,23.2166667 24,22.2666667 L24,1.73333333 C24,0.783333333 23.2,0 22.2333333,0 Z M7.11666667,20.45 L3.55,20.45 L3.55,9 L7.11666667,9 L7.11666667,20.45 Z M5.35,7.43333333 C4.2,7.43333333 3.28333333,6.51666667 3.28333333,5.36666667 C3.28333333,4.23333333 4.2,3.3 5.35,3.3 C6.48333333,3.3 7.41666667,4.21666667 7.41666667,5.36666667 C7.4,6.5 6.48333333,7.43333333 5.35,7.43333333 Z M20.45,20.45 L16.9,20.45 L16.9,14.8833333 C16.9,13.55 16.8666667,11.85 15.05,11.85 C13.2,11.85 12.9166667,13.3 12.9166667,14.7833333 L12.9166667,20.45 L9.36666667,20.45 L9.36666667,9 L12.7666667,9 L12.7666667,10.5666667 L12.8166667,10.5666667 C13.3,9.66666667 14.45,8.71666667 16.1833333,8.71666667 C19.7833333,8.71666667 20.45,11.0833333 20.45,14.1666667 L20.45,20.45 Z" id="Shape"></path>
                </g>
            </g>
        </g>
    </g>
</svg>