<?xml version="1.0" encoding="UTF-8"?>
<svg width="24px" height="24px" viewBox="0 0 24 24" version="1.1" xmlns="http://www.w3.org/2000/svg" xmlns:xlink="http://www.w3.org/1999/xlink">
    <!-- Generator: Sketch 51.2 (57519) - http://www.bohemiancoding.com/sketch -->
    <title>nav-instagram-icon</title>
    <desc>Created with Sketch.</desc>
    <defs></defs>
    <g id="Page-1" stroke="none" stroke-width="1" fill="none" fill-rule="evenodd">
        <g id="Navigation" transform="translate(-1063.000000, -623.000000)" fill="#004A99" fill-rule="nonzero">
            <g id="social-icons" transform="translate(1063.000000, 623.000000)">
                <g id="nav-instagram-icon">
                    <path d="M17.3052632,12 C17.3052632,14.6482759 15.0402904,16.8 12.2526316,16.8 C9.45896489,16.8 7.2,14.6482759 7.2,12 C7.2,9.34601665 9.46497278,7.2 12.2526316,7.2 C15.0462983,7.2 17.3052632,9.34601665 17.3052632,12 Z" id="Shape"></path>
                    <path d="M22.212766,1.73110893 C21.0638298,0.618253189 19.5379939,0 17.9270517,0 L6.07294833,0 C4.46200608,0 2.93617021,0.612365064 1.78723404,1.73110893 C0.638297872,2.84396467 0,4.3218842 0,5.88223749 L0,18.1177625 C0,19.6781158 0.632218845,21.1501472 1.78723404,22.2688911 C2.94224924,23.3876349 4.46200608,24 6.07294833,24 L17.9270517,24 C19.5379939,24 21.0577508,23.3876349 22.212766,22.2688911 C23.3617021,21.1560353 24,19.6781158 24,18.1177625 L24,5.88223749 C24,4.3218842 23.3677812,2.84396467 22.212766,1.73110893 Z M12.0486322,19.454367 C7.73860182,19.454367 4.24316109,16.0686948 4.24316109,11.8940137 C4.24316109,7.71933268 7.73860182,4.33366045 12.0486322,4.33366045 C16.3586626,4.33366045 19.8541033,7.71933268 19.8541033,11.8940137 C19.8541033,16.0686948 16.3586626,19.454367 12.0486322,19.454367 Z M19.9817629,6 C18.9604863,6 18.1337386,5.19921492 18.1337386,4.21000981 C18.1337386,3.22080471 18.9604863,2.42001963 19.9817629,2.42001963 C21.0030395,2.42001963 21.8297872,3.22080471 21.8297872,4.21000981 C21.8297872,5.19921492 21.0030395,6 19.9817629,6 Z" id="Shape"></path>
                </g>
            </g>
        </g>
    </g>
</svg>