<?xml version="1.0" encoding="UTF-8"?>
<svg width="30px" height="24px" viewBox="0 0 30 24" version="1.1" xmlns="http://www.w3.org/2000/svg" xmlns:xlink="http://www.w3.org/1999/xlink">
    <!-- Generator: Sketch 51.2 (57519) - http://www.bohemiancoding.com/sketch -->
    <title>nav-twitter-icon</title>
    <desc>Created with Sketch.</desc>
    <defs></defs>
    <g id="Page-1" stroke="none" stroke-width="1" fill="none" fill-rule="evenodd">
        <g id="Navigation" transform="translate(-1165.000000, -623.000000)" fill="#004A99" fill-rule="nonzero">
            <g id="social-icons" transform="translate(1063.000000, 623.000000)">
                <g id="nav-twitter-icon" transform="translate(102.000000, 0.000000)">
                    <path d="M30,2.83569231 C28.8911089,3.32307692 27.7072927,3.648 26.4635365,3.79569231 C27.7372627,3.04246154 28.7112887,1.86092308 29.1608392,0.443076923 C27.977023,1.13723077 26.6583417,1.63938462 25.2497502,1.92 C24.1258741,0.738461538 22.5374625,0 20.7542458,0 C17.3526474,0 14.6103896,2.71753846 14.6103896,6.05538462 C14.6103896,6.528 14.6703297,6.98584615 14.7752248,7.44369231 C9.66533467,7.19261538 5.13986014,4.78523077 2.0979021,1.10769231 C1.57342657,2.00861538 1.25874126,3.04246154 1.25874126,4.15015385 C1.25874126,6.24738462 2.33766234,8.10830769 4.000999,9.20123077 C2.997003,9.17169231 2.03796204,8.89107692 1.21378621,8.448 C1.21378621,8.47753846 1.21378621,8.49230769 1.21378621,8.52184615 C1.21378621,11.4609231 3.32667333,13.9126154 6.14385614,14.4590769 C5.63436563,14.592 5.07992008,14.6658462 4.52547453,14.6658462 C4.13586414,14.6658462 3.74625375,14.6215385 3.37162837,14.5624615 C4.15084915,16.9698462 6.42857143,18.7273846 9.11088911,18.7716923 C7.01298701,20.3963077 4.36063936,21.3710769 1.46853147,21.3710769 C0.974025974,21.3710769 0.47952048,21.3415385 0,21.2824615 C2.72727273,22.9956923 5.94905095,24 9.42557443,24 C20.7392607,24 26.9130869,14.7692308 26.9130869,6.76430769 C26.9130869,6.49846154 26.9130869,6.24738462 26.8981019,5.98153846 C28.1268731,5.11015385 29.1758242,4.04676923 30,2.83569231 Z" id="Shape"></path>
                </g>
            </g>
        </g>
    </g>
</svg>