<?xml version="1.0" encoding="UTF-8"?>
<svg width="25px" height="20px" viewBox="0 0 25 20" version="1.1" xmlns="http://www.w3.org/2000/svg" xmlns:xlink="http://www.w3.org/1999/xlink">
    <!-- Generator: Sketch 51.2 (57519) - http://www.bohemiancoding.com/sketch -->
    <title>footer-twitter-icon</title>
    <desc>Created with Sketch.</desc>
    <defs></defs>
    <g id="Page-1" stroke="none" stroke-width="1" fill="none" fill-rule="evenodd">
        <g id="Homepage" transform="translate(-990.000000, -4149.000000)" fill="#004A99">
            <g id="Footer" transform="translate(0.000000, 3906.000000)">
                <g id="footer-twitter-icon" transform="translate(990.000000, 243.000000)">
                    <g id="Shape">
                        <path d="M25,2.36307692 C24.0759241,2.76923077 23.0894106,3.04 22.0529471,3.16307692 C23.1143856,2.53538462 23.9260739,1.55076923 24.3006993,0.369230769 C23.3141858,0.947692308 22.2152847,1.36615385 21.0414585,1.6 C20.1048951,0.615384615 18.7812188,0 17.2952048,0 C14.4605395,0 12.1753247,2.26461538 12.1753247,5.04615385 C12.1753247,5.44 12.2252747,5.82153846 12.3126873,6.20307692 C8.05444555,5.99384615 4.28321678,3.98769231 1.74825175,0.923076923 C1.31118881,1.67384615 1.04895105,2.53538462 1.04895105,3.45846154 C1.04895105,5.20615385 1.94805195,6.75692308 3.33416583,7.66769231 C2.4975025,7.64307692 1.6983017,7.40923077 1.01148851,7.04 C1.01148851,7.06461538 1.01148851,7.07692308 1.01148851,7.10153846 C1.01148851,9.55076923 2.77222777,11.5938462 5.11988012,12.0492308 C4.6953047,12.16 4.23326673,12.2215385 3.77122877,12.2215385 C3.44655345,12.2215385 3.12187812,12.1846154 2.80969031,12.1353846 C3.45904096,14.1415385 5.35714286,15.6061538 7.59240759,15.6430769 C5.84415584,16.9969231 3.63386613,17.8092308 1.22377622,17.8092308 C0.811688312,17.8092308 0.3996004,17.7846154 0,17.7353846 C2.27272727,19.1630769 4.95754246,20 7.85464535,20 C17.2827173,20 22.4275724,12.3076923 22.4275724,5.63692308 C22.4275724,5.41538462 22.4275724,5.20615385 22.4150849,4.98461538 C23.4390609,4.25846154 24.3131868,3.37230769 25,2.36307692 Z" fill-rule="nonzero"></path>
                    </g>
                </g>
            </g>
        </g>
    </g>
</svg>