<?xml version="1.0" encoding="UTF-8"?>
<svg width="19px" height="19px" viewBox="0 0 19 19" version="1.1" xmlns="http://www.w3.org/2000/svg" xmlns:xlink="http://www.w3.org/1999/xlink">
    <!-- Generator: Sketch 51.2 (57519) - http://www.bohemiancoding.com/sketch -->
    <title>footer-bond-support-logo</title>
    <desc>Created with Sketch.</desc>
    <defs></defs>
    <g id="Page-1" stroke="none" stroke-width="1" fill="none" fill-rule="evenodd" fill-opacity="0.6">
        <g id="Homepage" transform="translate(-1080.000000, -4234.000000)" fill="#10181D">
            <g id="Footer" transform="translate(0.000000, 3906.000000)">
                <g id="footer-bond-support-logo" transform="translate(1080.000000, 328.000000)">
                    <g>
                        <path d="M2.984975,8.838 C1.802475,11.277 1.239975,13.623 1.107475,14.961 C0.402475,13.518 -2.5e-05,11.841 -2.5e-05,10.05 C-2.5e-05,8.646 0.247475,7.314 0.692475,6.108 C0.949975,6.474 1.672475,7.452 2.984975,8.838" id="Fill-1"></path>
                        <path d="M5.29997222,5.8566 C3.54997222,4.53993333 2.32219444,3.79993333 2.05552778,3.64326667 C3.70552778,1.4066 6.11941667,-6.66666667e-05 8.80552778,-6.66666667e-05 C9.92219444,-6.66666667e-05 10.9916389,0.243266667 11.9805278,0.689933333 C9.13052778,1.7766 6.94719444,3.6966 5.29997222,5.8566" id="Fill-4"></path>
                        <path d="M6.23903283,10 C8.61982994,11.8685774 11.8223181,14.0803565 16,16.3987767 C14.2723419,18.0153792 11.9878602,19 9.48365898,19 C7.44929645,19 5.56181494,18.3522894 4,17.2418385 C4.02678773,15.5679832 4.72206476,12.7934289 6.23903283,10" id="Fill-7"></path>
                        <path d="M19,8.67018977 C19,10.653375 18.3859902,12.4895508 17.3366965,14 C14.5952724,10.8090319 11.5828769,8.27239971 9,6.3987509 C10.7959066,4.46456882 13.1712309,2.81575787 16.2066878,2 C17.9305275,3.69781408 19,6.05861158 19,8.67018977" id="Fill-9"></path>
                    </g>
                </g>
            </g>
        </g>
    </g>
</svg>