<?xml version="1.0" encoding="UTF-8"?>
<svg width="20px" height="20px" viewBox="0 0 20 20" version="1.1" xmlns="http://www.w3.org/2000/svg" xmlns:xlink="http://www.w3.org/1999/xlink">
    <!-- Generator: Sketch 51.2 (57519) - http://www.bohemiancoding.com/sketch -->
    <title>footer-intagram-icon</title>
    <desc>Created with Sketch.</desc>
    <defs></defs>
    <g id="Page-1" stroke="none" stroke-width="1" fill="none" fill-rule="evenodd">
        <g id="Homepage" transform="translate(-910.000000, -4149.000000)" fill="#004A99">
            <g id="Footer" transform="translate(0.000000, 3906.000000)">
                <g id="footer-intagram-icon" transform="translate(910.000000, 243.000000)">
                    <g id="Shape">
                        <path d="M14.4210526,10 C14.4210526,12.2068966 12.5335753,14 10.2105263,14 C7.88247074,14 6,12.2068966 6,10 C6,7.78834721 7.88747731,6 10.2105263,6 C12.5385819,6 14.4210526,7.78834721 14.4210526,10 Z" fill-rule="nonzero"></path>
                        <path d="M18.5106383,1.44259078 C17.5531915,0.515210991 16.2816616,0 14.9392097,0 L5.06079027,0 C3.7183384,0 2.44680851,0.51030422 1.4893617,1.44259078 C0.531914894,2.36997056 0,3.60157017 0,4.90186457 L0,15.0981354 C0,16.3984298 0.526849037,17.6251227 1.4893617,18.5574092 C2.45187437,19.4896958 3.7183384,20 5.06079027,20 L14.9392097,20 C16.2816616,20 17.5481256,19.4896958 18.5106383,18.5574092 C19.4680851,17.6300294 20,16.3984298 20,15.0981354 L20,4.90186457 C20,3.60157017 19.473151,2.36997056 18.5106383,1.44259078 Z M10.0405268,16.2119725 C6.44883485,16.2119725 3.53596758,13.390579 3.53596758,9.91167812 C3.53596758,6.43277723 6.44883485,3.61138371 10.0405268,3.61138371 C13.6322188,3.61138371 16.5450861,6.43277723 16.5450861,9.91167812 C16.5450861,13.390579 13.6322188,16.2119725 10.0405268,16.2119725 Z M16.6514691,5 C15.8004053,5 15.1114488,4.3326791 15.1114488,3.50834151 C15.1114488,2.68400393 15.8004053,2.01668302 16.6514691,2.01668302 C17.5025329,2.01668302 18.1914894,2.68400393 18.1914894,3.50834151 C18.1914894,4.3326791 17.5025329,5 16.6514691,5 Z" fill-rule="nonzero"></path>
                    </g>
                </g>
            </g>
        </g>
    </g>
</svg>