<?xml version="1.0" encoding="UTF-8"?>
<svg width="14px" height="14px" viewBox="0 0 14 14" version="1.1" xmlns="http://www.w3.org/2000/svg" xmlns:xlink="http://www.w3.org/1999/xlink">
    <!-- Generator: Sketch 51.2 (57519) - http://www.bohemiancoding.com/sketch -->
    <title>hp-instagram_icon</title>
    <desc>Created with Sketch.</desc>
    <defs></defs>
    <g id="Page-1" stroke="none" stroke-width="1" fill="none" fill-rule="evenodd">
        <g id="Homepage" transform="translate(-246.000000, -3218.000000)" fill="#FFFFFF">
            <g id="Instagram" transform="translate(0.000000, 3115.000000)">
                <g id="hp-instagram_icon" transform="translate(246.000000, 103.000000)">
                    <g id="Shape">
                        <path d="M10,7 C10,8.65517241 8.65517241,10 7,10 C5.3412604,10 4,8.65517241 4,7 C4,5.3412604 5.34482759,4 7,4 C8.6587396,4 10,5.3412604 10,7 Z" fill-rule="nonzero"></path>
                        <path d="M12.9574468,1.00981354 C12.287234,0.360647694 11.3971631,0 10.4574468,0 L3.54255319,0 C2.60283688,0 1.71276596,0.357212954 1.04255319,1.00981354 C0.372340426,1.65897939 0,2.52109912 0,3.4313052 L0,10.5686948 C0,11.4789009 0.368794326,12.3375859 1.04255319,12.9901865 C1.71631206,13.642787 2.60283688,14 3.54255319,14 L10.4574468,14 C11.3971631,14 12.2836879,13.642787 12.9574468,12.9901865 C13.6276596,12.3410206 14,11.4789009 14,10.5686948 L14,3.4313052 C14,2.52109912 13.6312057,1.65897939 12.9574468,1.00981354 Z M7.02836879,11.3483808 C4.5141844,11.3483808 2.4751773,9.3734053 2.4751773,6.93817468 C2.4751773,4.50294406 4.5141844,2.5279686 7.02836879,2.5279686 C9.54255319,2.5279686 11.5815603,4.50294406 11.5815603,6.93817468 C11.5815603,9.3734053 9.54255319,11.3483808 7.02836879,11.3483808 Z M11.6560284,3.5 C11.0602837,3.5 10.5780142,3.03287537 10.5780142,2.45583906 C10.5780142,1.87880275 11.0602837,1.41167812 11.6560284,1.41167812 C12.251773,1.41167812 12.7340426,1.87880275 12.7340426,2.45583906 C12.7340426,3.03287537 12.251773,3.5 11.6560284,3.5 Z" fill-rule="nonzero"></path>
                    </g>
                </g>
            </g>
        </g>
    </g>
</svg>