<?xml version="1.0" encoding="UTF-8"?>
<svg width="380px" height="75px" viewBox="0 0 380 75" version="1.1" xmlns="http://www.w3.org/2000/svg" xmlns:xlink="http://www.w3.org/1999/xlink">
    <!-- Generator: Sketch 51.2 (57519) - http://www.bohemiancoding.com/sketch -->
    <title>titan-logo-white</title>
    <desc>Created with Sketch.</desc>
    <defs></defs>
    <g id="Page-1" stroke="none" stroke-width="1" fill="none" fill-rule="evenodd">
        <g id="Homepage" transform="translate(-245.000000, -23.000000)">
            <g id="Header">
                <g id="Titan-logo" transform="translate(245.000000, 23.000000)">
                    <g>
                        <g id="Group" transform="translate(11.000000, 70.000000)" fill="#C8C8C8" fill-rule="nonzero">
                            <path d="M0.0613043478,4.78125 L0.0613043478,0.0625 L0.919565217,0.0625 L3.09586957,2.90625 L5.21086957,0.0625 L6.06913043,0.0625 L6.06913043,4.78125 L5.08826087,4.78125 L5.08826087,1.875 C5.08826087,1.75 5.08826087,1.59375 5.11891304,1.375 C4.99630435,1.625 4.90434783,1.78125 4.84304348,1.875 L3.09586957,4.21875 L2.88130435,4.21875 L1.13413043,1.84375 C1.01152174,1.6875 0.919565217,1.5 0.85826087,1.34375 C0.888913043,1.53125 0.888913043,1.6875 0.888913043,1.84375 L0.888913043,4.75 L0.0613043478,4.75 L0.0613043478,4.78125 Z" id="Shape"></path>
                            <path d="M10.2378261,4.78125 L12.8432609,0.0625 L13.8854348,0.0625 L16.5215217,4.78125 L15.326087,4.78125 L14.7743478,3.75 L11.8623913,3.75 L11.3413043,4.78125 L10.2378261,4.78125 Z M12.2915217,2.875 L14.3145652,2.875 L13.3336957,0.96875 L12.2915217,2.875 Z" id="Shape"></path>
                            <path d="M20.7821739,4.78125 L20.7821739,0.0625 L24.7363043,0.0625 C25.4413043,0.0625 25.7784783,0.375 25.7784783,0.96875 L25.7784783,2.0625 C25.7784783,2.65625 25.4413043,2.96875 24.7363043,2.96875 L24.1232609,2.96875 L26.2382609,4.75 L24.7056522,4.75 L22.8358696,2.96875 L21.8243478,2.96875 L21.8243478,4.75 L20.7821739,4.75 L20.7821739,4.78125 Z M24.2458696,0.875 L21.8243478,0.875 L21.8243478,2.1875 L24.2458696,2.1875 C24.3991304,2.1875 24.5217391,2.15625 24.5830435,2.125 C24.675,2.0625 24.7056522,1.96875 24.7056522,1.8125 L24.7056522,1.25 C24.7056522,1.09375 24.675,0.96875 24.5830435,0.9375 C24.5217391,0.90625 24.4297826,0.875 24.2458696,0.875 Z" id="Shape"></path>
                            <polygon id="Shape" points="30.7134783 4.78125 30.7134783 0.0625 31.7863043 0.0625 31.7863043 4.78125"></polygon>
                            <path d="M36.9052174,4.78125 L36.9052174,0.0625 L37.6408696,0.0625 L40.89,2.84375 C41.1352174,3.03125 41.2884783,3.21875 41.411087,3.34375 C41.3804348,2.90625 41.3497826,2.625 41.3497826,2.53125 L41.3497826,0.0625 L42.3306522,0.0625 L42.3306522,4.78125 L41.595,4.78125 L38.1926087,1.875 C38.0393478,1.75 37.9167391,1.625 37.7941304,1.5 C37.8247826,1.8125 37.8554348,2.0625 37.8554348,2.25 L37.8554348,4.78125 L36.9052174,4.78125 Z" id="Shape"></path>
                            <polygon id="Shape" points="47.4495652 4.78125 47.4495652 0.0625 52.17 0.0625 52.17 0.875 48.5223913 0.875 48.5223913 1.9375 50.6373913 1.9375 50.6373913 2.75 48.5223913 2.75 48.5223913 3.90625 52.2313043 3.90625 52.2313043 4.78125"></polygon>
                            <path d="M65.8408696,4.78125 L65.8408696,0.0625 L66.5765217,0.0625 L69.8256522,2.84375 C70.0708696,3.03125 70.2241304,3.21875 70.3467391,3.34375 C70.316087,2.90625 70.2854348,2.625 70.2854348,2.53125 L70.2854348,0.0625 L71.2663043,0.0625 L71.2663043,4.78125 L70.5306522,4.78125 L67.1282609,1.875 C66.975,1.75 66.8523913,1.625 66.7297826,1.5 C66.7604348,1.8125 66.791087,2.0625 66.791087,2.25 L66.791087,4.78125 L65.8408696,4.78125 Z" id="Shape"></path>
                            <polygon id="Shape" points="76.3852174 4.78125 76.3852174 0.0625 81.1056522 0.0625 81.1056522 0.875 77.4580435 0.875 77.4580435 1.9375 79.5730435 1.9375 79.5730435 2.75 77.4580435 2.75 77.4580435 3.90625 81.1363043 3.90625 81.1363043 4.78125"></polygon>
                            <polygon id="Shape" points="88.0330435 0.90625 88.0330435 4.78125 86.9602174 4.78125 86.9602174 0.90625 84.8452174 0.90625 84.8452174 0.0625 90.1786957 0.0625 90.1786957 0.90625"></polygon>
                            <polygon id="Shape" points="95.2056522 4.78125 93.4278261 0.0625 94.5313043 0.0625 95.696087 3.21875 96.9221739 0.0625 97.6578261 0.0625 98.9145652 3.21875 100.018043 0.0625 100.968261 0.0625 99.1904348 4.78125 98.4547826 4.78125 97.1980435 1.53125 95.9106522 4.78125"></polygon>
                            <path d="M105.198261,1.1875 C105.198261,0.75 105.290217,0.46875 105.443478,0.3125 C105.596739,0.15625 105.903261,0.09375 106.332391,0.09375 L109.734783,0.09375 C110.163913,0.09375 110.470435,0.15625 110.623696,0.3125 C110.776957,0.46875 110.868913,0.75 110.868913,1.1875 L110.868913,3.65625 C110.868913,4.09375 110.776957,4.375 110.623696,4.53125 C110.470435,4.6875 110.163913,4.75 109.734783,4.75 L106.332391,4.75 C105.903261,4.75 105.596739,4.6875 105.443478,4.53125 C105.290217,4.375 105.198261,4.09375 105.198261,3.65625 L105.198261,1.1875 Z M106.271087,3.875 L109.826739,3.875 L109.826739,0.90625 L106.271087,0.90625 L106.271087,3.875 Z" id="Shape"></path>
                            <path d="M115.926522,4.78125 L115.926522,0.0625 L119.85,0.0625 C120.555,0.0625 120.892174,0.375 120.892174,0.96875 L120.892174,2.0625 C120.892174,2.65625 120.555,2.96875 119.85,2.96875 L119.236957,2.96875 L121.351957,4.75 L119.819348,4.75 L117.949565,2.96875 L116.938043,2.96875 L116.938043,4.75 L115.926522,4.75 L115.926522,4.78125 Z M119.390217,0.875 L116.968696,0.875 L116.968696,2.1875 L119.390217,2.1875 C119.543478,2.1875 119.666087,2.15625 119.727391,2.125 C119.819348,2.0625 119.85,1.96875 119.85,1.8125 L119.85,1.25 C119.85,1.09375 119.819348,0.96875 119.727391,0.9375 C119.666087,0.90625 119.543478,0.875 119.390217,0.875 Z" id="Shape"></path>
                            <polygon id="Shape" points="125.857826 4.78125 125.857826 0.0625 126.930652 0.0625 126.930652 2.03125 129.474783 0.0625 131.038043 0.0625 127.972826 2.28125 131.40587 4.78125 129.689348 4.78125 126.930652 2.71875 126.930652 4.78125"></polygon>
                            <path d="M139.712609,0.875 L136.708696,0.875 L136.708696,1.90625 L139.59,1.90625 C140.01913,1.90625 140.325652,1.96875 140.509565,2.125 C140.662826,2.28125 140.754783,2.5625 140.754783,3 L140.754783,3.65625 C140.754783,4.09375 140.662826,4.375 140.509565,4.53125 C140.356304,4.6875 140.049783,4.75 139.59,4.75 L136.708696,4.75 C136.279565,4.75 135.973043,4.6875 135.78913,4.53125 C135.63587,4.375 135.543913,4.09375 135.543913,3.65625 L135.543913,3.34375 L136.49413,3.34375 L136.49413,3.90625 L139.773913,3.90625 L139.773913,2.8125 L136.892609,2.8125 C136.463478,2.8125 136.156957,2.75 136.003696,2.59375 C135.850435,2.4375 135.758478,2.15625 135.758478,1.71875 L135.758478,1.1875 C135.758478,0.75 135.850435,0.46875 136.003696,0.3125 C136.156957,0.15625 136.463478,0.09375 136.892609,0.09375 L139.498043,0.09375 C139.927174,0.09375 140.203043,0.15625 140.386957,0.3125 C140.57087,0.46875 140.632174,0.71875 140.632174,1.125 L140.632174,1.4375 L139.681957,1.4375 L139.681957,0.875 L139.712609,0.875 Z" id="Shape"></path>
                        </g>
                        <g id="Group" transform="translate(0.000000, 38.000000)" fill="#FFFFFF" fill-rule="nonzero">
                            <polygon id="Shape" points="117.878873 3.42857143 131.265845 26.5714286 125.659859 26.5714286 116.255282 9.85714286 106.758803 26.5714286 101.397887 26.5714286 114.692958 3.42857143 117.878873 3.42857143"></polygon>
                            <polygon id="Shape" points="16.2971831 7.59183673 16.2971831 26.5714286 10.9056338 26.5714286 10.9056338 7.59183673 0.275704225 7.59183673 0.275704225 3.42857143 26.9883803 3.42857143 26.9883803 7.59183673"></polygon>
                            <polygon id="Shape" points="42.6116197 26.5714286 42.6116197 3.42857143 48.003169 3.42857143 48.003169 26.5714286 42.6116197 26.5714286"></polygon>
                            <polygon id="Shape" points="79.5866197 7.59183673 79.5866197 26.5714286 74.1950704 26.5714286 74.1950704 7.59183673 63.5651408 7.59183673 63.5651408 3.42857143 90.2778169 3.42857143 90.2778169 7.59183673"></polygon>
                            <polygon id="Shape" points="151.514789 26.6020408 151.514789 10.744898 173.969366 29.755102 173.969366 29.755102 173.969366 29.755102 173.969366 3.42857143 169.067958 3.42857143 169.067958 19.0408163 169.067958 19.0408163 169.067958 19.0408163 146.735915 0.244897959 146.735915 26.6020408"></polygon>
                        </g>
                        <g id="Group" transform="translate(93.000000, 10.000000)" fill="#C8C8C8" fill-rule="nonzero">
                            <g transform="translate(9.894737, 9.846154)" id="Shape">
                                <path d="M6.86447368,25.3230769 L9.70921053,20.4 C9.12171053,20.0615385 8.56513158,19.6615385 8.07039474,19.1384615 C7.05,18.1230769 6.36973684,16.9230769 6.02960526,15.6615385 L0.185526316,15.6615385 C0.5875,18.4307692 1.88618421,21.0461538 4.01973684,23.1692308 C4.91644737,24.0307692 5.875,24.7384615 6.86447368,25.3230769 Z"></path>
                                <path d="M20.2532895,25.4153846 C21.3355263,24.8307692 22.3559211,24.0615385 23.2526316,23.1692308 C25.3861842,21.0461538 26.6539474,18.4307692 27.0868421,15.6615385 L21.2427632,15.6615385 C20.9026316,16.9538462 20.2223684,18.1538462 19.2019737,19.1384615 C18.6453947,19.6923077 18.0269737,20.1230769 17.3776316,20.4923077 L20.2532895,25.4153846 Z"></path>
                                <path d="M11.6572368,0.246153846 C8.87434211,0.646153846 6.18421053,1.93846154 4.05065789,4.06153846 C1.88618421,6.21538462 0.618421053,8.8 0.216447368,11.5692308 L6.06052632,11.5692308 C6.40065789,10.2769231 7.08092105,9.07692308 8.10131579,8.09230769 C9.12171053,7.07692308 10.3894737,6.4 11.6881579,6.06153846 L11.6881579,0.246153846 L11.6572368,0.246153846 Z"></path>
                            </g>
                            <g id="Shape">
                                <path d="M11.8118421,43.7230769 L14.7184211,38.7076923 C13.3888158,37.9384615 12.1519737,37.0153846 11.0388158,35.9076923 C8.10131579,32.9846154 6.40065789,29.3230769 5.96776316,25.5076923 L0.123684211,25.5076923 C0.556578947,30.8307692 2.84473684,35.9384615 6.92631579,40 C8.41052632,41.4769231 10.0802632,42.7384615 11.8118421,43.7230769 Z"></path>
                                <path d="M35.1263158,43.8153846 C36.9197368,42.8 38.6513158,41.5076923 40.1664474,40 C44.2171053,35.9384615 46.5052632,30.8 46.9690789,25.5076923 L41.125,25.5076923 C40.6921053,29.3230769 38.9914474,33.0153846 36.0539474,35.9076923 C34.8789474,37.0769231 33.5802632,38.0307692 32.1888158,38.8 L35.1263158,43.8153846 Z"></path>
                                <path d="M21.5519737,0.153846154 C16.2335526,0.615384615 10.9769737,2.86153846 6.92631579,6.92307692 C2.84473684,10.9846154 0.556578947,16.0923077 0.123684211,21.4153846 L5.96776316,21.4153846 C6.40065789,17.6 8.10131579,13.9384615 11.0388158,11.0153846 C13.9763158,8.09230769 17.7486842,6.43076923 21.5519737,5.96923077 L21.5519737,0.153846154 Z"></path>
                            </g>
                        </g>
                        <g id="Group" transform="translate(119.000000, 0.000000)" fill="#FFFFFF" fill-rule="nonzero">
                            <path d="M11.6815534,30.8784314 C11.2776699,28.1431373 9.97281553,25.5598039 7.82912621,23.4627451 C5.65436893,21.3656863 3.04466019,20.0892157 0.248543689,19.6941176 L0.248543689,25.4382353 C1.55339806,25.772549 2.76504854,26.4411765 3.7592233,27.4441176 C4.78446602,28.4470588 5.46796117,29.6323529 5.80970874,30.8784314 L11.6815534,30.8784314 Z" id="Shape"></path>
                            <path d="M21.7165049,30.8784314 C21.2504854,25.6509804 18.9825243,20.545098 14.8815534,16.5637255 C10.7805825,12.5519608 5.62330097,10.3029412 0.248543689,9.87745098 L0.248543689,15.6215686 C4.10097087,16.0470588 7.79805825,17.7186275 10.7495146,20.6058824 C13.7009709,23.4931373 15.3786408,27.1401961 15.8446602,30.8784314 L21.7165049,30.8784314 Z" id="Shape"></path>
                            <path d="M31.8135922,30.8784314 C31.3165049,23.1284314 28.0543689,15.5303922 21.9961165,9.60392157 C15.9378641,3.67745098 8.17087379,0.48627451 0.248543689,2.84217094e-14 L0.248543689,5.71372549 C6.67961165,6.16960784 12.9553398,8.81372549 17.8640777,13.6156863 C22.7728155,18.4480392 25.4757282,24.5568627 25.9417476,30.8480392 L31.8135922,30.8480392 L31.8135922,30.8784314 Z" id="Shape"></path>
                        </g>
                        <circle id="Oval" fill="#E30D13" fill-rule="nonzero" cx="117" cy="33" r="4"></circle>
                        <rect id="Rectangle-path" fill="#FFFFFF" fill-rule="nonzero" x="198" y="0" width="1" height="75"></rect>
                        <g id="Group" transform="translate(223.000000, 10.000000)" fill="#C8C8C8" fill-rule="nonzero">
                            <path d="M1.53921569,9.64804469 C1.60078431,10.2318436 1.72392157,10.6927374 1.90862745,11.0921788 C2.12411765,11.4916201 2.37039216,11.7988827 2.70901961,12.0446927 C3.04764706,12.2905028 3.41705882,12.4748603 3.84803922,12.5977654 C4.27901961,12.7206704 4.74078431,12.7513966 5.20254902,12.7513966 C5.78745098,12.7513966 6.28,12.6899441 6.68019608,12.5363128 C7.11117647,12.3826816 7.44980392,12.198324 7.69607843,11.952514 C7.94235294,11.7067039 8.15784314,11.4301676 8.28098039,11.0921788 C8.40411765,10.7849162 8.46568627,10.4469274 8.46568627,10.0782123 C8.46568627,9.58659218 8.34254902,9.18715084 8.12705882,8.87988827 C7.91156863,8.5726257 7.60372549,8.32681564 7.23431373,8.11173184 C6.86490196,7.9273743 6.46470588,7.77374302 6.00294118,7.65083799 C5.54117647,7.52793296 5.04862745,7.40502793 4.55607843,7.31284916 C4.06352941,7.18994413 3.57098039,7.06703911 3.10921569,6.91340782 C2.64745098,6.75977654 2.21647059,6.54469274 1.84705882,6.29888268 C1.47764706,6.05307263 1.20058824,5.7150838 0.954313725,5.2849162 C0.738823529,4.88547486 0.615686275,4.36312849 0.615686275,3.71787709 C0.615686275,3.2877095 0.708039216,2.8575419 0.892745098,2.4273743 C1.07745098,1.9972067 1.3545098,1.65921788 1.72392157,1.32122905 C2.09333333,1.01396648 2.52431373,0.737430168 3.07843137,0.553072626 C3.63254902,0.368715084 4.24823529,0.276536313 4.95627451,0.276536313 C5.69509804,0.276536313 6.31078431,0.368715084 6.86490196,0.583798883 C7.41901961,0.798882682 7.85,1.07541899 8.21941176,1.41340782 C8.58882353,1.75139665 8.83509804,2.18156425 9.01980392,2.6424581 C9.2045098,3.10335196 9.29686275,3.59497207 9.29686275,4.11731844 L8.12705882,4.11731844 C8.12705882,3.62569832 8.03470588,3.22625698 7.88078431,2.8575419 C7.69607843,2.48882682 7.48058824,2.2122905 7.1727451,1.9972067 C6.86490196,1.78212291 6.52627451,1.59776536 6.15686275,1.50558659 C5.78745098,1.38268156 5.3872549,1.35195531 4.98705882,1.35195531 C4.37137255,1.35195531 3.84803922,1.44413408 3.41705882,1.59776536 C2.98607843,1.78212291 2.64745098,1.9972067 2.40117647,2.27374302 C2.15490196,2.55027933 1.97019608,2.8575419 1.87784314,3.19553073 C1.7854902,3.53351955 1.75470588,3.87150838 1.81627451,4.17877095 C1.87784314,4.60893855 2.06254902,4.91620112 2.30882353,5.16201117 C2.55509804,5.40782123 2.89372549,5.62290503 3.26313725,5.77653631 C3.63254902,5.9301676 4.06352941,6.08379888 4.52529412,6.17597765 C4.98705882,6.26815642 5.44882353,6.39106145 5.91058824,6.48324022 C6.37235294,6.60614525 6.83411765,6.72905028 7.29588235,6.88268156 C7.72686275,7.03631285 8.12705882,7.25139665 8.46568627,7.4972067 C8.80431373,7.74301676 9.08137255,8.08100559 9.29686275,8.51117318 C9.51235294,8.91061453 9.60470588,9.43296089 9.60470588,10.047486 C9.60470588,11.2458101 9.2045098,12.1368715 8.37333333,12.8128492 C7.54215686,13.4581006 6.40313725,13.7960894 4.9254902,13.7960894 C4.24823529,13.7960894 3.63254902,13.7039106 3.07843137,13.5502793 C2.49352941,13.3659218 2.00098039,13.1201117 1.60078431,12.7821229 C1.20058824,12.4441341 0.861960784,12.0139665 0.615686275,11.4916201 C0.400196078,10.9692737 0.277058824,10.3854749 0.277058824,9.67877095 L1.53921569,9.67877095 L1.53921569,9.64804469 Z" id="Shape"></path>
                            <path d="M12.4060784,0.675977654 L13.6066667,0.675977654 L13.6066667,8.29608939 C13.6066667,9.89385475 13.9145098,11.0307263 14.4994118,11.7374302 C15.0843137,12.4441341 16.0386275,12.7821229 17.3623529,12.7821229 C18.0396078,12.7821229 18.6245098,12.6899441 19.1170588,12.5055866 C19.6096078,12.3212291 19.9790196,12.0446927 20.2868627,11.6759777 C20.5947059,11.3072626 20.8101961,10.8463687 20.9333333,10.2932961 C21.0564706,9.74022346 21.1180392,9.06424581 21.1180392,8.32681564 L21.1180392,0.706703911 L22.3186275,0.706703911 L22.3186275,8.69553073 C22.3186275,10.3547486 21.9184314,11.6452514 21.0872549,12.5363128 C20.2560784,13.4273743 19.0247059,13.8575419 17.3623529,13.8575419 C15.7,13.8575419 14.4378431,13.396648 13.637451,12.5055866 C12.8062745,11.6145251 12.4060784,10.3240223 12.4060784,8.69553073 L12.4060784,0.675977654 Z" id="Shape"></path>
                            <path d="M25.612549,13.4888268 L25.612549,0.706703911 L30.2917647,0.706703911 C31.1229412,0.706703911 31.8001961,0.798882682 32.3543137,0.983240223 C32.9084314,1.16759777 33.3086275,1.44413408 33.6472549,1.75139665 C33.955098,2.08938547 34.1705882,2.45810056 34.2937255,2.88826816 C34.4168627,3.31843575 34.4784314,3.77932961 34.4784314,4.24022346 C34.4784314,4.94692737 34.3245098,5.53072626 34.047451,5.99162011 C33.7703922,6.45251397 33.3701961,6.82122905 32.9084314,7.09776536 C32.4466667,7.37430168 31.9233333,7.55865922 31.3384314,7.65083799 C30.7535294,7.77374302 30.1686275,7.80446927 29.5529412,7.80446927 L26.8131373,7.80446927 L26.8131373,13.4581006 L25.612549,13.4581006 L25.612549,13.4888268 Z M29.6145098,6.79050279 C30.1994118,6.79050279 30.6919608,6.75977654 31.1537255,6.69832402 C31.6154902,6.63687151 31.984902,6.48324022 32.2927451,6.29888268 C32.6005882,6.11452514 32.8468627,5.83798883 33.0315686,5.5 C33.2162745,5.16201117 33.2778431,4.73184358 33.2778431,4.17877095 C33.2778431,3.37988827 33.0007843,2.76536313 32.477451,2.33519553 C31.9541176,1.93575419 31.1229412,1.72067039 29.9531373,1.72067039 L26.8131373,1.72067039 L26.8131373,6.79050279 L29.6145098,6.79050279 Z" id="Shape"></path>
                            <polygon id="Shape" points="37.0027451 13.4888268 37.0027451 0.706703911 45.53 0.706703911 45.53 1.75139665 38.2033333 1.75139665 38.2033333 6.3603352 44.8219608 6.3603352 44.8219608 7.40502793 38.2033333 7.40502793 38.2033333 12.4748603 45.6839216 12.4748603 45.6839216 13.5195531 37.0027451 13.5195531"></polygon>
                            <path d="M49.5011765,7.68156425 L49.5011765,13.4888268 L48.3005882,13.4888268 L48.3005882,0.706703911 L53.3184314,0.706703911 C54.7345098,0.706703911 55.8119608,0.983240223 56.5507843,1.50558659 C57.2896078,2.02793296 57.6590196,2.88826816 57.6590196,4.08659218 C57.6590196,4.88547486 57.505098,5.53072626 57.1664706,5.99162011 C56.8278431,6.45251397 56.3045098,6.88268156 55.5656863,7.18994413 C55.935098,7.31284916 56.2429412,7.4972067 56.4584314,7.77374302 C56.6739216,8.01955307 56.8278431,8.29608939 56.9509804,8.63407821 C57.0433333,8.94134078 57.1356863,9.27932961 57.1664706,9.64804469 C57.1972549,10.0167598 57.2280392,10.3547486 57.2280392,10.6927374 C57.2280392,11.1843575 57.2588235,11.5837989 57.2896078,11.8910615 C57.3203922,12.198324 57.3511765,12.4748603 57.3819608,12.6592179 C57.4127451,12.8743017 57.4743137,13.027933 57.5358824,13.1201117 C57.597451,13.2430168 57.6590196,13.3044693 57.7513725,13.3659218 L57.7513725,13.4888268 L56.4276471,13.4888268 C56.3045098,13.273743 56.2121569,12.9664804 56.1505882,12.5977654 C56.0890196,12.2290503 56.0582353,11.8296089 56.027451,11.3994413 C55.9966667,11 55.9658824,10.5698324 55.9658824,10.2011173 C55.935098,9.80167598 55.9043137,9.49441341 55.8735294,9.24860335 C55.8119608,8.91061453 55.6888235,8.63407821 55.534902,8.41899441 C55.3809804,8.20391061 55.1962745,8.05027933 54.95,7.95810056 C54.7345098,7.86592179 54.4882353,7.77374302 54.1803922,7.74301676 C53.9033333,7.7122905 53.6262745,7.68156425 53.3184314,7.68156425 L49.5011765,7.68156425 Z M53.2876471,6.63687151 C53.7494118,6.63687151 54.1496078,6.57541899 54.5498039,6.48324022 C54.95,6.39106145 55.2578431,6.23743017 55.5656863,6.02234637 C55.8427451,5.80726257 56.0890196,5.56145251 56.2429412,5.22346369 C56.3968627,4.91620112 56.4892157,4.51675978 56.4892157,4.05586592 C56.4892157,3.59497207 56.3968627,3.19553073 56.2429412,2.88826816 C56.0582353,2.58100559 55.8427451,2.33519553 55.534902,2.15083799 C55.2578431,1.96648045 54.9192157,1.84357542 54.5498039,1.78212291 C54.1803922,1.72067039 53.7801961,1.68994413 53.38,1.68994413 L49.5319608,1.68994413 L49.5319608,6.60614525 L53.2876471,6.60614525 L53.2876471,6.63687151 Z" id="Shape"></path>
                            <polygon id="Shape" points="64.5547059 6.85195531 68.4027451 0.675977654 69.8188235 0.675977654 65.1703922 7.89664804 65.1703922 13.4888268 63.9698039 13.4888268 63.9698039 7.98882682 59.3829412 0.675977654 60.7682353 0.675977654"></polygon>
                            <path d="M70.7731373,13.4888268 L75.8217647,0.706703911 L77.2070588,0.706703911 L82.132549,13.4888268 L80.9011765,13.4888268 L79.4235294,9.46368715 L73.5745098,9.46368715 L72.0660784,13.4888268 L70.7731373,13.4888268 Z M73.9439216,8.44972067 L78.9617647,8.44972067 L76.437451,1.72067039 L73.9439216,8.44972067 Z" id="Shape"></path>
                            <path d="M93.3688235,4.39385475 C93.122549,3.31843575 92.6607843,2.51955307 91.9835294,2.05865922 C91.3062745,1.59776536 90.4135294,1.35195531 89.3360784,1.35195531 C88.5664706,1.35195531 87.8892157,1.50558659 87.335098,1.81284916 C86.7809804,2.12011173 86.3192157,2.55027933 85.9498039,3.0726257 C85.5803922,3.59497207 85.3341176,4.20949721 85.1494118,4.88547486 C84.9647059,5.56145251 84.9031373,6.29888268 84.9031373,7.03631285 C84.9031373,7.74301676 84.9647059,8.44972067 85.1186275,9.12569832 C85.272549,9.80167598 85.5188235,10.4162011 85.857451,10.9692737 C86.1960784,11.5223464 86.6578431,11.952514 87.2427451,12.2597765 C87.8276471,12.5977654 88.5664706,12.7513966 89.4284314,12.7513966 C89.982549,12.7513966 90.475098,12.6592179 90.9368627,12.4748603 C91.3986275,12.2905028 91.7680392,12.0446927 92.1066667,11.7374302 C92.4452941,11.4301676 92.7223529,11.0614525 92.9686275,10.6312849 C93.1841176,10.2011173 93.3688235,9.74022346 93.4919608,9.21787709 L94.7541176,9.21787709 C94.6001961,9.83240223 94.4154902,10.4162011 94.1384314,10.9692737 C93.8613725,11.5223464 93.4919608,12.0139665 93.0609804,12.4134078 C92.63,12.8435754 92.0758824,13.150838 91.4294118,13.396648 C90.7829412,13.6424581 90.0441176,13.7653631 89.2129412,13.7653631 C88.2278431,13.7653631 87.3966667,13.5810056 86.6886275,13.2122905 C85.9805882,12.8435754 85.4264706,12.3519553 84.9647059,11.7374302 C84.5337255,11.122905 84.195098,10.4162011 83.9796078,9.58659218 C83.7641176,8.7877095 83.6717647,7.9273743 83.6717647,7.00558659 C83.6717647,5.77653631 83.8256863,4.76256983 84.1335294,3.90223464 C84.4413725,3.04189944 84.8415686,2.36592179 85.3956863,1.81284916 C85.9190196,1.25977654 86.5654902,0.891061453 87.2735294,0.645251397 C88.0123529,0.399441341 88.7819608,0.276536313 89.6439216,0.276536313 C90.2903922,0.276536313 90.9060784,0.368715084 91.4601961,0.522346369 C92.0143137,0.706703911 92.5376471,0.952513966 92.9686275,1.29050279 C93.3996078,1.62849162 93.7690196,2.05865922 94.0460784,2.55027933 C94.3231373,3.04189944 94.5078431,3.62569832 94.6309804,4.30167598 L93.3688235,4.30167598 L93.3688235,4.39385475 Z" id="Shape"></path>
                            <polygon id="Shape" points="97.5554902 13.4888268 97.5554902 0.706703911 98.7560784 0.706703911 98.7560784 6.20670391 106.32902 6.20670391 106.32902 0.706703911 107.529608 0.706703911 107.529608 13.4888268 106.32902 13.4888268 106.32902 7.22067039 98.7560784 7.22067039 98.7560784 13.4888268"></polygon>
                            <polygon id="Shape" points="109.715294 0.675977654 119.042941 0.675977654 119.042941 1.72067039 114.979412 1.72067039 114.979412 13.4888268 113.778824 13.4888268 113.778824 1.72067039 109.715294 1.72067039 109.715294 0.675977654"></polygon>
                            <path d="M10.1588235,24.9189944 C9.91254902,23.8435754 9.45078431,23.0446927 8.77352941,22.5837989 C8.09627451,22.122905 7.20352941,21.877095 6.12607843,21.877095 C5.35647059,21.877095 4.67921569,22.0307263 4.12509804,22.3379888 C3.57098039,22.6452514 3.10921569,23.075419 2.73980392,23.5977654 C2.37039216,24.1201117 2.12411765,24.7346369 1.93941176,25.4106145 C1.75470588,26.0865922 1.69313725,26.8240223 1.69313725,27.5614525 C1.69313725,28.2681564 1.75470588,28.9748603 1.90862745,29.650838 C2.06254902,30.3268156 2.30882353,30.9413408 2.64745098,31.4944134 C2.98607843,32.047486 3.44784314,32.4776536 4.0327451,32.8156425 C4.61764706,33.1536313 5.35647059,33.3072626 6.21843137,33.3072626 C6.77254902,33.3072626 7.26509804,33.2150838 7.72686275,33.0307263 C8.18862745,32.8463687 8.58882353,32.6005587 8.89666667,32.2932961 C9.23529412,31.9860335 9.51235294,31.6173184 9.75862745,31.1871508 C10.004902,30.7569832 10.1588235,30.2960894 10.2819608,29.773743 L11.5441176,29.773743 C11.3901961,30.3882682 11.2054902,30.972067 10.9284314,31.5251397 C10.6513725,32.0782123 10.3127451,32.5698324 9.85098039,32.9692737 C9.42,33.3994413 8.86588235,33.7067039 8.21941176,33.952514 C7.57294118,34.198324 6.83411765,34.3212291 5.97215686,34.3212291 C4.98705882,34.3212291 4.15588235,34.1368715 3.44784314,33.7681564 C2.73980392,33.3994413 2.18568627,32.9078212 1.72392157,32.2932961 C1.29294118,31.6787709 0.954313725,30.972067 0.769607843,30.1424581 C0.554117647,29.3435754 0.461764706,28.4832402 0.461764706,27.5614525 C0.461764706,26.3324022 0.615686275,25.3184358 0.923529412,24.4581006 C1.23137255,23.5977654 1.63156863,22.9217877 2.18568627,22.3687151 C2.70901961,21.8156425 3.3554902,21.4469274 4.06352941,21.2011173 C4.80235294,20.9553073 5.57196078,20.8324022 6.43392157,20.8324022 C7.08039216,20.8324022 7.69607843,20.924581 8.25019608,21.0782123 C8.80431373,21.2625698 9.29686275,21.5083799 9.75862745,21.8463687 C10.1896078,22.1843575 10.5590196,22.6145251 10.8360784,23.1061453 C11.1131373,23.5977654 11.2978431,24.1815642 11.4209804,24.8575419 L10.1588235,24.8575419 L10.1588235,24.9189944 Z" id="Shape"></path>
                            <path d="M13.8529412,27.622905 C13.8529412,26.7011173 13.9760784,25.8100559 14.2223529,24.9804469 C14.4686275,24.150838 14.8380392,23.4441341 15.3613725,22.8296089 C15.8539216,22.2150838 16.4696078,21.7234637 17.2084314,21.3854749 C17.9472549,21.0167598 18.7784314,20.8631285 19.7635294,20.8631285 C20.7486275,20.8631285 21.6413725,21.047486 22.3801961,21.3854749 C23.1190196,21.7234637 23.7654902,22.2150838 24.2580392,22.8296089 C24.7505882,23.4441341 25.1507843,24.150838 25.3970588,24.9804469 C25.6433333,25.8100559 25.7664706,26.6703911 25.7664706,27.622905 C25.7664706,28.5446927 25.6433333,29.4050279 25.3970588,30.2346369 C25.1507843,31.0335196 24.7813725,31.7709497 24.2580392,32.3547486 C23.7654902,32.9692737 23.1498039,33.4608939 22.3801961,33.7988827 C21.6413725,34.1675978 20.7794118,34.3212291 19.7943137,34.3212291 C18.8092157,34.3212291 17.9472549,34.1368715 17.2084314,33.7988827 C16.4696078,33.4301676 15.8539216,32.9692737 15.3305882,32.3547486 C14.8380392,31.7402235 14.4686275,31.0335196 14.2223529,30.2346369 C13.9760784,29.4357542 13.8529412,28.5446927 13.8529412,27.622905 Z M19.825098,33.3072626 C20.6562745,33.3072626 21.3643137,33.1536313 21.98,32.8463687 C22.564902,32.5391061 23.0882353,32.1089385 23.4576471,31.5865922 C23.8578431,31.0642458 24.134902,30.4497207 24.3196078,29.773743 C24.5043137,29.0977654 24.5966667,28.3603352 24.5966667,27.622905 C24.5966667,26.7318436 24.4735294,25.9329609 24.2580392,25.226257 C24.042549,24.5195531 23.7347059,23.9050279 23.3037255,23.4134078 C22.9035294,22.9217877 22.3801961,22.5223464 21.7952941,22.2765363 C21.2103922,22.0307263 20.5331373,21.877095 19.7943137,21.877095 C18.9631373,21.877095 18.255098,22.0307263 17.6701961,22.3687151 C17.0852941,22.6759777 16.5619608,23.1061453 16.192549,23.6284916 C15.8231373,24.150838 15.5152941,24.7653631 15.3305882,25.4413408 C15.1458824,26.1173184 15.0535294,26.8547486 15.0535294,27.5921788 C15.0535294,28.3603352 15.1458824,29.0670391 15.3305882,29.773743 C15.5152941,30.4497207 15.7923529,31.0642458 16.192549,31.5865922 C16.5927451,32.1089385 17.0852941,32.5083799 17.6701961,32.8463687 C18.255098,33.1536313 18.9939216,33.3072626 19.825098,33.3072626 Z" id="Shape"></path>
                            <polygon id="Shape" points="28.5986275 34.0139665 28.5986275 21.2011173 30.4456863 21.2011173 34.6323529 32.4776536 34.6631373 32.4776536 38.7882353 21.2011173 40.6352941 21.2011173 40.6352941 33.9832402 39.4347059 33.9832402 39.4347059 22.5837989 39.4039216 22.5837989 35.2172549 33.9832402 34.0782353 33.9832402 29.8607843 22.5837989 29.83 22.5837989 29.83 33.9832402 28.5986275 33.9832402"></polygon>
                            <polygon id="Shape" points="43.8676471 34.0139665 43.8676471 21.2011173 45.7147059 21.2011173 49.9013725 32.4776536 49.9321569 32.4776536 54.0572549 21.2011173 55.9043137 21.2011173 55.9043137 33.9832402 54.7037255 33.9832402 54.7037255 22.5837989 54.6729412 22.5837989 50.4862745 33.9832402 49.3472549 33.9832402 45.1298039 22.5837989 45.0990196 22.5837989 45.0990196 33.9832402 43.8676471 33.9832402"></polygon>
                            <path d="M59.1982353,21.2011173 L60.3988235,21.2011173 L60.3988235,28.8212291 C60.3988235,30.4189944 60.7066667,31.5558659 61.2915686,32.2625698 C61.8764706,32.9692737 62.8307843,33.3072626 64.1545098,33.3072626 C64.8317647,33.3072626 65.4166667,33.2150838 65.9092157,33.0307263 C66.4017647,32.8463687 66.7711765,32.5698324 67.0790196,32.2011173 C67.3868627,31.8324022 67.6023529,31.3715084 67.7254902,30.8184358 C67.8486275,30.2653631 67.9101961,29.6201117 67.9101961,28.8519553 L67.9101961,21.2011173 L69.1107843,21.2011173 L69.1107843,29.1899441 C69.1107843,30.849162 68.7105882,32.1396648 67.8794118,33.0307263 C67.0482353,33.9217877 65.8168627,34.3519553 64.1545098,34.3519553 C62.4921569,34.3519553 61.23,33.8910615 60.4296078,33 C59.5984314,32.1089385 59.1982353,30.8184358 59.1982353,29.1899441 L59.1982353,21.2011173 Z" id="Shape"></path>
                            <polygon id="Shape" points="73.6976471 22.8603352 73.6668627 22.8603352 73.6668627 34.0139665 72.4662745 34.0139665 72.4662745 21.2011173 73.8207843 21.2011173 81.2398039 32.3854749 81.2705882 32.3854749 81.2705882 21.2011173 82.4711765 21.2011173 82.4711765 33.9832402 81.055098 33.9832402"></polygon>
                            <polygon id="Shape" points="86.2268627 34.0139665 86.2268627 21.2011173 87.427451 21.2011173 87.427451 33.9832402 86.2268627 33.9832402"></polygon>
                            <path d="M100.26451,24.9189944 C100.018235,23.8435754 99.5564706,23.0446927 98.8792157,22.5837989 C98.2019608,22.122905 97.3092157,21.877095 96.2317647,21.877095 C95.4621569,21.877095 94.784902,22.0307263 94.2307843,22.3379888 C93.6766667,22.6452514 93.214902,23.075419 92.8454902,23.5977654 C92.4760784,24.1201117 92.2298039,24.7346369 92.045098,25.4106145 C91.8603922,26.0865922 91.7988235,26.8240223 91.7988235,27.5614525 C91.7988235,28.2681564 91.8603922,28.9748603 92.0143137,29.650838 C92.1682353,30.3268156 92.4145098,30.9413408 92.7531373,31.4944134 C93.0917647,32.047486 93.5535294,32.4776536 94.1384314,32.8156425 C94.7233333,33.1536313 95.4621569,33.3072626 96.3241176,33.3072626 C96.8782353,33.3072626 97.3707843,33.2150838 97.832549,33.0307263 C98.2943137,32.8463687 98.6945098,32.6005587 99.0023529,32.2932961 C99.3409804,31.9860335 99.6180392,31.6173184 99.8643137,31.1871508 C100.110588,30.7569832 100.26451,30.2960894 100.387647,29.773743 L101.649804,29.773743 C101.495882,30.3882682 101.311176,30.972067 101.034118,31.5251397 C100.757059,32.0782123 100.418431,32.5698324 99.9566667,32.9692737 C99.5256863,33.3994413 98.9715686,33.7067039 98.325098,33.952514 C97.6786275,34.198324 96.9398039,34.3212291 96.0778431,34.3212291 C95.0927451,34.3212291 94.2615686,34.1368715 93.5535294,33.7681564 C92.8454902,33.3994413 92.2913725,32.9078212 91.8296078,32.2932961 C91.3986275,31.6787709 91.06,30.972067 90.8752941,30.1424581 C90.6598039,29.3435754 90.567451,28.4832402 90.567451,27.5614525 C90.567451,26.3324022 90.7213725,25.3184358 91.0292157,24.4581006 C91.3370588,23.5977654 91.7372549,22.9217877 92.2913725,22.3687151 C92.8147059,21.8156425 93.4611765,21.4469274 94.1692157,21.2011173 C94.9080392,20.9553073 95.6776471,20.8324022 96.5396078,20.8324022 C97.1860784,20.8324022 97.8017647,20.924581 98.3558824,21.0782123 C98.91,21.2625698 99.402549,21.5083799 99.8643137,21.8463687 C100.295294,22.1843575 100.664706,22.6145251 100.941765,23.1061453 C101.218824,23.5977654 101.403529,24.1815642 101.526667,24.8575419 L100.26451,24.8575419 L100.26451,24.9189944 Z" id="Shape"></path>
                            <path d="M103.312157,34.0139665 L108.360784,21.2318436 L109.715294,21.2318436 L114.640784,34.0139665 L113.409412,34.0139665 L111.931765,29.9888268 L106.082745,29.9888268 L104.574314,34.0139665 L103.312157,34.0139665 Z M106.482941,28.9748603 L111.500784,28.9748603 L108.976471,22.2458101 L106.482941,28.9748603 Z" id="Shape"></path>
                            <polygon id="Shape" points="115.625882 21.2011173 124.953529 21.2011173 124.953529 22.2458101 120.89 22.2458101 120.89 34.0139665 119.689412 34.0139665 119.689412 22.2458101 115.625882 22.2458101 115.625882 21.2011173"></polygon>
                            <polygon id="Shape" points="127.570196 34.0139665 127.570196 21.2011173 128.770784 21.2011173 128.770784 33.9832402 127.570196 33.9832402"></polygon>
                            <path d="M132.033922,27.622905 C132.033922,26.7011173 132.157059,25.8100559 132.403333,24.9804469 C132.649608,24.150838 133.049804,23.4441341 133.542353,22.8296089 C134.034902,22.2150838 134.650588,21.7234637 135.389412,21.3854749 C136.128235,21.0167598 136.959412,20.8631285 137.94451,20.8631285 C138.929608,20.8631285 139.822353,21.047486 140.561176,21.3854749 C141.3,21.7234637 141.946471,22.2150838 142.43902,22.8296089 C142.931569,23.4441341 143.331765,24.150838 143.578039,24.9804469 C143.824314,25.8100559 143.947451,26.6703911 143.947451,27.622905 C143.947451,28.5446927 143.824314,29.4050279 143.578039,30.2346369 C143.331765,31.0335196 142.931569,31.7709497 142.43902,32.3547486 C141.946471,32.9692737 141.330784,33.4608939 140.561176,33.7988827 C139.822353,34.1675978 138.960392,34.3212291 137.975294,34.3212291 C136.990196,34.3212291 136.128235,34.1368715 135.389412,33.7988827 C134.650588,33.4301676 134.004118,32.9692737 133.511569,32.3547486 C133.01902,31.7402235 132.649608,31.0335196 132.403333,30.2346369 C132.157059,29.4357542 132.033922,28.5446927 132.033922,27.622905 Z M138.006078,33.3072626 C138.837255,33.3072626 139.545294,33.1536313 140.16098,32.8463687 C140.745882,32.5391061 141.238431,32.1089385 141.638627,31.5865922 C142.038824,31.0642458 142.315882,30.4497207 142.500588,29.773743 C142.685294,29.0977654 142.777647,28.3603352 142.777647,27.622905 C142.777647,26.7318436 142.65451,25.9329609 142.43902,25.226257 C142.223529,24.5195531 141.915686,23.9050279 141.484706,23.4134078 C141.08451,22.9217877 140.561176,22.5223464 139.976275,22.2765363 C139.391373,22.0307263 138.714118,21.877095 137.975294,21.877095 C137.144118,21.877095 136.436078,22.0307263 135.851176,22.3687151 C135.266275,22.6759777 134.773725,23.1061453 134.373529,23.6284916 C133.973333,24.150838 133.696275,24.7653631 133.511569,25.4413408 C133.326863,26.1173184 133.23451,26.8547486 133.23451,27.5921788 C133.23451,28.3603352 133.326863,29.0670391 133.511569,29.773743 C133.696275,30.4497207 133.973333,31.0642458 134.373529,31.5865922 C134.773725,32.1089385 135.266275,32.5083799 135.851176,32.8463687 C136.436078,33.1536313 137.174902,33.3072626 138.006078,33.3072626 Z" id="Shape"></path>
                            <polygon id="Shape" points="148.041765 22.8603352 148.01098 22.8603352 148.01098 34.0139665 146.810392 34.0139665 146.810392 21.2011173 148.195686 21.2011173 155.614706 32.3854749 155.64549 32.3854749 155.64549 21.2011173 156.846078 21.2011173 156.846078 33.9832402 155.43 33.9832402"></polygon>
                            <path d="M1.53921569,50.698324 C1.60078431,51.2821229 1.72392157,51.7430168 1.90862745,52.1424581 C2.12411765,52.5418994 2.37039216,52.849162 2.70901961,53.1256983 C3.04764706,53.3715084 3.41705882,53.5558659 3.84803922,53.6787709 C4.27901961,53.801676 4.74078431,53.8631285 5.20254902,53.8631285 C5.78745098,53.8631285 6.28,53.801676 6.68019608,53.6480447 C7.11117647,53.4944134 7.44980392,53.3100559 7.69607843,53.0642458 C7.94235294,52.8184358 8.15784314,52.5418994 8.28098039,52.2346369 C8.40411765,51.9273743 8.46568627,51.5893855 8.46568627,51.2206704 C8.46568627,50.7290503 8.34254902,50.3296089 8.12705882,50.0223464 C7.91156863,49.7150838 7.60372549,49.4692737 7.23431373,49.2541899 C6.86490196,49.0698324 6.46470588,48.9162011 6.00294118,48.7932961 C5.54117647,48.6703911 5.04862745,48.547486 4.55607843,48.4553073 C4.06352941,48.3324022 3.57098039,48.2094972 3.10921569,48.0558659 C2.64745098,47.9022346 2.21647059,47.6871508 1.84705882,47.4413408 C1.47764706,47.1955307 1.20058824,46.8575419 0.954313725,46.4273743 C0.738823529,46.027933 0.615686275,45.5055866 0.615686275,44.8603352 C0.615686275,44.4301676 0.708039216,44 0.892745098,43.5698324 C1.07745098,43.1703911 1.3545098,42.801676 1.72392157,42.4636872 C2.09333333,42.1564246 2.52431373,41.8798883 3.07843137,41.6955307 C3.63254902,41.5111732 4.24823529,41.4189944 4.95627451,41.4189944 C5.69509804,41.4189944 6.31078431,41.5111732 6.86490196,41.726257 C7.41901961,41.9413408 7.85,42.2178771 8.21941176,42.5558659 C8.58882353,42.8938547 8.83509804,43.3240223 9.01980392,43.7849162 C9.2045098,44.2458101 9.29686275,44.7374302 9.29686275,45.2597765 L8.12705882,45.2597765 C8.12705882,44.7681564 8.03470588,44.3687151 7.88078431,44 C7.69607843,43.6312849 7.48058824,43.3547486 7.1727451,43.1396648 C6.86490196,42.924581 6.52627451,42.7402235 6.15686275,42.6480447 C5.78745098,42.5558659 5.3872549,42.4944134 4.98705882,42.4944134 C4.37137255,42.4944134 3.84803922,42.5865922 3.41705882,42.7402235 C2.98607843,42.924581 2.64745098,43.1396648 2.40117647,43.4162011 C2.15490196,43.6927374 1.97019608,44 1.87784314,44.3072626 C1.7854902,44.6452514 1.75470588,44.9832402 1.81627451,45.2905028 C1.87784314,45.6899441 2.06254902,46.027933 2.30882353,46.273743 C2.55509804,46.5195531 2.89372549,46.7346369 3.26313725,46.8882682 C3.63254902,47.0418994 4.06352941,47.1648045 4.52529412,47.2877095 C4.98705882,47.3798883 5.44882353,47.5027933 5.91058824,47.5949721 C6.37235294,47.7178771 6.83411765,47.8407821 7.29588235,47.9944134 C7.72686275,48.1480447 8.12705882,48.3631285 8.46568627,48.6089385 C8.80431373,48.8547486 9.08137255,49.1927374 9.29686275,49.622905 C9.51235294,50.0223464 9.60470588,50.5446927 9.60470588,51.1592179 C9.60470588,52.3575419 9.2045098,53.2486034 8.37333333,53.924581 C7.54215686,54.5698324 6.40313725,54.9078212 4.9254902,54.9078212 C4.24823529,54.9078212 3.63254902,54.8156425 3.07843137,54.6620112 C2.49352941,54.4776536 2.00098039,54.2318436 1.60078431,53.8938547 C1.20058824,53.5558659 0.861960784,53.1256983 0.615686275,52.603352 C0.400196078,52.0810056 0.277058824,51.4664804 0.277058824,50.7905028 L1.53921569,50.7905028 L1.53921569,50.698324 Z" id="Shape"></path>
                            <path d="M12.3137255,54.5391061 L12.3137255,41.7569832 L16.9929412,41.7569832 C17.8241176,41.7569832 18.5013725,41.849162 19.0554902,42.0335196 C19.6096078,42.2178771 20.0098039,42.4944134 20.3484314,42.801676 C20.6562745,43.1396648 20.8717647,43.5083799 20.994902,43.9385475 C21.1180392,44.3687151 21.1796078,44.8296089 21.1796078,45.2905028 C21.1796078,45.9972067 21.0256863,46.5810056 20.7486275,47.0418994 C20.4715686,47.5027933 20.0713725,47.8715084 19.6096078,48.1480447 C19.1478431,48.424581 18.6245098,48.6089385 18.0396078,48.7011173 C17.4547059,48.7932961 16.8698039,48.8547486 16.2541176,48.8547486 L13.545098,48.8547486 L13.545098,54.5083799 L12.3137255,54.5083799 L12.3137255,54.5391061 Z M16.3156863,47.8407821 C16.8698039,47.8407821 17.3931373,47.8100559 17.854902,47.7486034 C18.3166667,47.6871508 18.6860784,47.5335196 18.9939216,47.349162 C19.3017647,47.1648045 19.5480392,46.8882682 19.7327451,46.5502793 C19.917451,46.2122905 19.9790196,45.7821229 19.9790196,45.2290503 C19.9790196,44.4301676 19.7019608,43.8156425 19.1786275,43.3854749 C18.6552941,42.9553073 17.8241176,42.7709497 16.6543137,42.7709497 L13.545098,42.7709497 L13.545098,47.8407821 L16.3156863,47.8407821 Z" id="Shape"></path>
                            <polygon id="Shape" points="23.7039216 54.5391061 23.7039216 41.7569832 32.2311765 41.7569832 32.2311765 42.801676 24.9045098 42.801676 24.9045098 47.4106145 31.5231373 47.4106145 31.5231373 48.4553073 24.9045098 48.4553073 24.9045098 53.5251397 32.385098 53.5251397 32.385098 54.5391061 23.7039216 54.5391061"></polygon>
                            <path d="M44.1139216,45.4441341 C43.8676471,44.3687151 43.4058824,43.5698324 42.7286275,43.1089385 C42.0513725,42.6480447 41.1586275,42.4022346 40.0811765,42.4022346 C39.3115686,42.4022346 38.6343137,42.5558659 38.0801961,42.8631285 C37.5260784,43.1703911 37.0643137,43.6005587 36.694902,44.0921788 C36.3254902,44.6145251 36.0792157,45.2290503 35.8945098,45.9050279 C35.7098039,46.5810056 35.6482353,47.3184358 35.6482353,48.0558659 C35.6482353,48.7625698 35.7098039,49.4692737 35.8637255,50.1452514 C36.0176471,50.8212291 36.2639216,51.4357542 36.602549,51.9888268 C36.9411765,52.5418994 37.4029412,52.972067 37.9878431,53.3100559 C38.5727451,53.6480447 39.3115686,53.801676 40.1735294,53.801676 C40.7276471,53.801676 41.2201961,53.7094972 41.6819608,53.5251397 C42.1437255,53.3407821 42.5439216,53.0949721 42.8517647,52.7877095 C43.1903922,52.4804469 43.467451,52.1117318 43.7137255,51.6815642 C43.96,51.2513966 44.1139216,50.7905028 44.2370588,50.2681564 L45.4992157,50.2681564 C45.3452941,50.8826816 45.1605882,51.4664804 44.8835294,52.0195531 C44.6064706,52.5726257 44.2678431,53.0642458 43.8060784,53.4636872 C43.375098,53.8938547 42.8209804,54.2011173 42.1745098,54.4469274 C41.5280392,54.6927374 40.7892157,54.8156425 39.9272549,54.8156425 C38.9421569,54.8156425 38.1109804,54.6312849 37.4029412,54.2625698 C36.694902,53.8938547 36.1407843,53.4022346 35.6790196,52.7877095 C35.2480392,52.1731844 34.9094118,51.4664804 34.7247059,50.6368715 C34.5092157,49.8379888 34.4168627,48.9776536 34.4168627,48.0558659 C34.4168627,46.8268156 34.5707843,45.8128492 34.8786275,44.952514 C35.1864706,44.0921788 35.5866667,43.4162011 36.1407843,42.8631285 C36.6641176,42.3100559 37.3105882,41.9413408 38.0186275,41.6955307 C38.757451,41.4497207 39.5270588,41.3268156 40.3890196,41.3268156 C41.0354902,41.3268156 41.6511765,41.4189944 42.2052941,41.5726257 C42.7594118,41.7569832 43.2519608,42.0027933 43.7137255,42.3407821 C44.1447059,42.6787709 44.5141176,43.1089385 44.7911765,43.6005587 C45.0682353,44.0921788 45.2529412,44.6759777 45.3760784,45.3519553 L44.1139216,45.3519553 L44.1139216,45.4441341 Z" id="Shape"></path>
                            <polygon id="Shape" points="48.7315686 54.5391061 48.7315686 41.7569832 49.9321569 41.7569832 49.9321569 54.5391061"></polygon>
                            <path d="M52.5488235,54.5391061 L57.597451,41.7569832 L58.9519608,41.7569832 L63.877451,54.5391061 L62.6460784,54.5391061 L61.1684314,50.5139665 L55.3194118,50.5139665 L53.8109804,54.5391061 L52.5488235,54.5391061 Z M55.6888235,49.5 L60.7066667,49.5 L58.1823529,42.7709497 L55.6888235,49.5 Z" id="Shape"></path>
                            <polygon id="Shape" points="66.0323529 54.5391061 66.0323529 41.7569832 67.2329412 41.7569832 67.2329412 53.5251397 74.0978431 53.5251397 74.0978431 54.5391061"></polygon>
                            <polygon id="Shape" points="76.8068627 54.5391061 76.8068627 41.7569832 78.007451 41.7569832 78.007451 54.5391061"></polygon>
                            <path d="M82.2556863,50.698324 C82.3172549,51.2821229 82.4403922,51.7430168 82.625098,52.1424581 C82.8405882,52.5418994 83.0868627,52.849162 83.4254902,53.1256983 C83.7641176,53.3715084 84.1335294,53.5558659 84.5645098,53.6787709 C84.9954902,53.801676 85.4572549,53.8631285 85.9190196,53.8631285 C86.5039216,53.8631285 86.9964706,53.801676 87.3966667,53.6480447 C87.8276471,53.4944134 88.1662745,53.3100559 88.412549,53.0642458 C88.6588235,52.8184358 88.8743137,52.5418994 88.997451,52.2346369 C89.1205882,51.9273743 89.1821569,51.5893855 89.1821569,51.2206704 C89.1821569,50.7290503 89.0590196,50.3296089 88.8435294,50.0223464 C88.6280392,49.7150838 88.3201961,49.4692737 87.9507843,49.2541899 C87.5813725,49.0698324 87.1811765,48.9162011 86.7194118,48.7932961 C86.2576471,48.6703911 85.765098,48.547486 85.272549,48.4553073 C84.78,48.3324022 84.287451,48.2094972 83.8256863,48.0558659 C83.3639216,47.9022346 82.9329412,47.6871508 82.5635294,47.4413408 C82.1941176,47.1955307 81.9170588,46.8575419 81.6707843,46.4273743 C81.4552941,46.027933 81.3321569,45.5055866 81.3321569,44.8603352 C81.3321569,44.4301676 81.4245098,44 81.6092157,43.5698324 C81.7939216,43.1703911 82.0709804,42.801676 82.4403922,42.4636872 C82.8098039,42.1564246 83.2407843,41.8798883 83.794902,41.6955307 C84.3490196,41.5111732 84.9647059,41.4189944 85.6727451,41.4189944 C86.4115686,41.4189944 87.0272549,41.5111732 87.5813725,41.726257 C88.1354902,41.9413408 88.5664706,42.2178771 88.9358824,42.5558659 C89.3052941,42.8938547 89.5515686,43.3240223 89.7362745,43.7849162 C89.9209804,44.2458101 90.0133333,44.7374302 90.0133333,45.2597765 L88.8435294,45.2597765 C88.8435294,44.7681564 88.7511765,44.3687151 88.5972549,44 C88.412549,43.6312849 88.1970588,43.3547486 87.8892157,43.1396648 C87.5813725,42.924581 87.2427451,42.7402235 86.8733333,42.6480447 C86.5039216,42.5558659 86.1037255,42.4944134 85.7035294,42.4944134 C85.0878431,42.4944134 84.5645098,42.5865922 84.1335294,42.7402235 C83.702549,42.924581 83.3639216,43.1396648 83.1176471,43.4162011 C82.8713725,43.6927374 82.6866667,44 82.5943137,44.3072626 C82.5019608,44.6452514 82.4711765,44.9832402 82.5327451,45.2905028 C82.5943137,45.6899441 82.7790196,46.027933 83.0252941,46.273743 C83.2715686,46.5195531 83.6101961,46.7346369 83.9796078,46.8882682 C84.3490196,47.0418994 84.78,47.1648045 85.2417647,47.2877095 C85.7035294,47.3798883 86.1652941,47.5027933 86.6270588,47.5949721 C87.0888235,47.7178771 87.5505882,47.8407821 88.0123529,47.9944134 C88.4433333,48.1480447 88.8435294,48.3631285 89.1821569,48.6089385 C89.5207843,48.8547486 89.7978431,49.1927374 90.0133333,49.622905 C90.2288235,50.0223464 90.3211765,50.5446927 90.3211765,51.1592179 C90.3211765,52.3575419 89.9209804,53.2486034 89.0898039,53.924581 C88.2586275,54.5698324 87.1196078,54.9078212 85.6419608,54.9078212 C84.9647059,54.9078212 84.3490196,54.8156425 83.794902,54.6620112 C83.21,54.4776536 82.7482353,54.2318436 82.3172549,53.8938547 C81.9170588,53.5558659 81.5784314,53.1256983 81.3321569,52.603352 C81.1166667,52.0810056 80.9935294,51.4664804 80.9935294,50.7905028 L82.2556863,50.7905028 L82.2556863,50.698324 Z" id="Shape"></path>
                            <polygon id="Shape" points="91.9219608 41.726257 101.249608 41.726257 101.249608 42.7709497 97.1860784 42.7709497 97.1860784 54.5391061 95.9854902 54.5391061 95.9854902 42.7709497 91.9219608 42.7709497 91.9219608 41.726257"></polygon>
                            <path d="M103.927843,50.698324 C103.989412,51.2821229 104.112549,51.7430168 104.297255,52.1424581 C104.512745,52.5418994 104.75902,52.849162 105.097647,53.1256983 C105.436275,53.3715084 105.805686,53.5558659 106.236667,53.6787709 C106.667647,53.801676 107.129412,53.8631285 107.591176,53.8631285 C108.176078,53.8631285 108.668627,53.801676 109.068824,53.6480447 C109.499804,53.4944134 109.838431,53.3100559 110.084706,53.0642458 C110.33098,52.8184358 110.546471,52.5418994 110.669608,52.2346369 C110.792745,51.9273743 110.854314,51.5893855 110.854314,51.2206704 C110.854314,50.7290503 110.731176,50.3296089 110.515686,50.0223464 C110.300196,49.7150838 109.992353,49.4692737 109.622941,49.2541899 C109.253529,49.0698324 108.853333,48.9162011 108.391569,48.7932961 C107.929804,48.6703911 107.437255,48.547486 106.944706,48.4553073 C106.452157,48.3324022 105.959608,48.2094972 105.497843,48.0558659 C105.036078,47.9022346 104.605098,47.6871508 104.266471,47.4413408 C103.897059,47.1955307 103.62,46.8575419 103.373725,46.4273743 C103.158235,46.027933 103.035098,45.5055866 103.035098,44.8603352 C103.035098,44.4301676 103.127451,44 103.312157,43.5698324 C103.496863,43.1703911 103.773922,42.801676 104.143333,42.4636872 C104.512745,42.1564246 104.943725,41.8798883 105.497843,41.6955307 C106.051961,41.5111732 106.667647,41.4189944 107.375686,41.4189944 C108.11451,41.4189944 108.730196,41.5111732 109.284314,41.726257 C109.838431,41.9413408 110.269412,42.2178771 110.638824,42.5558659 C111.008235,42.8938547 111.25451,43.3240223 111.439216,43.7849162 C111.623922,44.2458101 111.716275,44.7374302 111.716275,45.2597765 L110.546471,45.2597765 C110.546471,44.7681564 110.454118,44.3687151 110.300196,44 C110.11549,43.6312849 109.9,43.3547486 109.592157,43.1396648 C109.284314,42.924581 108.945686,42.7402235 108.576275,42.6480447 C108.206863,42.5558659 107.806667,42.4944134 107.406471,42.4944134 C106.790784,42.4944134 106.267451,42.5865922 105.836471,42.7402235 C105.40549,42.924581 105.066863,43.1396648 104.820588,43.4162011 C104.574314,43.6927374 104.389608,44 104.297255,44.3072626 C104.204902,44.6452514 104.174118,44.9832402 104.235686,45.2905028 C104.297255,45.6899441 104.481961,46.027933 104.728235,46.273743 C104.97451,46.5195531 105.313137,46.7346369 105.682549,46.8882682 C106.051961,47.0418994 106.482941,47.1648045 106.944706,47.2877095 C107.406471,47.3798883 107.868235,47.5027933 108.33,47.5949721 C108.791765,47.7178771 109.253529,47.8407821 109.715294,47.9944134 C110.146275,48.1480447 110.546471,48.3631285 110.885098,48.6089385 C111.223725,48.8547486 111.500784,49.1927374 111.716275,49.622905 C111.931765,50.0223464 112.024118,50.5446927 112.024118,51.1592179 C112.024118,52.3575419 111.623922,53.2486034 110.792745,53.924581 C109.961569,54.5698324 108.822549,54.9078212 107.344902,54.9078212 C106.667647,54.9078212 106.051961,54.8156425 105.497843,54.6620112 C104.912941,54.4776536 104.451176,54.2318436 104.020196,53.8938547 C103.62,53.5558659 103.281373,53.1256983 103.035098,52.603352 C102.819608,52.0810056 102.696471,51.4664804 102.696471,50.7905028 L103.927843,50.7905028 L103.927843,50.698324 Z" id="Shape"></path>
                        </g>
                    </g>
                </g>
            </g>
        </g>
    </g>
</svg>