<?xml version="1.0" encoding="UTF-8"?>
<svg width="287px" height="287px" viewBox="0 0 287 287" version="1.1" xmlns="http://www.w3.org/2000/svg" xmlns:xlink="http://www.w3.org/1999/xlink">
    <!-- Generator: Sketch 51.2 (57519) - http://www.bohemiancoding.com/sketch -->
    <title>lines-img</title>
    <desc>Created with Sketch.</desc>
    <defs>
        <rect id="path-1" x="0" y="0" width="287" height="287"></rect>
    </defs>
    <g id="Page-1" stroke="none" stroke-width="1" fill="none" fill-rule="evenodd">
        <g id="Team-pop-up" transform="translate(-457.000000, -1598.000000)">
            <g id="lines-img" transform="translate(600.500000, 1741.500000) rotate(-270.000000) translate(-600.500000, -1741.500000) translate(457.000000, 1598.000000)">
                <mask id="mask-2" fill="white">
                    <use xlink:href="#path-1"></use>
                </mask>
                <g id="Mask"></g>
                <g id="Group-137" mask="url(#mask-2)" stroke="#E30D13" stroke-width="0.5">
                    <g transform="translate(-321.000000, -31.000000)">
                        <path d="M0,0 L323,322" id="Stroke-1"></path>
                        <path d="M8,0 L331,322" id="Stroke-3"></path>
                        <path d="M15,0 L338,322" id="Stroke-5"></path>
                        <path d="M22,0 L345,322" id="Stroke-7"></path>
                        <path d="M30,0 L353,322" id="Stroke-9"></path>
                        <path d="M37,0 L360,322" id="Stroke-11"></path>
                        <path d="M45,0 L368,322" id="Stroke-13"></path>
                        <path d="M52,0 L375,322" id="Stroke-15"></path>
                        <path d="M60,0 L383,322" id="Stroke-17"></path>
                        <path d="M67,0 L390,322" id="Stroke-19"></path>
                        <path d="M74,0 L397,322" id="Stroke-21"></path>
                        <path d="M82,0 L405,322" id="Stroke-23"></path>
                        <path d="M90,0 L413,322" id="Stroke-25"></path>
                        <path d="M98,0 L421,322" id="Stroke-27"></path>
                        <path d="M105,0 L428,322" id="Stroke-29"></path>
                        <path d="M112,0 L435,322" id="Stroke-31"></path>
                        <path d="M120,0 L443,322" id="Stroke-33"></path>
                        <path d="M127,0 L450,322" id="Stroke-35"></path>
                        <path d="M135,0 L458,322" id="Stroke-37"></path>
                        <path d="M142,0 L465,322" id="Stroke-39"></path>
                        <path d="M150,0 L473,322" id="Stroke-41"></path>
                        <path d="M157,0 L480,322" id="Stroke-43"></path>
                        <path d="M164,0 L487,322" id="Stroke-45"></path>
                        <path d="M172,0 L495,322" id="Stroke-47"></path>
                        <path d="M179,0 L502,322" id="Stroke-49"></path>
                        <path d="M187,0 L510,322" id="Stroke-51"></path>
                        <path d="M194,0 L517,322" id="Stroke-53"></path>
                        <path d="M201,0 L524,322" id="Stroke-55"></path>
                        <path d="M209,0 L532,322" id="Stroke-57"></path>
                        <path d="M216,0 L539,322" id="Stroke-59"></path>
                        <path d="M224,0 L547,322" id="Stroke-61"></path>
                        <path d="M231,0 L554,322" id="Stroke-63"></path>
                        <path d="M239,0 L562,322" id="Stroke-65"></path>
                        <path d="M247,0 L570,322" id="Stroke-67"></path>
                        <path d="M254,0 L577,322" id="Stroke-69"></path>
                        <path d="M262,0 L585,322" id="Stroke-71"></path>
                        <path d="M269,0 L592,322" id="Stroke-73"></path>
                        <path d="M277,0 L600,322" id="Stroke-75"></path>
                        <path d="M284,0 L607,322" id="Stroke-77"></path>
                        <path d="M291,0 L614,322" id="Stroke-79"></path>
                        <path d="M299,0 L622,322" id="Stroke-81"></path>
                        <path d="M306,0 L629,322" id="Stroke-83"></path>
                        <path d="M314,0 L637,322" id="Stroke-85"></path>
                        <path d="M321,0 L644,322" id="Stroke-87"></path>
                        <path d="M328,0 L651,322" id="Stroke-89"></path>
                        <path d="M336,0 L659,322" id="Stroke-91"></path>
                        <path d="M343,0 L666,322" id="Stroke-93"></path>
                        <path d="M351,0 L674,322" id="Stroke-95"></path>
                        <path d="M358,0 L681,322" id="Stroke-97"></path>
                        <path d="M366,0 L689,322" id="Stroke-99"></path>
                        <path d="M373,0 L696,322" id="Stroke-101"></path>
                        <path d="M380,0 L703,322" id="Stroke-103"></path>
                        <path d="M388,0 L711,322" id="Stroke-105"></path>
                        <path d="M396,0 L719,322" id="Stroke-107"></path>
                        <path d="M404,0 L727,322" id="Stroke-109"></path>
                        <path d="M411,0 L734,322" id="Stroke-111"></path>
                        <path d="M418,0 L741,322" id="Stroke-113"></path>
                        <path d="M426,0 L749,322" id="Stroke-115"></path>
                        <path d="M508,0 L831,322" id="Stroke-115-Copy"></path>
                        <path d="M433,0 L756,322" id="Stroke-117"></path>
                        <path d="M515,0 L838,322" id="Stroke-117-Copy"></path>
                        <path d="M441,0 L764,322" id="Stroke-119"></path>
                        <path d="M523,0 L846,322" id="Stroke-119-Copy"></path>
                        <path d="M448,0 L771,322" id="Stroke-121"></path>
                        <path d="M530,0 L853,322" id="Stroke-121-Copy"></path>
                        <path d="M455,0 L778,322" id="Stroke-123"></path>
                        <path d="M537,0 L860,322" id="Stroke-123-Copy"></path>
                        <path d="M463,0 L786,322" id="Stroke-125"></path>
                        <path d="M545,0 L868,322" id="Stroke-125-Copy"></path>
                        <path d="M470,0 L793,322" id="Stroke-127"></path>
                        <path d="M552,0 L875,322" id="Stroke-127-Copy"></path>
                        <path d="M478,0 L801,322" id="Stroke-129"></path>
                        <path d="M560,0 L883,322" id="Stroke-129-Copy"></path>
                        <path d="M485,0 L808,322" id="Stroke-131"></path>
                        <path d="M567,0 L890,322" id="Stroke-131-Copy"></path>
                        <path d="M493,0 L816,322" id="Stroke-133"></path>
                        <path d="M575,0 L898,322" id="Stroke-133-Copy"></path>
                        <path d="M500,0 L823,322" id="Stroke-135"></path>
                        <path d="M582,0 L905,322" id="Stroke-135-Copy"></path>
                    </g>
                </g>
            </g>
        </g>
    </g>
</svg>