<?xml version="1.0" encoding="UTF-8"?>
<svg width="380px" height="75px" viewBox="0 0 380 75" version="1.1" xmlns="http://www.w3.org/2000/svg" xmlns:xlink="http://www.w3.org/1999/xlink">
    <!-- Generator: Sketch 51.2 (57519) - http://www.bohemiancoding.com/sketch -->
    <title>titan-logo-colour</title>
    <desc>Created with Sketch.</desc>
    <defs>
        <polygon id="path-1" points="0.263048544 0.28807377 5.75122006 0.28807377 5.75122006 4.91803279 0.263048544 4.91803279"></polygon>
        <polygon id="path-3" points="0 75 379.829984 75 379.829984 0.226536885 0 0.226536885"></polygon>
        <polygon id="path-5" points="13.3169388 0.297662338 0.0189795918 23.8588052 5.40673469 23.8588052 14.8879592 6.83158442 24.2709184 23.8588052 29.8784694 23.8588052 16.497551 0.297662338"></polygon>
        <linearGradient x1="50.0002391%" y1="99.99987%" x2="50.0002391%" y2="0.000138639009%" id="linearGradient-7">
            <stop stop-color="#004A99" offset="0%"></stop>
            <stop stop-color="#0082C4" offset="100%"></stop>
        </linearGradient>
        <polygon id="path-8" points="0 0.297662338 0 4.52166234 10.65825 4.52166234 10.65825 23.8588052 16.0475114 23.8588052 16.0475114 4.52166234 26.7606818 4.52166234 26.7606818 0.297662338"></polygon>
        <linearGradient x1="49.9998257%" y1="99.99987%" x2="49.9998257%" y2="0.000138639009%" id="linearGradient-10">
            <stop stop-color="#004A99" offset="0%"></stop>
            <stop stop-color="#0082C4" offset="100%"></stop>
        </linearGradient>
        <polygon id="path-11" points="0.0393333333 0.297662338 5.89233333 0.297662338 5.89233333 23.8588052 0.0393333333 23.8588052"></polygon>
        <linearGradient x1="49.9968227%" y1="99.99987%" x2="49.9968227%" y2="0.000138639009%" id="linearGradient-13">
            <stop stop-color="#004A99" offset="0%"></stop>
            <stop stop-color="#0082C4" offset="100%"></stop>
        </linearGradient>
        <polygon id="path-14" points="0.167522727 0.297662338 0.167522727 4.52166234 10.8273068 4.52166234 10.8273068 23.8588052 16.2150341 23.8588052 16.2150341 4.52166234 26.9306591 4.52166234 26.9306591 0.297662338"></polygon>
        <polygon id="path-16" points="0.00637078652 26.7924742 4.75139326 26.7924742 4.75139326 10.7715464 26.9766404 29.9662887 26.9766404 3.38814433 22.1302921 3.38814433 22.1302921 19.151134 0.00515730337 0.159896907"></polygon>
        <linearGradient x1="50.0002416%" y1="99.9995852%" x2="50.0002416%" y2="0.000107082823%" id="linearGradient-18">
            <stop stop-color="#004A99" offset="0%"></stop>
            <stop stop-color="#0082C4" offset="100%"></stop>
        </linearGradient>
        <path d="M0.272210526,6.12189474 C1.58494737,6.47589474 2.82284211,7.16747368 3.85231579,8.19789474 C4.88178947,9.22705263 5.57431579,10.4681053 5.92831579,11.7802105 L11.8967368,11.7827368 C11.4735789,8.94442105 10.17,6.252 7.98347368,4.06452632 C5.78715789,1.87073684 3.12694737,0.563052632 0.272210526,0.147157895 L0.272210526,6.12189474 Z" id="path-19"></path>
        <linearGradient x1="50.0014558%" y1="0.00079601585%" x2="50.0014558%" y2="99.9999799%" id="linearGradient-21">
            <stop stop-color="#004A99" offset="0%"></stop>
            <stop stop-color="#0082C4" offset="100%"></stop>
        </linearGradient>
        <path d="M0.270914286,5.7234 C4.17088571,6.1476 7.91088571,7.7856 10.9028857,10.6407 C13.8845143,13.4883 15.5998857,17.0829 16.0505714,20.7936 L21.9868,20.79 C21.5141143,15.633 19.2110286,10.6011 15.0788,6.6555 C10.9220571,2.6865 5.70302857,0.4866 0.270914286,0.0531 L0.270914286,5.7234 Z" id="path-22"></path>
        <linearGradient x1="50.0009328%" y1="0.000289723006%" x2="50.0009328%" y2="100.000006%" id="linearGradient-24">
            <stop stop-color="#004A99" offset="0%"></stop>
            <stop stop-color="#0082C4" offset="100%"></stop>
        </linearGradient>
        <path d="M0.267805825,0.228970874 L0.267805825,6.07782524 C6.7047767,6.5447767 12.9702524,9.23805825 17.8892427,14.1586019 C22.8125825,19.0831845 25.5071068,25.3467961 25.9731262,31.7862524 L31.8207379,31.7862524 C31.3388738,23.8660971 28.0695922,16.0838835 22.0175534,10.031534 C15.9683107,3.98104854 8.18671845,0.712699029 0.267805825,0.228970874 Z" id="path-25"></path>
        <linearGradient x1="50.0005277%" y1="-0.0001958159%" x2="50.0005277%" y2="100.000004%" id="linearGradient-27">
            <stop stop-color="#004A99" offset="0%"></stop>
            <stop stop-color="#0082C4" offset="100%"></stop>
        </linearGradient>
        <polygon id="path-28" points="0 75 379.829984 75 379.829984 0.226536885 0 0.226536885"></polygon>
    </defs>
    <g id="Page-1" stroke="none" stroke-width="1" fill="none" fill-rule="evenodd">
        <g id="Navigation" transform="translate(-245.000000, -21.000000)">
            <g id="titan-logo-colour" transform="translate(245.000000, 21.000000)">
                <g id="Group-20">
                    <path d="M10.541034,75 L10.541034,70.3699795 L11.4114061,70.3699795 L13.594254,73.1701844 L15.7303706,70.3699795 L16.5924417,70.3699795 L16.5924417,75 L15.5938657,75 L15.5938657,72.1380123 C15.5938657,72.0239754 15.6070858,71.8589139 15.6322961,71.6434426 C15.5194644,71.8770492 15.4284612,72.0384221 15.3642055,72.1284836 L13.6219239,74.4411885 L13.4048689,74.4411885 L11.6641246,72.1201844 C11.5383803,71.9526639 11.4461472,71.7928279 11.3865032,71.6434426 C11.4055647,71.8290984 11.4150955,71.9941598 11.4150955,72.1380123 L11.4150955,75 L10.541034,75 Z" id="Fill-1" fill="#C7C7C7"></path>
                    <path d="M22.8150647,73.1461168 L24.8420388,73.1461168 L23.8468447,71.2689652 L22.8150647,73.1461168 Z M20.7422816,74.9999078 L23.3620065,70.3701947 L24.4014725,70.3701947 L27.0547087,74.9999078 L25.8452265,74.9999078 L25.2896764,73.9812602 L22.3563592,73.9812602 L21.8189482,74.9999078 L20.7422816,74.9999078 Z" id="Fill-3" fill="#C7C7C7"></path>
                    <g id="Group-7" transform="translate(31.051780, 70.081967)">
                        <mask id="mask-2" fill="white">
                            <use xlink:href="#path-1"></use>
                        </mask>
                        <g id="Clip-6"></g>
                        <path d="M3.74484466,1.08540984 L1.31880906,1.08540984 L1.31880906,2.38161885 L3.74484466,2.38161885 C3.91240129,2.38161885 4.02984466,2.36348361 4.09563754,2.32752049 C4.185411,2.27403689 4.23091262,2.16829918 4.23091262,2.01307377 L4.23091262,1.45518443 C4.23091262,1.29842213 4.185411,1.1929918 4.09563754,1.13889344 C4.02984466,1.10354508 3.91240129,1.08540984 3.74484466,1.08540984 Z M0.263048544,4.91809426 L0.263048544,0.28807377 L4.2272233,0.28807377 C4.92050809,0.28807377 5.26791909,0.587151639 5.26791909,1.18561475 L5.26791909,2.27280738 C5.26791909,2.87034836 4.92050809,3.16911885 4.2272233,3.16911885 L3.61787055,3.16911885 L5.75122006,4.91809426 L4.20939159,4.91809426 L2.34259547,3.16911885 L1.31880906,3.16911885 L1.31880906,4.91809426 L0.263048544,4.91809426 Z" id="Fill-5" fill="#C7C7C7" mask="url(#mask-2)"></path>
                    </g>
                    <mask id="mask-4" fill="white">
                        <use xlink:href="#path-3"></use>
                    </mask>
                    <g id="Clip-9"></g>
                    <polygon id="Fill-8" fill="#C7C7C7" mask="url(#mask-4)" points="41.2791909 75 42.3552427 75 42.3552427 70.3699795 41.2791909 70.3699795"></polygon>
                    <path d="M47.4858883,75 L47.4858883,70.3699795 L48.2212929,70.3699795 L51.4811149,73.0982582 C51.7147718,73.2943648 51.8906294,73.4631148 52.0105324,73.5992828 C51.9782508,73.1701844 51.9628786,72.9030738 51.9628786,72.8010246 L51.9628786,70.3699795 L52.9337848,70.3699795 L52.9337848,75 L52.1959207,75 L48.793445,72.1380123 C48.6495615,72.0181352 48.5213576,71.8927254 48.407911,71.761168 C48.4389628,72.0602459 48.4555647,72.3043033 48.4555647,72.4961066 L48.4555647,75 L47.4858883,75 Z" id="Fill-10" fill="#C7C7C7" mask="url(#mask-4)"></path>
                    <polygon id="Fill-11" fill="#C7C7C7" mask="url(#mask-4)" points="58.0605566 75 58.0605566 70.3699795 62.7970291 70.3699795 62.7970291 71.1577869 59.1369159 71.1577869 59.1369159 72.1951844 61.2718026 72.1951844 61.2718026 72.9829918 59.1369159 72.9829918 59.1369159 74.1252049 62.8428382 74.1252049 62.8428382 75"></polygon>
                    <path d="M76.5137686,75 L76.5137686,70.3699795 L77.2491731,70.3699795 L80.5080728,73.0982582 C80.7417298,73.2943648 80.9175874,73.4631148 81.0371828,73.5992828 C81.0061311,73.1701844 80.9895291,72.9030738 80.9895291,72.8010246 L80.9895291,70.3699795 L81.9604353,70.3699795 L81.9604353,75 L81.2241084,75 L77.8213252,72.1380123 C77.6774417,72.0181352 77.5483155,71.8927254 77.4357913,71.761168 C77.466843,72.0602459 77.483445,72.3043033 77.483445,72.4961066 L77.483445,75 L76.5137686,75 Z" id="Fill-12" fill="#C7C7C7" mask="url(#mask-4)"></path>
                    <polygon id="Fill-13" fill="#C7C7C7" mask="url(#mask-4)" points="87.0887443 75 87.0887443 70.3699795 91.8239871 70.3699795 91.8239871 71.1577869 88.1638738 71.1577869 88.1638738 72.1951844 90.2996828 72.1951844 90.2996828 72.9829918 88.1638738 72.9829918 88.1638738 74.1252049 91.8682589 74.1252049 91.8682589 75"></polygon>
                    <polygon id="Fill-14" fill="#C7C7C7" mask="url(#mask-4)" points="98.7841974 71.1955943 98.7841974 75 97.7075307 75 97.7075307 71.1955943 95.5849417 71.1955943 95.5849417 70.3699795 100.921236 70.3699795 100.921236 71.1955943"></polygon>
                    <polygon id="Fill-15" fill="#C7C7C7" mask="url(#mask-4)" points="105.958511 75 104.173188 70.3699795 105.285518 70.3699795 106.461181 73.4751025 107.690955 70.3699795 108.443883 70.3699795 109.701327 73.4751025 110.82165 70.3699795 111.781796 70.3699795 109.99678 75 109.269984 75 107.996553 71.7977459 106.703139 75"></polygon>
                    <path d="M117.067362,74.1252049 L120.6211,74.1252049 L120.6211,71.1955943 L117.067362,71.1955943 L117.067362,74.1252049 Z M115.989466,71.4651639 C115.989466,71.0342213 116.071246,70.7446721 116.232654,70.5952869 C116.394061,70.4452869 116.696278,70.3699795 117.138689,70.3699795 L120.548851,70.3699795 C120.991877,70.3699795 121.294094,70.4452869 121.454272,70.5952869 C121.617217,70.7446721 121.696845,71.0342213 121.696845,71.4651639 L121.696845,73.9048156 C121.696845,74.3360656 121.617217,74.6253074 121.454272,74.775 C121.294094,74.9262295 120.991877,75 120.548851,75 L117.138689,75 C116.696278,75 116.394061,74.9262295 116.232654,74.775 C116.071246,74.6253074 115.989466,74.3360656 115.989466,73.9048156 L115.989466,71.4651639 Z" id="Fill-16" fill="#C7C7C7" mask="url(#mask-4)"></path>
                    <path d="M130.216531,71.167377 L127.790495,71.167377 L127.790495,72.4635861 L130.216531,72.4635861 C130.384087,72.4635861 130.501223,72.4454508 130.566094,72.4094877 C130.65679,72.3560041 130.701061,72.2502664 130.701061,72.095041 L130.701061,71.5371516 C130.701061,71.3803893 130.65679,71.274959 130.566094,71.2208607 C130.501223,71.1855123 130.384087,71.167377 130.216531,71.167377 Z M126.733197,75.0000615 L126.733197,70.370041 L130.697372,70.370041 C131.392194,70.370041 131.739298,70.6691189 131.739298,71.267582 L131.739298,72.3547746 C131.739298,72.9523156 131.392194,73.2510861 130.697372,73.2510861 L130.089249,73.2510861 L132.222599,75.0000615 L130.68077,75.0000615 L128.813359,73.2510861 L127.790495,73.2510861 L127.790495,75.0000615 L126.733197,75.0000615 Z" id="Fill-17" fill="#C7C7C7" mask="url(#mask-4)"></path>
                    <polygon id="Fill-18" fill="#C7C7C7" mask="url(#mask-4)" points="136.698667 75 136.698667 70.3699795 137.783019 70.3699795 137.783019 72.3009221 140.347712 70.3699795 141.909524 70.3699795 138.841854 72.5498975 142.285528 75 140.554929 75 137.783019 72.9642418 137.783019 75"></polygon>
                    <path d="M150.597259,71.176998 L147.571401,71.176998 L147.571401,72.1765881 L150.459217,72.1765881 C150.901013,72.1765881 151.205689,72.2503586 151.370786,72.4000512 C151.533424,72.5488217 151.616126,72.839293 151.616126,73.2693135 L151.616126,73.9061988 C151.616126,74.3371414 151.533424,74.6254611 151.369557,74.7760758 C151.205689,74.9260758 150.901013,75.0001537 150.458602,75.0001537 L147.596612,75.0001537 C147.154816,75.0001537 146.851984,74.9248463 146.686887,74.7748463 C146.522405,74.6242316 146.440317,74.3337602 146.440317,73.9012807 L146.440317,73.5788422 L147.390625,73.5779201 L147.390625,74.1253586 L150.663974,74.1253586 L150.663974,73.0679816 L147.784767,73.0679816 C147.342663,73.0679816 147.042291,72.9935963 146.880883,72.8442111 C146.720091,72.695748 146.638926,72.4058914 146.638926,71.9755635 L146.638926,71.4640881 C146.638926,71.0328381 146.720091,70.7435963 146.880883,70.5951332 C147.041369,70.4439037 147.342663,70.3701332 147.783537,70.3701332 L150.404492,70.3701332 C150.827227,70.3701332 151.123909,70.4414447 151.293926,70.5856045 C151.463634,70.7291496 151.549104,70.994416 151.549104,71.3841701 L151.549104,71.6973873 L150.597259,71.7059939 L150.597259,71.176998 Z" id="Fill-19" fill="#C7C7C7" mask="url(#mask-4)"></path>
                </g>
                <g id="Group-23" transform="translate(101.000000, 41.000000)">
                    <mask id="mask-6" fill="white">
                        <use xlink:href="#path-5"></use>
                    </mask>
                    <g id="Clip-22"></g>
                    <polygon id="Fill-21" fill="url(#linearGradient-7)" mask="url(#mask-6)" points="13.3169388 0.297662338 0.0189795918 23.8588052 5.40673469 23.8588052 14.8879592 6.83158442 24.2709184 23.8588052 29.8784694 23.8588052 16.497551 0.297662338"></polygon>
                </g>
                <g id="Group-26" transform="translate(0.000000, 41.000000)">
                    <mask id="mask-9" fill="white">
                        <use xlink:href="#path-8"></use>
                    </mask>
                    <g id="Clip-25"></g>
                    <polygon id="Fill-24" fill="url(#linearGradient-10)" mask="url(#mask-9)" points="0 0.297662338 0 4.52166234 10.65825 4.52166234 10.65825 23.8588052 16.0475114 23.8588052 16.0475114 4.52166234 26.7606818 4.52166234 26.7606818 0.297662338"></polygon>
                </g>
                <g id="Group-29" transform="translate(42.000000, 41.000000)">
                    <mask id="mask-12" fill="white">
                        <use xlink:href="#path-11"></use>
                    </mask>
                    <g id="Clip-28"></g>
                    <polygon id="Fill-27" fill="url(#linearGradient-13)" mask="url(#mask-12)" points="0.0393333333 23.8588052 5.89233333 23.8588052 5.89233333 0.297662338 0.0393333333 0.297662338"></polygon>
                </g>
                <g id="Group-32" transform="translate(63.000000, 41.000000)">
                    <mask id="mask-15" fill="white">
                        <use xlink:href="#path-14"></use>
                    </mask>
                    <g id="Clip-31"></g>
                    <polygon id="Fill-30" fill="url(#linearGradient-7)" mask="url(#mask-15)" points="0.167522727 0.297662338 0.167522727 4.52166234 10.8273068 4.52166234 10.8273068 23.8588052 16.2150341 23.8588052 16.2150341 4.52166234 26.9306591 4.52166234 26.9306591 0.297662338"></polygon>
                </g>
                <g id="Group-35" transform="translate(147.000000, 38.000000)">
                    <mask id="mask-17" fill="white">
                        <use xlink:href="#path-16"></use>
                    </mask>
                    <g id="Clip-34"></g>
                    <polygon id="Fill-33" fill="url(#linearGradient-18)" mask="url(#mask-17)" points="0.00637078652 26.7924742 4.75139326 26.7924742 4.75139326 10.7715464 26.9766404 29.9662887 26.9766404 3.38814433 22.1302921 3.38814433 22.1302921 19.151134 0.00515730337 0.159896907"></polygon>
                </g>
                <g id="Group-48" transform="translate(93.000000, 10.000000)" fill="#C7C7C7">
                    <path d="M16.7854007,35.0835385 L19.6347757,30.1509231 C19.050677,29.8155385 18.5005914,29.4007692 18.0018349,28.9038462 C16.9925717,27.9007692 16.3160191,26.6927692 15.9700125,25.4143077 L10.1191309,25.4143077 C10.527598,28.1952308 11.8049467,30.7909231 13.9555059,32.9296923 C14.8203678,33.7903077 15.773973,34.5035385 16.7854007,35.0835385" id="Fill-36"></path>
                    <path d="M30.1641671,35.1814769 C31.2408382,34.5848615 32.25845,33.8408615 33.1734039,32.9297846 C35.3143776,30.8005538 36.5898711,28.1820923 37.0042132,25.4140923 L31.1601342,25.4140923 C30.8147461,26.6928615 30.1351013,27.9005538 29.127075,28.9039385 C28.5732789,29.4562462 27.9533118,29.8984 27.2984039,30.2507077 L30.1641671,35.1814769 Z" id="Fill-38"></path>
                    <path d="M21.5745151,9.99443077 C18.7940941,10.4067385 16.0968507,11.6781231 13.9564954,13.8064308 C11.8059362,15.9476615 10.5273507,18.5418154 10.1191928,21.3242769 L15.9700743,21.3242769 C16.3160809,20.0458154 16.9926336,18.8365846 18.0015875,17.8338154 C19.0108507,16.8298154 20.2900546,16.1559692 21.5745151,15.8110462 L21.5745151,9.99443077 Z" id="Fill-40"></path>
                    <path d="M11.8374138,43.6508308 L14.7337888,38.6351385 C13.4159336,37.8803692 12.1744533,36.9452923 11.0486178,35.8240615 C8.10555197,32.8954462 6.41602566,29.2342154 5.97880197,25.4142154 L0.136269079,25.4142154 C0.581532237,30.7348308 2.84928224,35.8431385 6.9401375,39.9136 C8.43671645,41.4031385 10.085427,42.6477538 11.8374138,43.6508308" id="Fill-42"></path>
                    <path d="M35.1375092,43.7409846 C36.9463908,42.7222154 38.6492132,41.4477538 40.1906276,39.9136 C44.2561276,35.8659077 46.5232592,30.7037538 46.987075,25.4154462 L41.1467066,25.4117538 C40.7032987,29.2163692 39.0153184,32.9049846 36.0821474,35.8240615 C34.9062197,36.9932923 33.6035158,37.9542154 32.2235092,38.7259077 L35.1375092,43.7409846 Z" id="Fill-44"></path>
                    <path d="M21.5745151,0.0617538462 C16.2616599,0.524523077 11.0075546,2.77836923 6.93989013,6.82606154 C2.84934408,10.8956 0.581594079,16.0051385 0.136021711,21.3245231 L5.97886382,21.3245231 C6.41485066,17.5054462 8.10561382,13.8436 11.0486796,10.9137538 C13.9818507,7.9956 17.751127,6.3156 21.5745151,5.87375385 L21.5745151,0.0617538462 Z" id="Fill-46"></path>
                </g>
                <g id="Group-51" transform="translate(118.000000, 20.000000)">
                    <mask id="mask-20" fill="white">
                        <use xlink:href="#path-19"></use>
                    </mask>
                    <g id="Clip-50"></g>
                    <path d="M0.272210526,6.12189474 C1.58494737,6.47589474 2.82284211,7.16747368 3.85231579,8.19789474 C4.88178947,9.22705263 5.57431579,10.4681053 5.92831579,11.7802105 L11.8967368,11.7827368 C11.4735789,8.94442105 10.17,6.252 7.98347368,4.06452632 C5.78715789,1.87073684 3.12694737,0.563052632 0.272210526,0.147157895 L0.272210526,6.12189474 Z" id="Fill-49" fill="url(#linearGradient-21)" mask="url(#mask-20)"></path>
                </g>
                <g id="Group-54" transform="translate(118.000000, 10.000000)">
                    <mask id="mask-23" fill="white">
                        <use xlink:href="#path-22"></use>
                    </mask>
                    <g id="Clip-53"></g>
                    <path d="M0.270914286,5.7234 C4.17088571,6.1476 7.91088571,7.7856 10.9028857,10.6407 C13.8845143,13.4883 15.5998857,17.0829 16.0505714,20.7936 L21.9868,20.79 C21.5141143,15.633 19.2110286,10.6011 15.0788,6.6555 C10.9220571,2.6865 5.70302857,0.4866 0.270914286,0.0531 L0.270914286,5.7234 Z" id="Fill-52" fill="url(#linearGradient-24)" mask="url(#mask-23)"></path>
                </g>
                <g id="Group-57" transform="translate(118.000000, 0.000000)">
                    <mask id="mask-26" fill="white">
                        <use xlink:href="#path-25"></use>
                    </mask>
                    <g id="Clip-56"></g>
                    <path d="M0.267805825,0.228970874 L0.267805825,6.07782524 C6.7047767,6.5447767 12.9702524,9.23805825 17.8892427,14.1586019 C22.8125825,19.0831845 25.5071068,25.3467961 25.9731262,31.7862524 L31.8207379,31.7862524 C31.3388738,23.8660971 28.0695922,16.0838835 22.0175534,10.031534 C15.9683107,3.98104854 8.18671845,0.712699029 0.267805825,0.228970874 Z" id="Fill-55" fill="url(#linearGradient-27)" mask="url(#mask-26)"></path>
                </g>
                <g id="Group-96">
                    <path d="M120.439002,33.4739139 C120.439002,35.6393852 118.683807,37.3954303 116.517869,37.3954303 C114.35193,37.3954303 112.594892,35.6393852 112.594892,33.4739139 C112.594892,31.3084426 114.35193,29.5533197 116.517869,29.5533197 C118.683807,29.5533197 120.439002,31.3084426 120.439002,33.4739139" id="Fill-58" fill="#E20E14"></path>
                    <mask id="mask-29" fill="white">
                        <use xlink:href="#path-28"></use>
                    </mask>
                    <g id="Clip-61"></g>
                    <polygon id="Fill-60" fill="#004A99" mask="url(#mask-29)" points="198.358463 75 199.277718 75 199.277718 0.226536885 198.358463 0.226536885"></polygon>
                    <path d="M224.771568,19.7265984 C224.819529,20.2955533 224.946196,20.7790574 225.154642,21.1764959 C225.363089,21.5727049 225.629028,21.8945287 225.95461,22.1435041 C226.279885,22.3927869 226.655888,22.5747541 227.084464,22.6869467 C227.510888,22.7994467 227.966212,22.8547746 228.451972,22.8547746 C229.021665,22.8547746 229.51296,22.7840779 229.927393,22.6414549 C230.343979,22.5000615 230.681552,22.3064139 230.942571,22.0645082 C231.200824,21.821373 231.39482,21.540123 231.519642,21.2192213 C231.644157,20.8995492 231.706568,20.5623566 231.706568,20.2067213 C231.706568,19.7084631 231.593429,19.3067213 231.368995,18.9978074 C231.143947,18.690123 230.849108,18.437459 230.487555,18.2435041 C230.126002,18.0470902 229.711568,17.8903279 229.244561,17.7719877 C228.775403,17.6533402 228.296406,17.5371516 227.803267,17.424959 C227.31228,17.312459 226.831131,17.1793648 226.364125,17.0250615 C225.894351,16.8716803 225.480225,16.6632787 225.118672,16.402623 C224.757118,16.142582 224.464739,15.807541 224.239998,15.3993443 C224.01495,14.989918 223.902118,14.4726025 223.902118,13.8430943 C223.902118,13.405082 223.993429,12.97875 224.177587,12.5647131 C224.359594,12.1494467 224.632911,11.7815164 224.994464,11.4621516 C225.35571,11.1424795 225.808574,10.8876639 226.354286,10.6970902 C226.900306,10.5080533 227.527798,10.4133811 228.238607,10.4133811 C228.962328,10.4133811 229.594739,10.5138934 230.133073,10.7152254 C230.671714,10.9174795 231.119659,11.192582 231.474141,11.542377 C231.830775,11.8918648 232.096714,12.296373 232.273801,12.7598975 C232.453348,13.2218852 232.542199,13.7136885 232.542199,14.2346926 L231.385905,14.2346926 C231.385905,13.749959 231.299206,13.3285451 231.129497,12.9726025 C230.957021,12.6172746 230.722134,12.3277254 230.425144,12.102418 C230.130921,11.8777254 229.790888,11.7098975 229.412118,11.6044672 C229.033655,11.4968852 228.64105,11.4443238 228.238607,11.4443238 C227.62372,11.4443238 227.103833,11.5303893 226.684788,11.7028279 C226.263283,11.8740369 225.92817,12.0953484 225.678833,12.3686066 C225.430419,12.64125 225.257328,12.9430943 225.164173,13.2756762 C225.068251,13.6061066 225.051341,13.9389959 225.111293,14.2703484 C225.181083,14.6859221 225.34618,15.0163525 225.607506,15.2650205 C225.867911,15.5143033 226.189189,15.7190164 226.567652,15.8779303 C226.948267,16.0386885 227.36516,16.1702459 227.822636,16.2695287 C228.277037,16.3712705 228.741892,16.4767008 229.215662,16.5892008 C229.690047,16.7017008 230.149982,16.8360246 230.595468,16.9890984 C231.038186,17.1446311 231.433251,17.3505738 231.77851,17.6115369 C232.120694,17.8725 232.395856,18.2078484 232.604303,18.6160451 C232.809982,19.0242418 232.915743,19.5375615 232.915743,20.1541598 C232.915743,21.3390984 232.506228,22.2560041 231.687199,22.9085656 C230.870629,23.5598975 229.721406,23.886332 228.238607,23.886332 C227.575759,23.886332 226.960257,23.8002664 226.390565,23.6278279 C225.820565,23.4569262 225.32927,23.1956557 224.915144,22.846168 C224.50071,22.4966803 224.177587,22.0645082 223.94516,21.5487295 C223.715193,21.0326434 223.598364,20.4268033 223.598364,19.7265984 L224.771568,19.7265984 Z" id="Fill-62" fill="#C7C7C7" mask="url(#mask-29)"></path>
                    <path d="M235.599939,10.751127 L236.806961,10.751127 L236.806961,18.3753074 C236.806961,19.9650615 237.104259,21.1066598 237.697932,21.8059426 C238.289453,22.504918 239.242528,22.8547131 240.559307,22.8547131 C241.246751,22.8547131 241.831201,22.7637295 242.309583,22.5793033 C242.791346,22.3964139 243.179032,22.1173156 243.473871,21.7438525 C243.770553,21.3703893 243.983919,20.9056352 244.115197,20.3492828 C244.244939,19.792623 244.309194,19.1339139 244.309194,18.3753074 L244.309194,10.751127 L245.518676,10.751127 L245.518676,18.7318648 C245.518676,20.4030738 245.106702,21.6793033 244.283369,22.5627049 C243.459421,23.444877 242.218887,23.8862705 240.559307,23.8862705 C238.888045,23.8862705 237.6429,23.4365779 236.826023,22.535041 C236.006994,21.6347336 235.599939,20.3671107 235.599939,18.7318648 L235.599939,10.751127 Z" id="Fill-63" fill="#C7C7C7" mask="url(#mask-29)"></path>
                    <path d="M252.789159,16.864457 C253.359159,16.864457 253.8689,16.8300307 254.319304,16.7590266 C254.769401,16.6874078 255.150324,16.5543135 255.466068,16.3591291 C255.780275,16.1630225 256.021618,15.8974488 256.193786,15.5596414 C256.366877,15.2209119 256.452654,14.7792111 256.452654,14.2345389 C256.452654,13.4289037 256.18733,12.8184529 255.660065,12.4041086 C255.133414,11.9900717 254.295016,11.7816701 253.145793,11.7816701 L250.016019,11.7816701 L250.016019,16.864457 L252.789159,16.864457 Z M248.806845,23.5489857 L248.806845,10.7510348 L253.483366,10.7510348 C254.311926,10.7510348 254.997217,10.845707 255.535858,11.0347439 C256.074498,11.2250102 256.503074,11.4862807 256.816667,11.8176332 C257.130566,12.149293 257.351003,12.5310553 257.47521,12.964457 C257.597265,13.3966291 257.659676,13.8503176 257.659676,14.324293 C257.659676,15.0355635 257.5161,15.6220389 257.226181,16.0840266 C256.93411,16.5460143 256.558414,16.9099488 256.096019,17.1758299 C255.633625,17.4426332 255.109434,17.6295184 254.522832,17.7358709 C253.935922,17.8437602 253.346861,17.8963217 252.753188,17.8963217 L250.016019,17.8963217 L250.016019,23.5489857 L248.806845,23.5489857 Z" id="Fill-64" fill="#C7C7C7" mask="url(#mask-29)"></path>
                    <polygon id="Fill-65" fill="#C7C7C7" mask="url(#mask-29)" points="260.168998 23.5490164 260.168998 10.7510656 268.684872 10.7510656 268.684872 11.7817008 261.376021 11.7817008 261.376021 16.4025 267.973448 16.4025 267.973448 17.4343648 261.376021 17.4343648 261.376021 22.5171516 268.86196 22.5171516 268.86196 23.5490164"></polygon>
                    <path d="M276.43346,16.7053586 C276.883864,16.7053586 277.302909,16.6586373 277.688443,16.5627357 C278.073977,16.4683709 278.407246,16.3174488 278.691939,16.1102766 C278.976939,15.9021824 279.20168,15.6387602 279.367392,15.3190881 C279.534948,14.999416 279.616113,14.6139652 279.616113,14.1636578 C279.616113,13.6896824 279.530029,13.2996209 279.36032,12.990707 C279.187845,12.681793 278.955417,12.4401947 278.665498,12.261916 C278.375887,12.0836373 278.042618,11.9591496 277.669382,11.8881455 C277.295838,11.8177561 276.907845,11.7814857 276.505401,11.7814857 L272.666663,11.7814857 L272.666663,16.7053586 L276.43346,16.7053586 Z M272.666663,17.7359939 L272.666663,23.5491086 L271.457796,23.5491086 L271.457796,10.7511578 L276.46943,10.7511578 C277.879981,10.7511578 278.960337,11.015502 279.704964,11.5423463 C280.451744,12.0691906 280.825288,12.9261578 280.825288,14.1101742 C280.825288,14.9158094 280.66265,15.5560758 280.337068,16.0303586 C280.011178,16.504334 279.479608,16.9076127 278.746971,17.238043 C279.125434,17.3696004 279.422117,17.5586373 279.635175,17.8079201 C279.848233,18.0565881 280.008718,18.3402971 280.114479,18.6599693 C280.221777,18.9808709 280.289107,19.3183709 280.320466,19.6727766 C280.349058,20.029334 280.370887,20.3732889 280.382877,20.7046414 C280.391793,21.1909119 280.413314,21.5929611 280.444673,21.9135553 C280.473573,22.231998 280.509544,22.4929611 280.550434,22.6952152 C280.590401,22.8965471 280.641129,23.0533094 280.701081,23.1661168 C280.761032,23.2783094 280.832667,23.3646824 280.914139,23.4243135 L280.914139,23.5491086 L279.58045,23.5491086 C279.450709,23.3357889 279.36032,23.0388627 279.304981,22.6595594 C279.2521,22.2802561 279.21121,21.8840471 279.180773,21.4684734 C279.151874,21.0541291 279.127893,20.6520799 279.110984,20.2595594 C279.091615,19.8691906 279.060563,19.5482889 279.012602,19.300543 C278.940968,18.9568955 278.825676,18.681793 278.665498,18.4733914 C278.505013,18.2674488 278.313476,18.109457 278.088427,18.0031045 C277.863071,17.8964447 277.612197,17.8248258 277.331809,17.7885553 C277.05388,17.7538217 276.766728,17.7359939 276.46943,17.7359939 L272.666663,17.7359939 Z" id="Fill-66" fill="#C7C7C7" mask="url(#mask-29)"></path>
                    <polygon id="Fill-67" fill="#C7C7C7" mask="url(#mask-29)" points="287.705594 16.9184939 291.563086 10.7512807 292.968717 10.7512807 288.327552 17.966957 288.327552 23.5489242 287.118992 23.5489242 287.118992 18.0567111 282.549769 10.7512807 283.936338 10.7512807"></polygon>
                    <path d="M297.075422,18.4997951 L302.087672,18.4997951 L299.580471,11.7817623 L297.075422,18.4997951 Z M293.909678,23.5490779 L298.940989,10.751127 L300.310649,10.751127 L305.217138,23.5490779 L303.972607,23.5490779 L302.497186,19.5313525 L296.665908,19.5313525 L295.155131,23.5490779 L293.909678,23.5490779 Z" id="Fill-68" fill="#C7C7C7" mask="url(#mask-29)"></path>
                    <path d="M316.470149,14.4654713 C316.220812,13.376127 315.758725,12.5993852 315.083579,12.1373975 C314.408126,11.6754098 313.524227,11.4442623 312.434955,11.4442623 C311.663887,11.4442623 311.000424,11.5985656 310.442722,11.90625 C309.884712,12.2151639 309.427236,12.6292008 309.065683,13.1514344 C308.704129,13.6718238 308.435731,14.2739754 308.265715,14.9538934 C308.093547,15.6365779 308.007155,16.3555328 308.007155,17.1135246 C308.007155,17.8247951 308.081557,18.5234631 308.229744,19.2107582 C308.378239,19.8992828 308.622657,20.5118852 308.967301,21.0519467 C309.3101,21.5907787 309.77188,22.026332 310.353563,22.3567623 C310.933709,22.6893443 311.663887,22.8547131 312.5401,22.8547131 C313.086427,22.8547131 313.584178,22.7661885 314.034583,22.5891393 C314.484987,22.4105533 314.877592,22.1652664 315.215165,21.8514344 C315.552738,21.5379098 315.837738,21.1669057 316.070165,20.7405738 C316.299518,20.3130123 316.475068,19.8451844 316.594356,19.3352459 L317.856718,19.3352459 C317.712528,19.9530738 317.50654,20.5358607 317.233838,21.0866803 C316.960828,21.6384221 316.601735,22.1206967 316.158401,22.535041 C315.712916,22.9503074 315.174275,23.2782787 314.539712,23.5214139 C313.905456,23.7645492 313.162673,23.8862705 312.310748,23.8862705 C311.326621,23.8862705 310.483304,23.7046107 309.783871,23.3431352 C309.085052,22.9828893 308.515052,22.4929303 308.069566,21.8778689 C307.624081,21.2612705 307.300958,20.5466189 307.099583,19.7351434 C306.898515,18.9233607 306.797673,18.0614754 306.797673,17.1491803 C306.797673,15.9298156 306.948935,14.8918033 307.250537,14.0394467 C307.554906,13.1858607 307.970877,12.4902664 308.505521,11.9505123 C309.039243,11.4116803 309.666735,11.0203893 310.389841,10.7775615 C311.113256,10.5344262 311.901233,10.4133197 312.753159,10.4133197 C313.404631,10.4133197 314.013061,10.4984631 314.575683,10.6709016 C315.138304,10.8433402 315.63667,11.1006148 316.070165,11.4442623 C316.500893,11.7876025 316.858142,12.2114754 317.135456,12.7155738 C317.413385,13.2181352 317.607382,13.802459 317.712528,14.4654713 L316.470149,14.4654713 Z" id="Fill-69" fill="#C7C7C7" mask="url(#mask-29)"></path>
                    <polygon id="Fill-70" fill="#C7C7C7" mask="url(#mask-29)" points="320.648858 23.5490164 320.648858 10.7510656 321.857725 10.7510656 321.857725 16.2432787 329.429748 16.2432787 329.429748 10.7510656 330.638922 10.7510656 330.638922 23.5490164 329.429748 23.5490164 329.429748 17.2739139 321.857725 17.2739139 321.857725 23.5490164"></polygon>
                    <polygon id="Fill-71" fill="#C7C7C7" mask="url(#mask-29)" points="332.789273 10.751127 342.1045 10.751127 342.1045 11.7817623 338.053011 11.7817623 338.053011 23.5490779 336.843837 23.5490779 336.843837 11.7817623 332.789273 11.7817623"></polygon>
                    <path d="M233.358984,34.9976127 C233.109647,33.9082684 232.64756,33.1315266 231.972414,32.6695389 C231.296961,32.2072439 230.413061,31.9764037 229.32379,31.9764037 C228.552722,31.9764037 227.889259,32.130707 227.333709,32.4383914 C226.776006,32.7473053 226.316071,33.1613422 225.954518,33.6835758 C225.592964,34.2039652 225.327026,34.8061168 225.15455,35.4875717 C224.982382,36.1684119 224.89599,36.8876742 224.89599,37.6468955 C224.89599,38.3578586 224.970392,39.0574488 225.118579,39.7441291 C225.267074,40.4314242 225.513644,41.044334 225.856136,41.5828586 C226.201395,42.1226127 226.663175,42.5572439 227.242398,42.8898258 C227.824388,43.221793 228.552722,43.388084 229.431395,43.388084 C229.975262,43.388084 230.473013,43.2980225 230.923417,43.1197439 C231.373822,42.9426947 231.768887,42.6971004 232.10646,42.3826537 C232.443725,42.0685143 232.729032,41.6987398 232.959,41.2714857 C233.190812,40.8457684 233.366055,40.3773258 233.483191,39.8683094 L234.745553,39.8683094 C234.603822,40.4836783 234.395375,41.068002 234.122673,41.6191291 C233.852123,42.1696414 233.493029,42.6528381 233.047236,43.066875 C232.60421,43.4824488 232.06311,43.811957 231.431006,44.053248 C230.796751,44.2963832 230.051508,44.4177971 229.199583,44.4177971 C228.215456,44.4177971 227.374599,44.2376742 226.675165,43.8761988 C225.976039,43.5147234 225.403887,43.026916 224.958401,42.4103176 C224.515068,41.7937193 224.192252,41.0799898 223.990877,40.268207 C223.789809,39.4570389 223.688968,38.5951537 223.688968,37.6813217 C223.688968,36.461957 223.84023,35.4251742 224.141832,34.5715881 C224.443741,33.718002 224.862172,33.0224078 225.394356,32.4826537 C225.928078,31.9438217 226.55557,31.5525307 227.278676,31.3097029 C228.002091,31.0665676 228.790068,30.9454611 229.644453,30.9454611 C230.295926,30.9454611 230.901896,31.0306045 231.466977,31.203043 C232.029599,31.3754816 232.525505,31.6327561 232.959,31.9764037 C233.39188,32.3197439 233.746977,32.7436168 234.026751,33.2477152 C234.30468,33.7502766 234.496217,34.3346004 234.603822,34.9976127 L233.358984,34.9976127 Z" id="Fill-72" fill="#C7C7C7" mask="url(#mask-29)"></path>
                    <path d="M243.030814,43.3881762 C243.859374,43.3881762 244.57295,43.2295697 245.171542,42.9163525 C245.770134,42.6028279 246.263888,42.1851025 246.646963,41.6628689 C247.032497,41.1421721 247.316882,40.5378689 247.501348,39.8496516 C247.683354,39.1623566 247.777125,38.4467828 247.777125,37.6995492 C247.777125,36.8112295 247.666445,36.0138934 247.449083,35.3087705 C247.228646,34.6036475 246.912286,34.0014959 246.495701,33.505082 C246.081267,33.0068238 245.578597,32.6275205 244.984617,32.3665574 C244.393403,32.1068238 243.729633,31.9764959 242.994843,31.9764959 C242.175814,31.9764959 241.469617,32.1366393 240.871024,32.4563115 C240.272125,32.7759836 239.778678,33.1995492 239.393144,33.7263934 C239.01007,34.2544672 238.725377,34.8612295 238.540604,35.5497541 C238.356138,36.2367418 238.265442,36.952623 238.265442,37.6995492 C238.265442,38.4587705 238.356138,39.1814139 238.540604,39.8684016 C238.725377,40.5556967 239.01007,41.1590779 239.393144,41.6806967 C239.778678,42.2032377 240.272125,42.6172746 240.871024,42.9258811 C241.469617,43.2332582 242.187804,43.3881762 243.030814,43.3881762 M237.05596,37.6995492 C237.05596,36.7632787 237.182934,35.8872541 237.439341,35.0696311 C237.69329,34.2507787 238.068985,33.5373566 238.566736,32.9265984 C239.065409,32.3164549 239.680911,31.833873 240.415701,31.4782377 C241.150798,31.1241393 241.998727,30.9455533 242.958872,30.9455533 C243.954989,30.9455533 244.829358,31.1204508 245.581057,31.4699385 C246.332756,31.8194262 246.962707,32.2995492 247.465377,32.9103074 C247.968662,33.5204508 248.349277,34.236332 248.603225,35.0601025 C248.856558,35.8847951 248.986299,36.7632787 248.986299,37.6995492 C248.986299,38.623832 248.856558,39.4924795 248.603225,40.3042623 C248.349277,41.1157377 247.973273,41.8273156 247.474908,42.4359221 C246.977157,43.0466803 246.354584,43.5292623 245.607497,43.8845902 C244.860409,44.239918 243.995879,44.4178893 243.011752,44.4178893 C242.027319,44.4178893 241.162788,44.239918 240.415701,43.8845902 C239.671073,43.5292623 239.0485,43.0466803 238.550134,42.4359221 C238.052383,41.8273156 237.67884,41.1157377 237.429503,40.3042623 C237.180474,39.4924795 237.05596,38.623832 237.05596,37.6995492" id="Fill-73" fill="#C7C7C7" mask="url(#mask-29)"></path>
                    <polygon id="Fill-74" fill="#C7C7C7" mask="url(#mask-29)" points="251.776163 44.0797746 251.776163 31.2833607 253.624513 31.2833607 257.819885 42.5693238 257.855856 42.5693238 261.981746 31.2833607 263.811341 31.2833607 263.811341 44.0797746 262.604626 44.0797746 262.604626 32.6693238 262.568655 32.6693238 258.372976 44.0797746 257.233283 44.0797746 253.021002 32.6693238 252.985646 32.6693238 252.985646 44.0797746"></polygon>
                    <polygon id="Fill-75" fill="#C7C7C7" mask="url(#mask-29)" points="267.030028 44.0797746 267.030028 31.2833607 268.878992 31.2833607 273.073749 42.5693238 273.10972 42.5693238 277.23561 31.2833607 279.065206 31.2833607 279.065206 44.0797746 277.85849 44.0797746 277.85849 32.6693238 277.822519 32.6693238 273.627455 44.0797746 272.487147 44.0797746 268.275481 32.6693238 268.23951 32.6693238 268.23951 44.0797746"></polygon>
                    <path d="M282.355956,31.2832684 L283.562979,31.2832684 L283.562979,38.9083709 C283.562979,40.495666 283.859662,41.6406455 284.453335,42.3393135 C285.044856,43.0382889 285.99793,43.388084 287.315325,43.388084 C288.002154,43.388084 288.586604,43.2958709 289.0656,43.1126742 C289.546749,42.928248 289.934435,42.6491496 290.229273,42.276916 C290.525956,41.9034529 290.739322,41.4396209 290.871215,40.8811168 C291.000341,40.3235348 291.065212,39.6672848 291.065212,38.9083709 L291.065212,31.2832684 L292.274694,31.2832684 L292.274694,39.2624693 C292.274694,40.9339857 291.86272,42.2114447 291.038772,43.0933094 C290.214824,43.9770184 288.97429,44.4177971 287.315325,44.4177971 C285.643448,44.4177971 284.398303,43.9674898 283.581426,43.066875 C282.763011,42.1671824 282.355956,40.8980225 282.355956,39.2624693 L282.355956,31.2832684 Z" id="Fill-76" fill="#C7C7C7" mask="url(#mask-29)"></path>
                    <polygon id="Fill-77" fill="#C7C7C7" mask="url(#mask-29)" points="296.824395 32.9182992 296.790883 32.9182992 296.790883 44.0797746 295.581401 44.0797746 295.581401 31.2833607 296.948602 31.2833607 304.345997 42.4635861 304.381968 42.4635861 304.381968 31.2833607 305.588375 31.2833607 305.588375 44.0797746 304.185511 44.0797746"></polygon>
                    <polygon id="Fill-78" fill="#C7C7C7" mask="url(#mask-29)" points="309.324612 44.0797131 310.534094 44.0797131 310.534094 31.2832992 309.324612 31.2832992"></polygon>
                    <path d="M323.366626,34.9976127 C323.11729,33.9082684 322.655202,33.1315266 321.980057,32.6695389 C321.304604,32.2072439 320.421319,31.9764037 319.331432,31.9764037 C318.560364,31.9764037 317.896901,32.130707 317.341351,32.4383914 C316.783649,32.7473053 316.323714,33.1613422 315.96216,33.6835758 C315.600607,34.2039652 315.334668,34.8061168 315.162193,35.4875717 C314.990024,36.1684119 314.904248,36.8876742 314.904248,37.6468955 C314.904248,38.3578586 314.978034,39.0574488 315.126222,39.7441291 C315.275332,40.4314242 315.521286,41.044334 315.864393,41.5828586 C316.209037,42.1226127 316.671432,42.5572439 317.250655,42.8898258 C317.832646,43.221793 318.560364,43.388084 319.439652,43.388084 C319.982905,43.388084 320.480655,43.2980225 320.93106,43.1197439 C321.381464,42.9426947 321.776529,42.6971004 322.114102,42.3826537 C322.451367,42.0685143 322.736675,41.6987398 322.966642,41.2714857 C323.19907,40.8457684 323.373697,40.3773258 323.490833,39.8683094 L324.753196,39.8683094 C324.612079,40.4836783 324.403633,41.068002 324.130316,41.6191291 C323.859765,42.1696414 323.500672,42.6528381 323.054879,43.066875 C322.612468,43.4824488 322.070752,43.811957 321.438956,44.053248 C320.804393,44.2963832 320.059765,44.4177971 319.207225,44.4177971 C318.223099,44.4177971 317.382241,44.2376742 316.683422,43.8761988 C315.983681,43.5147234 315.411529,43.026916 314.966044,42.4103176 C314.52271,41.7937193 314.199895,41.0799898 313.998519,40.268207 C313.797451,39.4570389 313.697225,38.5951537 313.697225,37.6813217 C313.697225,36.461957 313.847872,35.4251742 314.149474,34.5715881 C314.451383,33.718002 314.870429,33.0224078 315.401998,32.4826537 C315.93572,31.9438217 316.563212,31.5525307 317.286934,31.3097029 C318.009733,31.0665676 318.79771,30.9454611 319.65271,30.9454611 C320.303568,30.9454611 320.909539,31.0306045 321.47462,31.203043 C322.037856,31.3754816 322.533147,31.6327561 322.966642,31.9764037 C323.400138,32.3197439 323.75462,32.7436168 324.034393,33.2477152 C324.312322,33.7502766 324.503859,34.3346004 324.612079,34.9976127 L323.366626,34.9976127 Z" id="Fill-79" fill="#C7C7C7" mask="url(#mask-29)"></path>
                    <path d="M329.554508,39.0332889 L334.568602,39.0332889 L332.061401,32.3140266 L329.554508,39.0332889 Z M326.391223,44.0798053 L331.421919,31.2833914 L332.78912,31.2833914 L337.696223,44.0798053 L336.45323,44.0798053 L334.975657,40.0636168 L329.144994,40.0636168 L327.633602,44.0798053 L326.391223,44.0798053 Z" id="Fill-80" fill="#C7C7C7" mask="url(#mask-29)"></path>
                    <polygon id="Fill-81" fill="#C7C7C7" mask="url(#mask-29)" points="338.709372 31.2832684 348.024599 31.2832684 348.024599 32.3142111 343.972495 32.3142111 343.972495 44.0796824 342.76332 44.0796824 342.76332 32.3142111 338.709372 32.3142111"></polygon>
                    <polygon id="Fill-82" fill="#C7C7C7" mask="url(#mask-29)" points="350.61979 44.0797131 351.829272 44.0797131 351.829272 31.2832992 350.61979 31.2832992"></polygon>
                    <path d="M361.056047,43.3881762 C361.887066,43.3881762 362.600335,43.2295697 363.199235,42.9163525 C363.797827,42.6028279 364.289121,42.1851025 364.674655,41.6628689 C365.059882,41.1421721 365.344574,40.5378689 365.526581,39.8496516 C365.711047,39.1623566 365.802358,38.4467828 365.802358,37.6995492 C365.802358,36.8112295 365.694138,36.0138934 365.474316,35.3087705 C365.253879,34.6036475 364.937519,34.0014959 364.523086,33.505082 C364.10896,33.0068238 363.60383,32.6275205 363.012309,32.3665574 C362.418636,32.1068238 361.754866,31.9764959 361.020076,31.9764959 C360.203506,31.9764959 359.49485,32.1366393 358.896257,32.4563115 C358.297358,32.7759836 357.806371,33.1995492 357.420837,33.7263934 C357.035303,34.2544672 356.75061,34.8612295 356.567989,35.5497541 C356.38383,36.2367418 356.293134,36.952623 356.293134,37.6995492 C356.293134,38.4587705 356.38383,39.1814139 356.567989,39.8684016 C356.75061,40.5556967 357.035303,41.1590779 357.420837,41.6806967 C357.806371,42.2032377 358.297358,42.6172746 358.896257,42.9258811 C359.49485,43.2332582 360.215497,43.3881762 361.056047,43.3881762 M355.083652,37.6995492 C355.083652,36.7632787 355.210319,35.8872541 355.464574,35.0696311 C355.720675,34.2507787 356.096678,33.5373566 356.594429,32.9265984 C357.092794,32.3164549 357.708296,31.833873 358.443393,31.4782377 C359.17849,31.1241393 360.026112,30.9455533 360.984105,30.9455533 C361.980222,30.9455533 362.854591,31.1204508 363.608749,31.4699385 C364.360448,31.8194262 364.98794,32.2995492 365.491225,32.9103074 C365.996047,33.5204508 366.37451,34.236332 366.630917,35.0601025 C366.884251,35.8847951 367.011532,36.7632787 367.011532,37.6995492 C367.011532,38.623832 366.884251,39.4924795 366.630917,40.3042623 C366.37451,41.1157377 365.998506,41.8273156 365.500141,42.4359221 C365.00239,43.0466803 364.379817,43.5292623 363.635189,43.8845902 C362.888102,44.239918 362.023264,44.4178893 361.039138,44.4178893 C360.055011,44.4178893 359.190481,44.239918 358.443393,43.8845902 C357.696306,43.5292623 357.073733,43.0466803 356.575367,42.4359221 C356.077617,41.8273156 355.706532,41.1157377 355.457196,40.3042623 C355.208167,39.4924795 355.083652,38.623832 355.083652,37.6995492" id="Fill-83" fill="#C7C7C7" mask="url(#mask-29)"></path>
                    <polygon id="Fill-84" fill="#C7C7C7" mask="url(#mask-29)" points="371.065388 32.9182992 371.030032 32.9182992 371.030032 44.0797746 369.82055 44.0797746 369.82055 31.2833607 371.19021 31.2833607 378.585146 42.4635861 378.620502 42.4635861 378.620502 31.2833607 379.829984 31.2833607 379.829984 44.0797746 378.424353 44.0797746"></polygon>
                    <path d="M224.771568,60.7910041 C224.819529,61.3608811 224.946196,61.8434631 225.154642,62.2396721 C225.363089,62.6371107 225.629028,62.9601639 225.95461,63.2091393 C226.279885,63.4578074 226.655888,63.6379303 227.084464,63.750123 C227.510888,63.8623156 227.966212,63.9201025 228.451972,63.9201025 C229.021665,63.9201025 229.51296,63.8484836 229.927393,63.7067828 C230.343979,63.5635451 230.681552,63.3717418 230.942571,63.1276844 C231.200824,62.8854713 231.39482,62.6032992 231.519642,62.2845492 C231.644157,61.9639549 231.706568,61.6267623 231.706568,61.271127 C231.706568,60.7740984 231.593429,60.3708197 231.368995,60.0634426 C231.143947,59.7542213 230.849108,59.5027869 230.487555,59.306373 C230.126002,59.1111885 229.711568,58.9544262 229.244561,58.8363934 C228.775403,58.7174385 228.296406,58.6027869 227.803267,58.4905943 C227.31228,58.3774795 226.831131,58.2437705 226.364125,58.0906967 C225.894351,57.9357787 225.480225,57.7286066 225.118672,57.4679508 C224.757118,57.2069877 224.464739,56.8719467 224.239998,56.4625205 C224.01495,56.0543238 223.902118,55.5354713 223.902118,54.9087295 C223.902118,54.4707172 223.993429,54.0431557 224.177587,53.627582 C224.359594,53.2135451 224.632911,52.8459221 224.994464,52.5265574 C225.35571,52.2053484 225.808574,51.9520697 226.354286,51.762418 C226.900306,51.5721516 227.527798,51.4777869 228.238607,51.4777869 C228.962328,51.4777869 229.594739,51.5779918 230.133073,51.7793238 C230.671714,51.9803484 231.119659,52.2569877 231.474141,52.6052459 C231.830775,52.9559631 232.096714,53.3617008 232.273801,53.8239959 C232.453348,54.286291 232.542199,54.7768648 232.542199,55.2990984 L231.385905,55.2990984 C231.385905,54.8128279 231.299206,54.3926434 231.129497,54.0370082 C230.957021,53.6816803 230.722134,53.3905943 230.425144,53.1652869 C230.130921,52.9409016 229.790888,52.7752254 229.412118,52.6676434 C229.033655,52.5622131 228.64105,52.5087295 228.238607,52.5087295 C227.62372,52.5087295 227.103833,52.5944877 226.684788,52.7656967 C226.263283,52.9384426 225.92817,53.1606762 225.678833,53.4327049 C225.430419,53.7056557 225.257328,54.0084221 225.164173,54.3385451 C225.068251,54.6717418 225.051341,55.0030943 225.111293,55.3344467 C225.181083,55.748791 225.34618,56.0819877 225.607506,56.3303484 C225.867911,56.5784016 226.189189,56.7831148 226.567652,56.9432582 C226.948267,57.1030943 227.36516,57.2334221 227.822636,57.333627 C228.277037,57.4344467 228.741892,57.5420287 229.215662,57.6548361 C229.690047,57.7670287 230.149982,57.9004303 230.595468,58.0547336 C231.038186,58.2078074 231.433251,58.4159016 231.77851,58.6771721 C232.120694,58.9365984 232.395856,59.2710246 232.604303,59.6804508 C232.809982,60.0892623 232.915743,60.6019672 232.915743,61.2173361 C232.915743,62.4022746 232.506228,63.321332 231.687199,63.9729713 C230.870629,64.6243033 229.721406,64.9495082 228.238607,64.9495082 C227.575759,64.9495082 226.960257,64.8631352 226.390565,64.6931557 C225.820565,64.5210246 225.32927,64.2597541 224.915144,63.9102664 C224.50071,63.5610861 224.177587,63.1276844 223.94516,62.6131352 C223.715193,62.0979713 223.598364,61.4896721 223.598364,60.7910041 L224.771568,60.7910041 Z" id="Fill-85" fill="#C7C7C7" mask="url(#mask-29)"></path>
                    <path d="M239.510833,57.9297541 C240.078374,57.9297541 240.588115,57.8944057 241.038519,57.8221721 C241.488924,57.7514754 241.871998,57.6186885 242.185283,57.422582 C242.49949,57.2273975 242.743293,56.9602869 242.913002,56.6227869 C243.086092,56.2852869 243.171869,55.8448156 243.171869,55.2989139 C243.171869,54.4932787 242.90839,53.8840574 242.381739,53.4684836 C241.852629,53.0532172 241.014539,52.8460451 239.865008,52.8460451 L236.737694,52.8460451 L236.737694,57.9297541 L239.510833,57.9297541 Z M235.528519,64.6121311 L235.528519,51.8151025 L240.202581,51.8151025 C241.0336,51.8151025 241.718277,51.9113115 242.257532,52.1003484 C242.796173,52.2893852 243.22229,52.550041 243.535882,52.8820082 C243.849782,53.2133607 244.070218,53.5963525 244.194426,54.0276025 C244.31894,54.4610041 244.381351,54.9134631 244.381351,55.3874385 C244.381351,56.098709 244.235316,56.6851844 243.945396,57.1468648 C243.655785,57.6091598 243.280089,57.9743238 242.817694,58.2414344 C242.355299,58.5067008 241.831108,58.6938934 241.244506,58.8002459 C240.657597,58.9065984 240.066383,58.9606967 239.474862,58.9606967 L236.737694,58.9606967 L236.737694,64.6121311 L235.528519,64.6121311 Z" id="Fill-86" fill="#C7C7C7" mask="url(#mask-29)"></path>
                    <polygon id="Fill-87" fill="#C7C7C7" mask="url(#mask-29)" points="246.888275 64.6122234 246.888275 51.8151947 255.403534 51.8151947 255.403534 52.8461373 248.095298 52.8461373 248.095298 57.468166 254.692725 57.468166 254.692725 58.4988012 248.095298 58.4988012 248.095298 63.5825102 255.581236 63.5825102 255.581236 64.6122234"></polygon>
                    <path d="M267.27921,55.5295697 C267.029874,54.4393033 266.567786,53.663791 265.892641,53.2014959 C265.217188,52.7398156 264.333288,52.508668 263.244016,52.508668 C262.472948,52.508668 261.809485,52.6629713 261.253935,52.9703484 C260.696233,53.2783402 260.236298,53.6936066 259.874744,54.2143033 C259.513191,54.7359221 259.247252,55.3368443 259.074777,56.0195287 C258.902608,56.7009836 258.816217,57.4199385 258.816217,58.1788525 C258.816217,58.8904303 258.890618,59.5890984 259.038806,60.2763934 C259.187301,60.9633811 259.433871,61.576291 259.776362,62.1148156 C260.121621,62.6551844 260.583401,63.0892008 261.162625,63.4223975 C261.74523,63.75375 262.472948,63.920041 263.351621,63.920041 C263.895489,63.920041 264.393239,63.8305943 264.843644,63.6523156 C265.294049,63.4746516 265.689113,63.2296721 266.026686,62.9143033 C266.363951,62.6010861 266.649259,62.2313115 266.879227,61.80375 C267.111039,61.377418 267.286282,60.9092828 267.403417,60.4008811 L268.66578,60.4008811 C268.524049,61.01625 268.315602,61.6002664 268.0429,62.1507787 C267.77235,62.701291 267.413256,63.1851025 266.967463,63.5994467 C266.524437,64.0147131 265.983337,64.3439139 265.351233,64.5858197 C264.716977,64.8289549 263.971735,64.9494467 263.119809,64.9494467 C262.135683,64.9494467 261.294825,64.7699385 260.595392,64.4087705 C259.896265,64.0472951 259.324113,63.5585656 258.878628,62.9419672 C258.435294,62.3253689 258.112479,61.6122541 257.911104,60.8004713 C257.710036,59.9889959 257.609194,59.1268033 257.609194,58.2135861 C257.609194,56.9939139 257.760456,55.9571311 258.062058,55.1038525 C258.363968,54.2502664 258.782398,53.5531352 259.314583,53.0146107 C259.848304,52.4760861 260.475796,52.0847951 261.198903,51.8416598 C261.922317,51.5997541 262.710294,51.4777254 263.56468,51.4777254 C264.216152,51.4777254 264.822123,51.563791 265.387204,51.7353074 C265.949825,51.9065164 266.445731,52.1647131 266.879227,52.508668 C267.312107,52.8520082 267.667204,53.2758811 267.946977,53.7784426 C268.224906,54.2837705 268.416443,54.8668648 268.524049,55.5295697 L267.27921,55.5295697 Z" id="Fill-88" fill="#C7C7C7" mask="url(#mask-29)"></path>
                    <polygon id="Fill-89" fill="#C7C7C7" mask="url(#mask-29)" points="271.900453 64.6121926 273.109935 64.6121926 273.109935 51.8151639 271.900453 51.8151639"></polygon>
                    <path d="M278.852178,59.5650922 L283.866887,59.5650922 L281.359686,52.8461373 L278.852178,59.5650922 Z M275.688893,64.6122234 L280.720204,51.8151947 L282.087405,51.8151947 L286.993893,64.6122234 L285.7509,64.6122234 L284.273942,60.5960348 L278.442663,60.5960348 L276.931887,64.6122234 L275.688893,64.6122234 Z" id="Fill-90" fill="#C7C7C7" mask="url(#mask-29)"></path>
                    <polygon id="Fill-91" fill="#C7C7C7" mask="url(#mask-29)" points="289.163552 64.6122234 289.163552 51.8151947 290.373034 51.8151947 290.373034 63.5825102 297.2364 63.5825102 297.2364 64.6122234"></polygon>
                    <polygon id="Fill-92" fill="#C7C7C7" mask="url(#mask-29)" points="299.918074 64.6121926 301.127557 64.6121926 301.127557 51.8151639 299.918074 51.8151639"></polygon>
                    <path d="M305.375778,60.7910041 C305.423125,61.3608811 305.550406,61.8434631 305.758853,62.2396721 C305.967299,62.6371107 306.232623,62.9601639 306.55882,63.2091393 C306.884095,63.4578074 307.260099,63.6379303 307.688675,63.750123 C308.115099,63.8623156 308.569807,63.9201025 309.056183,63.9201025 C309.625875,63.9201025 310.11717,63.8484836 310.531604,63.7067828 C310.947574,63.5635451 311.285762,63.3717418 311.546167,63.1276844 C311.805034,62.8854713 311.999031,62.6032992 312.123853,62.2845492 C312.248367,61.9639549 312.310778,61.6267623 312.310778,61.271127 C312.310778,60.7740984 312.197639,60.3708197 311.972591,60.0634426 C311.747542,59.7542213 311.453319,59.5027869 311.091765,59.306373 C310.730212,59.1111885 310.315778,58.9544262 309.848772,58.8363934 C309.378998,58.7174385 308.900617,58.6027869 308.406862,58.4905943 C307.91649,58.3774795 307.434727,58.2437705 306.968335,58.0906967 C306.498561,57.9357787 306.084435,57.7286066 305.722882,57.4679508 C305.361328,57.2069877 305.06895,56.8719467 304.843901,56.4625205 C304.618545,56.0543238 304.506328,55.5354713 304.506328,54.9087295 C304.506328,54.4707172 304.597024,54.0431557 304.781798,53.627582 C304.963804,53.2135451 305.236506,52.8459221 305.59806,52.5265574 C305.959921,52.2053484 306.41217,51.9520697 306.958497,51.762418 C307.504516,51.5721516 308.132008,51.4777869 308.842817,51.4777869 C309.565924,51.4777869 310.198335,51.5779918 310.737283,51.7793238 C311.275924,51.9803484 311.723869,52.2569877 312.078351,52.6052459 C312.434985,52.9559631 312.700924,53.3617008 312.878011,53.8239959 C313.057558,54.286291 313.145794,54.7768648 313.145794,55.2990984 L311.9895,55.2990984 C311.9895,54.8128279 311.903416,54.3926434 311.733707,54.0370082 C311.560617,53.6816803 311.326345,53.3905943 311.029354,53.1652869 C310.735131,52.9409016 310.394484,52.7752254 310.016328,52.6676434 C309.637866,52.5622131 309.245261,52.5087295 308.842817,52.5087295 C308.227316,52.5087295 307.708044,52.5944877 307.288998,52.7656967 C306.867494,52.9384426 306.53238,53.1606762 306.283044,53.4327049 C306.034015,53.7056557 305.861539,54.0084221 305.768383,54.3385451 C305.672461,54.6717418 305.655552,55.0030943 305.715503,55.3344467 C305.784678,55.748791 305.95039,56.0819877 306.211102,56.3303484 C306.472121,56.5784016 306.792785,56.7831148 307.171862,56.9432582 C307.552477,57.1030943 307.968756,57.2334221 308.426231,57.333627 C308.881248,57.4344467 309.346102,57.5420287 309.819872,57.6548361 C310.294257,57.7670287 310.753578,57.9004303 311.199063,58.0547336 C311.642396,58.2078074 312.037461,58.4159016 312.382105,58.6771721 C312.724905,58.9365984 313.000066,59.2710246 313.208513,59.6804508 C313.414193,60.0892623 313.519338,60.6019672 313.519338,61.2173361 C313.519338,62.4022746 313.110439,63.321332 312.291409,63.9729713 C311.47484,64.6243033 310.325617,64.9495082 308.842817,64.9495082 C308.179354,64.9495082 307.564468,64.8631352 306.99416,64.6931557 C306.42416,64.5210246 305.933481,64.2597541 305.519354,63.9102664 C305.104921,63.5610861 304.781798,63.1276844 304.549371,62.6131352 C304.319403,62.0979713 304.20196,61.4896721 304.20196,60.7910041 L305.375778,60.7910041 Z" id="Fill-93" fill="#C7C7C7" mask="url(#mask-29)"></path>
                    <polygon id="Fill-94" fill="#C7C7C7" mask="url(#mask-29)" points="315.030822 51.8152561 324.346049 51.8152561 324.346049 52.8461988 320.291485 52.8461988 320.291485 64.6122848 319.082311 64.6122848 319.082311 52.8461988 315.030822 52.8461988"></polygon>
                    <path d="M327.010906,60.7910041 C327.058867,61.3608811 327.186149,61.8434631 327.394595,62.2396721 C327.603042,62.6371107 327.868366,62.9601639 328.194563,63.2091393 C328.519838,63.4578074 328.895841,63.6379303 329.324417,63.750123 C329.750841,63.8623156 330.20555,63.9201025 330.691926,63.9201025 C331.261618,63.9201025 331.752913,63.8484836 332.166731,63.7067828 C332.583317,63.5635451 332.921505,63.3717418 333.181909,63.1276844 C333.440777,62.8854713 333.634773,62.6032992 333.758981,62.2845492 C333.883803,61.9639549 333.946521,61.6267623 333.946521,61.271127 C333.946521,60.7740984 333.833382,60.3708197 333.608333,60.0634426 C333.383285,59.7542213 333.089061,59.5027869 332.727508,59.306373 C332.36534,59.1111885 331.951521,58.9544262 331.484515,58.8363934 C331.014741,58.7174385 330.536359,58.6027869 330.042605,58.4905943 C329.552233,58.3774795 329.070469,58.2437705 328.603463,58.0906967 C328.134304,57.9357787 327.720178,57.7286066 327.358625,57.4679508 C326.997071,57.2069877 326.704693,56.8719467 326.479337,56.4625205 C326.254288,56.0543238 326.142071,55.5354713 326.142071,54.9087295 C326.142071,54.4707172 326.232767,54.0431557 326.416926,53.627582 C326.599547,53.2135451 326.872249,52.8459221 327.233803,52.5265574 C327.595663,52.2053484 328.047913,51.9520697 328.594239,51.762418 C329.140259,51.5721516 329.767751,51.4777869 330.47856,51.4777869 C331.201667,51.4777869 331.834078,51.5779918 332.372411,51.7793238 C332.911667,51.9803484 333.358997,52.2569877 333.714094,52.6052459 C334.070728,52.9559631 334.336667,53.3617008 334.513754,53.8239959 C334.693301,54.286291 334.781537,54.7768648 334.781537,55.2990984 L333.625243,55.2990984 C333.625243,54.8128279 333.539159,54.3926434 333.368835,54.0370082 C333.196359,53.6816803 332.961472,53.3905943 332.665097,53.1652869 C332.370259,52.9409016 332.030227,52.7752254 331.652071,52.6676434 C331.273608,52.5622131 330.881003,52.5087295 330.47856,52.5087295 C329.863058,52.5087295 329.343786,52.5944877 328.924741,52.7656967 C328.503236,52.9384426 328.168123,53.1606762 327.918786,53.4327049 C327.669757,53.7056557 327.497282,54.0084221 327.404126,54.3385451 C327.308204,54.6717418 327.291294,55.0030943 327.351246,55.3344467 C327.420421,55.748791 327.586133,56.0819877 327.846845,56.3303484 C328.107864,56.5784016 328.428528,56.7831148 328.80699,56.9432582 C329.18822,57.1030943 329.604498,57.2334221 330.061974,57.333627 C330.51699,57.4344467 330.98123,57.5420287 331.455615,57.6548361 C331.93,57.7670287 332.38932,57.9004303 332.834806,58.0547336 C333.278139,58.2078074 333.673204,58.4159016 334.017848,58.6771721 C334.360032,58.9365984 334.635809,59.2710246 334.844256,59.6804508 C335.049935,60.0892623 335.155081,60.6019672 335.155081,61.2173361 C335.155081,62.4022746 334.745566,63.321332 333.927152,63.9729713 C333.110583,64.6243033 331.961359,64.9495082 330.47856,64.9495082 C329.815097,64.9495082 329.199595,64.8631352 328.629903,64.6931557 C328.059903,64.5210246 327.569223,64.2597541 327.155097,63.9102664 C326.740663,63.5610861 326.416926,63.1276844 326.185113,62.6131352 C325.955146,62.0979713 325.837702,61.4896721 325.837702,60.7910041 L327.010906,60.7910041 Z" id="Fill-95" fill="#C7C7C7" mask="url(#mask-29)"></path>
                </g>
            </g>
        </g>
    </g>
</svg>